Rosalind Serif-Black Italic.ufo
<glyph name="exclam" format="1">
  <advance width="615"/>
  <unicode hex="0021"/>
  <note>
	exclam
  </note>
  <outline>
    <contour>
      <point x="604" y="1529" type="line"/>
      <point x="382" y="454" type="line"/>
      <point x="207" y="454" type="line"/>
      <point x="316" y="1529" type="line"/>
    </contour>
    <contour>
      <point x="317" y="293"/>
      <point x="357" y="266"/>
      <point x="377" y="223" type="curve" smooth="yes"/>
      <point x="386" y="202"/>
      <point x="391" y="179"/>
      <point x="391" y="155" type="curve" smooth="yes"/>
      <point x="391" y="80"/>
      <point x="354" y="29"/>
      <point x="301" y="3" type="curve" smooth="yes"/>
      <point x="274" y="-10"/>
      <point x="247" y="-17"/>
      <point x="218" y="-17" type="curve" smooth="yes"/>
      <point x="175" y="-17"/>
      <point x="137" y="8"/>
      <point x="116" y="51" type="curve" smooth="yes"/>
      <point x="105" y="72"/>
      <point x="100" y="96"/>
      <point x="100" y="121" type="curve" smooth="yes"/>
      <point x="100" y="190"/>
      <point x="135" y="244"/>
      <point x="186" y="272" type="curve" smooth="yes"/>
      <point x="211" y="286"/>
      <point x="237" y="293"/>
      <point x="264" y="293" type="curve" smooth="yes"/>
    </contour>
  </outline>
</glyph>
<glyph name="quotedbl" format="1">
  <advance width="954"/>
  <unicode hex="0022"/>
  <note>
	quotedbl
  </note>
  <outline>
    <contour>
      <point x="484" y="1451" type="line"/>
      <point x="340" y="831" type="line"/>
      <point x="168" y="831" type="line"/>
      <point x="237" y="1451" type="line"/>
    </contour>
    <contour>
      <point x="930" y="1451" type="line"/>
      <point x="786" y="831" type="line"/>
      <point x="614" y="831" type="line"/>
      <point x="683" y="1451" type="line"/>
    </contour>
  </outline>
</glyph>
<glyph name="numbersign" format="1">
  <advance width="1208"/>
  <unicode hex="0023"/>
  <note>
	numbersign
  </note>
  <outline>
    <contour>
      <point x="95" y="314" type="line"/>
      <point x="115" y="469" type="line"/>
      <point x="283" y="469" type="line"/>
      <point x="322" y="731" type="line"/>
      <point x="156" y="731" type="line"/>
      <point x="169" y="882" type="line"/>
      <point x="343" y="882" type="line"/>
      <point x="389" y="1167" type="line"/>
      <point x="582" y="1167" type="line"/>
      <point x="538" y="882" type="line"/>
      <point x="754" y="882" type="line"/>
      <point x="802" y="1167" type="line"/>
      <point x="996" y="1167" type="line"/>
      <point x="949" y="882" type="line"/>
      <point x="1123" y="882" type="line"/>
      <point x="1109" y="731" type="line"/>
      <point x="928" y="731" type="line"/>
      <point x="888" y="469" type="line"/>
      <point x="1059" y="469" type="line"/>
      <point x="1039" y="314" type="line"/>
      <point x="859" y="314" type="line"/>
      <point x="810" y="0" type="line"/>
      <point x="621" y="0" type="line"/>
      <point x="665" y="314" type="line"/>
      <point x="448" y="314" type="line"/>
      <point x="395" y="0" type="line"/>
      <point x="204" y="0" type="line"/>
      <point x="254" y="314" type="line"/>
    </contour>
    <contour>
      <point x="733" y="731" type="line"/>
      <point x="517" y="731" type="line"/>
      <point x="477" y="469" type="line"/>
      <point x="694" y="469" type="line"/>
    </contour>
  </outline>
</glyph>
<glyph name="dollar" format="1">
  <advance width="1036"/>
  <unicode hex="0024"/>
  <note>
	dollar
  </note>
  <outline>
    <contour>
      <point x="772" y="694"/>
      <point x="851" y="629"/>
      <point x="900" y="538" type="curve" smooth="yes"/>
      <point x="924" y="492"/>
      <point x="936" y="440"/>
      <point x="936" y="383" type="curve" smooth="yes"/>
      <point x="936" y="246"/>
      <point x="875" y="127"/>
      <point x="744" y="51" type="curve" smooth="yes"/>
      <point x="678" y="13"/>
      <point x="595" y="-10"/>
      <point x="496" y="-17" type="curve"/>
      <point x="467" y="-198" type="line"/>
      <point x="312" y="-198" type="line"/>
      <point x="341" y="-16" type="line"/>
      <point x="241" y="-8"/>
      <point x="144" y="12"/>
      <point x="80" y="34" type="curve" smooth="yes"/>
      <point x="48" y="45"/>
      <point x="26" y="55"/>
      <point x="15" y="64" type="curve"/>
      <point x="68" y="338" type="line"/>
      <point x="243" y="338" type="line"/>
      <point x="251" y="150" type="line"/>
      <point x="303" y="111"/>
      <point x="363" y="91"/>
      <point x="431" y="91" type="curve" smooth="yes"/>
      <point x="591" y="91"/>
      <point x="654" y="162"/>
      <point x="654" y="271" type="curve" smooth="yes"/>
      <point x="654" y="343"/>
      <point x="623" y="397"/>
      <point x="559" y="451" type="curve" smooth="yes"/>
      <point x="527" y="478"/>
      <point x="482" y="509"/>
      <point x="425" y="546" type="curve" smooth="yes"/>
      <point x="248" y="659"/>
      <point x="141" y="774"/>
      <point x="141" y="938" type="curve" smooth="yes"/>
      <point x="141" y="1090"/>
      <point x="219" y="1204"/>
      <point x="351" y="1268" type="curve" smooth="yes"/>
      <point x="417" y="1299"/>
      <point x="493" y="1318"/>
      <point x="579" y="1324" type="curve"/>
      <point x="605" y="1487" type="line"/>
      <point x="760" y="1487" type="line"/>
      <point x="734" y="1322" type="line"/>
      <point x="840" y="1314"/>
      <point x="922" y="1294"/>
      <point x="979" y="1262" type="curve"/>
      <point x="932" y="1002" type="line"/>
      <point x="768" y="1002" type="line"/>
      <point x="744" y="1172" type="line"/>
      <point x="701" y="1203"/>
      <point x="655" y="1217"/>
      <point x="594" y="1217" type="curve" smooth="yes"/>
      <point x="475" y="1217"/>
      <point x="414" y="1155"/>
      <point x="414" y="1060" type="curve" smooth="yes"/>
      <point x="414" y="977"/>
      <point x="449" y="919"/>
      <point x="518" y="863" type="curve" smooth="yes"/>
      <point x="552" y="834"/>
      <point x="600" y="801"/>
      <point x="661" y="763" type="curve" smooth="yes"/>
    </contour>
    <contour>
      <point x="175" y="232" type="line"/>
      <point x="173" y="237" type="line"/>
    </contour>
  </outline>
</glyph>
<glyph name="percent" format="1">
  <advance width="1643"/>
  <unicode hex="0025"/>
  <note>
	percent
  </note>
  <outline>
    <contour>
      <point x="1318" y="1316" type="line"/>
      <point x="504" y="0" type="line"/>
      <point x="316" y="0" type="line"/>
      <point x="1130" y="1316" type="line"/>
    </contour>
    <contour>
      <point x="138" y="1030"/>
      <point x="208" y="1154"/>
      <point x="321" y="1227" type="curve" smooth="yes"/>
      <point x="378" y="1263"/>
      <point x="441" y="1281"/>
      <point x="510" y="1281" type="curve" smooth="yes"/>
      <point x="629" y="1281"/>
      <point x="712" y="1233"/>
      <point x="753" y="1154" type="curve" smooth="yes"/>
      <point x="773" y="1115"/>
      <point x="783" y="1070"/>
      <point x="783" y="1019" type="curve" smooth="yes"/>
      <point x="783" y="892"/>
      <point x="714" y="764"/>
      <point x="599" y="689" type="curve" smooth="yes"/>
      <point x="541" y="651"/>
      <point x="475" y="632"/>
      <point x="402" y="632" type="curve" smooth="yes"/>
      <point x="293" y="632"/>
      <point x="210" y="684"/>
      <point x="169" y="768" type="curve" smooth="yes"/>
      <point x="148" y="810"/>
      <point x="138" y="856"/>
      <point x="138" y="907" type="curve" smooth="yes"/>
    </contour>
    <contour>
      <point x="576" y="1123"/>
      <point x="547" y="1185"/>
      <point x="486" y="1185" type="curve" smooth="yes"/>
      <point x="423" y="1185"/>
      <point x="377" y="1117"/>
      <point x="354" y="1032" type="curve" smooth="yes"/>
      <point x="342" y="989"/>
      <point x="336" y="948"/>
      <point x="336" y="909" type="curve" smooth="yes"/>
      <point x="336" y="789"/>
      <point x="366" y="729"/>
      <point x="427" y="729" type="curve" smooth="yes"/>
      <point x="490" y="729"/>
      <point x="535" y="800"/>
      <point x="559" y="889" type="curve" smooth="yes"/>
      <point x="570" y="933"/>
      <point x="576" y="974"/>
      <point x="576" y="1012" type="curve" smooth="yes"/>
    </contour>
    <contour>
      <point x="1366" y="698"/>
      <point x="1449" y="650"/>
      <point x="1490" y="571" type="curve" smooth="yes"/>
      <point x="1510" y="532"/>
      <point x="1520" y="487"/>
      <point x="1520" y="436" type="curve" smooth="yes"/>
      <point x="1520" y="309"/>
      <point x="1451" y="181"/>
      <point x="1336" y="106" type="curve" smooth="yes"/>
      <point x="1278" y="68"/>
      <point x="1213" y="49"/>
      <point x="1140" y="49" type="curve" smooth="yes"/>
      <point x="1029" y="49"/>
      <point x="947" y="101"/>
      <point x="906" y="185" type="curve" smooth="yes"/>
      <point x="885" y="227"/>
      <point x="875" y="273"/>
      <point x="875" y="324" type="curve" smooth="yes"/>
      <point x="875" y="447"/>
      <point x="945" y="571"/>
      <point x="1058" y="644" type="curve" smooth="yes"/>
      <point x="1115" y="680"/>
      <point x="1178" y="698"/>
      <point x="1247" y="698" type="curve" smooth="yes"/>
    </contour>
    <contour>
      <point x="1227" y="146"/>
      <point x="1272" y="217"/>
      <point x="1296" y="306" type="curve" smooth="yes"/>
      <point x="1307" y="350"/>
      <point x="1313" y="391"/>
      <point x="1313" y="429" type="curve" smooth="yes"/>
      <point x="1313" y="540"/>
      <point x="1284" y="602"/>
      <point x="1223" y="602" type="curve" smooth="yes"/>
      <point x="1160" y="602"/>
      <point x="1114" y="535"/>
      <point x="1091" y="449" type="curve" smooth="yes"/>
      <point x="1079" y="406"/>
      <point x="1073" y="365"/>
      <point x="1073" y="326" type="curve" smooth="yes"/>
      <point x="1073" y="206"/>
      <point x="1103" y="146"/>
      <point x="1164" y="146" type="curve" smooth="yes"/>
    </contour>
  </outline>
</glyph>
<glyph name="ampersand" format="1">
  <advance width="1558"/>
  <unicode hex="0026"/>
  <note>
	ampersand
  </note>
  <outline>
    <contour>
      <point x="941" y="673" type="line"/>
      <point x="961" y="694"/>
      <point x="1007" y="716"/>
      <point x="1074" y="716" type="curve" smooth="yes"/>
      <point x="1091" y="716"/>
      <point x="1107" y="715"/>
      <point x="1123" y="713" type="curve" smooth="yes"/>
      <point x="1139" y="711"/>
      <point x="1149" y="710"/>
      <point x="1154" y="710" type="curve"/>
      <point x="1188" y="705"/>
      <point x="1221" y="702"/>
      <point x="1254" y="702" type="curve" smooth="yes"/>
      <point x="1319" y="702"/>
      <point x="1351" y="714"/>
      <point x="1371" y="751" type="curve" smooth="yes"/>
      <point x="1380" y="769"/>
      <point x="1388" y="796"/>
      <point x="1393" y="832" type="curve"/>
      <point x="1490" y="832" type="line"/>
      <point x="1503" y="793"/>
      <point x="1510" y="751"/>
      <point x="1510" y="708" type="curve" smooth="yes"/>
      <point x="1510" y="629"/>
      <point x="1487" y="564"/>
      <point x="1441" y="526" type="curve" smooth="yes"/>
      <point x="1418" y="507"/>
      <point x="1390" y="497"/>
      <point x="1358" y="497" type="curve" smooth="yes"/>
      <point x="1330" y="497" type="line"/>
      <point x="1330" y="478" type="line" smooth="yes"/>
      <point x="1330" y="351"/>
      <point x="1269" y="242"/>
      <point x="1162" y="157" type="curve"/>
      <point x="1167" y="154" type="line"/>
      <point x="1207" y="134"/>
      <point x="1270" y="122"/>
      <point x="1322" y="122" type="curve" smooth="yes"/>
      <point x="1330" y="122"/>
      <point x="1340" y="123"/>
      <point x="1353" y="124" type="curve"/>
      <point x="1352" y="16" type="line"/>
      <point x="1292" y="-9"/>
      <point x="1233" y="-17"/>
      <point x="1104" y="-17" type="curve" smooth="yes"/>
      <point x="1024" y="-17"/>
      <point x="956" y="-5"/>
      <point x="900" y="19" type="curve"/>
      <point x="795" y="-14"/>
      <point x="684" y="-32"/>
      <point x="581" y="-32" type="curve" smooth="yes"/>
      <point x="378" y="-32"/>
      <point x="215" y="21"/>
      <point x="127" y="120" type="curve" smooth="yes"/>
      <point x="83" y="169"/>
      <point x="61" y="227"/>
      <point x="61" y="292" type="curve" smooth="yes"/>
      <point x="61" y="427"/>
      <point x="126" y="519"/>
      <point x="222" y="581" type="curve" smooth="yes"/>
      <point x="270" y="612"/>
      <point x="328" y="641"/>
      <point x="397" y="668" type="curve"/>
      <point x="356" y="764"/>
      <point x="329" y="862"/>
      <point x="329" y="941" type="curve" smooth="yes"/>
      <point x="329" y="1104"/>
      <point x="413" y="1225"/>
      <point x="554" y="1288" type="curve" smooth="yes"/>
      <point x="625" y="1319"/>
      <point x="705" y="1335"/>
      <point x="796" y="1335" type="curve" smooth="yes"/>
      <point x="960" y="1335"/>
      <point x="1073" y="1285"/>
      <point x="1127" y="1206" type="curve" smooth="yes"/>
      <point x="1154" y="1167"/>
      <point x="1167" y="1122"/>
      <point x="1167" y="1073" type="curve" smooth="yes"/>
      <point x="1167" y="938"/>
      <point x="1079" y="843"/>
      <point x="967" y="781" type="curve" smooth="yes"/>
      <point x="911" y="750"/>
      <point x="837" y="715"/>
      <point x="745" y="676" type="curve" smooth="yes"/>
      <point x="728" y="669" type="line"/>
      <point x="828" y="490"/>
      <point x="884" y="416"/>
      <point x="991" y="300" type="curve" smooth="yes"/>
      <point x="999" y="291"/>
      <point x="1014" y="276"/>
      <point x="1037" y="255" type="curve"/>
      <point x="1076" y="308"/>
      <point x="1096" y="370"/>
      <point x="1096" y="440" type="curve" smooth="yes"/>
      <point x="1096" y="467"/>
      <point x="1095" y="491"/>
      <point x="1094" y="512" type="curve"/>
      <point x="1074" y="512" type="line" smooth="yes"/>
      <point x="1018" y="512"/>
      <point x="965" y="499"/>
      <point x="941" y="479" type="curve"/>
    </contour>
    <contour>
      <point x="812" y="844"/>
      <point x="891" y="925"/>
      <point x="891" y="1060" type="curve" smooth="yes"/>
      <point x="891" y="1151"/>
      <point x="862" y="1229"/>
      <point x="790" y="1229" type="curve" smooth="yes"/>
      <point x="666" y="1229"/>
      <point x="621" y="1142"/>
      <point x="621" y="998" type="curve" smooth="yes"/>
      <point x="621" y="925"/>
      <point x="638" y="851"/>
      <point x="672" y="777" type="curve"/>
    </contour>
    <contour>
      <point x="701" y="177"/>
      <point x="635" y="263"/>
      <point x="583" y="344" type="curve" smooth="yes"/>
      <point x="557" y="385"/>
      <point x="525" y="437"/>
      <point x="488" y="500" type="curve" smooth="yes"/>
      <point x="470" y="532" type="line"/>
      <point x="398" y="476"/>
      <point x="359" y="412"/>
      <point x="359" y="329" type="curve" smooth="yes"/>
      <point x="359" y="230"/>
      <point x="405" y="156"/>
      <point x="485" y="118" type="curve" smooth="yes"/>
      <point x="524" y="99"/>
      <point x="570" y="89"/>
      <point x="623" y="89" type="curve" smooth="yes"/>
      <point x="678" y="89"/>
      <point x="730" y="94"/>
      <point x="778" y="105" type="curve"/>
    </contour>
  </outline>
</glyph>
<glyph name="quotesingle" format="1">
  <advance width="508"/>
  <unicode hex="0027"/>
  <note>
	quotesingle
  </note>
  <outline>
    <contour>
      <point x="484" y="1451" type="line"/>
      <point x="340" y="831" type="line"/>
      <point x="168" y="831" type="line"/>
      <point x="237" y="1451" type="line"/>
    </contour>
  </outline>
</glyph>
<glyph name="parenleft" format="1">
  <advance width="760"/>
  <unicode hex="0028"/>
  <note>
	parenleft
  </note>
  <outline>
    <contour>
      <point x="204" y="932"/>
      <point x="374" y="1202"/>
      <point x="534" y="1367" type="curve" smooth="yes"/>
      <point x="613" y="1449"/>
      <point x="674" y="1501"/>
      <point x="716" y="1523" type="curve"/>
      <point x="825" y="1447" type="line"/>
      <point x="758" y="1404"/>
      <point x="630" y="1262"/>
      <point x="522" y="1039" type="curve" smooth="yes"/>
      <point x="468" y="927"/>
      <point x="430" y="802"/>
      <point x="409" y="665" type="curve" smooth="yes"/>
      <point x="400" y="596"/>
      <point x="392" y="507"/>
      <point x="392" y="440" type="curve" smooth="yes"/>
      <point x="392" y="209"/>
      <point x="453" y="15"/>
      <point x="522" y="-105" type="curve" smooth="yes"/>
      <point x="557" y="-165"/>
      <point x="587" y="-206"/>
      <point x="613" y="-228" type="curve"/>
      <point x="494" y="-300" type="line"/>
      <point x="480" y="-300" type="line"/>
      <point x="412" y="-255"/>
      <point x="298" y="-130"/>
      <point x="214" y="79" type="curve" smooth="yes"/>
      <point x="172" y="183"/>
      <point x="151" y="301"/>
      <point x="151" y="434" type="curve" smooth="yes"/>
      <point x="151" y="494"/>
      <point x="155" y="557"/>
      <point x="164" y="623" type="curve" smooth="yes"/>
    </contour>
  </outline>
</glyph>
<glyph name="parenright" format="1">
  <advance width="768"/>
  <unicode hex="0029"/>
  <note>
	parenright
  </note>
  <outline>
    <contour>
      <point x="552" y="296"/>
      <point x="383" y="26"/>
      <point x="224" y="-138" type="curve" smooth="yes"/>
      <point x="144" y="-220"/>
      <point x="83" y="-272"/>
      <point x="41" y="-295" type="curve"/>
      <point x="-68" y="-218" type="line"/>
      <point x="-1" y="-177"/>
      <point x="127" y="-34"/>
      <point x="235" y="190" type="curve" smooth="yes"/>
      <point x="289" y="301"/>
      <point x="326" y="426"/>
      <point x="347" y="563" type="curve" smooth="yes"/>
      <point x="358" y="632"/>
      <point x="365" y="721"/>
      <point x="365" y="788" type="curve" smooth="yes"/>
      <point x="365" y="1019"/>
      <point x="303" y="1214"/>
      <point x="234" y="1334" type="curve" smooth="yes"/>
      <point x="199" y="1393"/>
      <point x="169" y="1434"/>
      <point x="144" y="1456" type="curve"/>
      <point x="262" y="1528" type="line"/>
      <point x="277" y="1528" type="line"/>
      <point x="345" y="1483"/>
      <point x="459" y="1358"/>
      <point x="543" y="1150" type="curve" smooth="yes"/>
      <point x="584" y="1045"/>
      <point x="605" y="927"/>
      <point x="605" y="794" type="curve" smooth="yes"/>
      <point x="605" y="735"/>
      <point x="601" y="672"/>
      <point x="593" y="605" type="curve" smooth="yes"/>
    </contour>
  </outline>
</glyph>
<glyph name="asterisk" format="1">
  <advance width="1174"/>
  <unicode hex="002A"/>
  <note>
	asterisk
  </note>
  <outline>
    <contour>
      <point x="485" y="973" type="line"/>
      <point x="537" y="990" type="line"/>
      <point x="492" y="1005" type="line"/>
      <point x="217" y="1126" type="line"/>
      <point x="338" y="1301" type="line"/>
      <point x="563" y="1114" type="line"/>
      <point x="599" y="1080" type="line"/>
      <point x="594" y="1133" type="line"/>
      <point x="588" y="1439" type="line"/>
      <point x="805" y="1438" type="line"/>
      <point x="734" y="1130" type="line"/>
      <point x="721" y="1084" type="line"/>
      <point x="760" y="1115" type="line"/>
      <point x="1027" y="1303" type="line"/>
      <point x="1109" y="1124" type="line"/>
      <point x="814" y="1005" type="line"/>
      <point x="762" y="988" type="line"/>
      <point x="808" y="972" type="line"/>
      <point x="1083" y="852" type="line"/>
      <point x="961" y="677" type="line"/>
      <point x="735" y="863" type="line"/>
      <point x="699" y="900" type="line"/>
      <point x="704" y="845" type="line"/>
      <point x="710" y="539" type="line"/>
      <point x="494" y="540" type="line"/>
      <point x="564" y="848" type="line"/>
      <point x="578" y="894" type="line"/>
      <point x="538" y="862" type="line"/>
      <point x="273" y="675" type="line"/>
      <point x="190" y="854" type="line"/>
    </contour>
  </outline>
</glyph>
<glyph name="plus" format="1">
  <advance width="1140"/>
  <unicode hex="002B"/>
  <note>
	plus
  </note>
  <outline>
    <contour>
      <point x="502" y="585" type="line"/>
      <point x="381" y="579" type="line"/>
      <point x="213" y="579" type="line"/>
      <point x="229" y="749" type="line"/>
      <point x="415" y="749" type="line"/>
      <point x="533" y="740" type="line"/>
      <point x="544" y="882" type="line"/>
      <point x="568" y="1079" type="line"/>
      <point x="755" y="1079" type="line"/>
      <point x="733" y="882" type="line"/>
      <point x="708" y="740" type="line"/>
      <point x="807" y="749" type="line"/>
      <point x="1000" y="749" type="line"/>
      <point x="985" y="579" type="line"/>
      <point x="774" y="579" type="line"/>
      <point x="678" y="585" type="line"/>
      <point x="677" y="558"/>
      <point x="676" y="530"/>
      <point x="673" y="501" type="curve" smooth="yes"/>
      <point x="669" y="444" type="line"/>
      <point x="645" y="236" type="line"/>
      <point x="457" y="236" type="line"/>
      <point x="480" y="444" type="line"/>
    </contour>
  </outline>
</glyph>
<glyph name="comma" format="1">
  <advance width="478"/>
  <unicode hex="002C"/>
  <note>
	comma
  </note>
  <outline>
    <contour>
      <point x="197" y="254" type="line"/>
      <point x="326" y="223"/>
      <point x="380" y="117"/>
      <point x="380" y="-3" type="curve" smooth="yes"/>
      <point x="380" y="-192"/>
      <point x="249" y="-356"/>
      <point x="41" y="-448" type="curve"/>
      <point x="-13" y="-372" type="line"/>
      <point x="-10" y="-353" type="line"/>
      <point x="51" y="-326"/>
      <point x="108" y="-261"/>
      <point x="140" y="-185" type="curve" smooth="yes"/>
      <point x="155" y="-148"/>
      <point x="163" y="-111"/>
      <point x="163" y="-76" type="curve" smooth="yes"/>
      <point x="163" y="-25"/>
      <point x="147" y="21"/>
      <point x="120" y="48" type="curve" smooth="yes"/>
      <point x="107" y="61"/>
      <point x="92" y="68"/>
      <point x="76" y="67" type="curve"/>
      <point x="82" y="122" type="line"/>
    </contour>
  </outline>
</glyph>
<glyph name="hyphen" format="1">
  <advance width="1105"/>
  <unicode hex="002D"/>
  <note>
	hyphen
  </note>
  <outline>
    <contour>
      <point x="966" y="749" type="line"/>
      <point x="950" y="579" type="line"/>
      <point x="213" y="579" type="line"/>
      <point x="229" y="749" type="line"/>
    </contour>
  </outline>
</glyph>
<glyph name="period" format="1">
  <advance width="478"/>
  <unicode hex="002E"/>
  <note>
	period
  </note>
  <outline>
    <contour>
      <point x="270" y="293"/>
      <point x="310" y="266"/>
      <point x="330" y="223" type="curve" smooth="yes"/>
      <point x="339" y="202"/>
      <point x="344" y="179"/>
      <point x="344" y="155" type="curve" smooth="yes"/>
      <point x="344" y="80"/>
      <point x="306" y="29"/>
      <point x="253" y="3" type="curve" smooth="yes"/>
      <point x="226" y="-10"/>
      <point x="199" y="-17"/>
      <point x="170" y="-17" type="curve" smooth="yes"/>
      <point x="127" y="-17"/>
      <point x="89" y="8"/>
      <point x="68" y="51" type="curve" smooth="yes"/>
      <point x="57" y="72"/>
      <point x="52" y="96"/>
      <point x="52" y="121" type="curve" smooth="yes"/>
      <point x="52" y="190"/>
      <point x="89" y="244"/>
      <point x="139" y="272" type="curve" smooth="yes"/>
      <point x="164" y="286"/>
      <point x="190" y="293"/>
      <point x="217" y="293" type="curve" smooth="yes"/>
    </contour>
  </outline>
</glyph>
<glyph name="slash" format="1">
  <advance width="734"/>
  <unicode hex="002F"/>
  <note>
	slash
  </note>
  <outline>
    <contour>
      <point x="636" y="1373" type="line"/>
      <point x="837" y="1373" type="line"/>
      <point x="95" y="-311" type="line"/>
      <point x="-105" y="-311" type="line"/>
    </contour>
  </outline>
</glyph>
<glyph name="zero" format="1">
  <advance width="1099"/>
  <unicode hex="0030"/>
  <note>
	zero
  </note>
  <outline>
    <contour>
      <point x="66" y="632"/>
      <point x="165" y="821"/>
      <point x="333" y="923" type="curve" smooth="yes"/>
      <point x="417" y="974"/>
      <point x="512" y="999"/>
      <point x="619" y="999" type="curve" smooth="yes"/>
      <point x="811" y="999"/>
      <point x="936" y="917"/>
      <point x="995" y="791" type="curve" smooth="yes"/>
      <point x="1024" y="728"/>
      <point x="1039" y="658"/>
      <point x="1039" y="581" type="curve" smooth="yes"/>
      <point x="1039" y="353"/>
      <point x="940" y="165"/>
      <point x="772" y="63" type="curve" smooth="yes"/>
      <point x="688" y="12"/>
      <point x="593" y="-14"/>
      <point x="486" y="-14" type="curve" smooth="yes"/>
      <point x="294" y="-14"/>
      <point x="169" y="70"/>
      <point x="110" y="196" type="curve" smooth="yes"/>
      <point x="81" y="259"/>
      <point x="66" y="328"/>
      <point x="66" y="404" type="curve" smooth="yes"/>
    </contour>
    <contour>
      <point x="739" y="778"/>
      <point x="699" y="906"/>
      <point x="596" y="906" type="curve" smooth="yes"/>
      <point x="475" y="906"/>
      <point x="408" y="784"/>
      <point x="382" y="633" type="curve" smooth="yes"/>
      <point x="369" y="558"/>
      <point x="362" y="480"/>
      <point x="362" y="401" type="curve" smooth="yes"/>
      <point x="362" y="208"/>
      <point x="402" y="81"/>
      <point x="505" y="81" type="curve" smooth="yes"/>
      <point x="626" y="81"/>
      <point x="694" y="202"/>
      <point x="720" y="353" type="curve" smooth="yes"/>
      <point x="733" y="428"/>
      <point x="739" y="506"/>
      <point x="739" y="586" type="curve" smooth="yes"/>
    </contour>
  </outline>
</glyph>
<glyph name="one" format="1">
  <advance width="799"/>
  <unicode hex="0031"/>
  <note>
	one
  </note>
  <outline>
    <contour>
      <point x="243" y="117" type="line"/>
      <point x="333" y="763" type="line"/>
      <point x="254" y="744"/>
      <point x="184" y="729"/>
      <point x="125" y="718" type="curve"/>
      <point x="108" y="826" type="line"/>
      <point x="227" y="851"/>
      <point x="416" y="935"/>
      <point x="509" y="999" type="curve"/>
      <point x="649" y="968" type="line"/>
      <point x="529" y="117" type="line"/>
      <point x="718" y="91" type="line"/>
      <point x="710" y="0" type="line"/>
      <point x="53" y="0" type="line"/>
      <point x="62" y="91" type="line"/>
    </contour>
  </outline>
</glyph>
<glyph name="two" format="1">
  <advance width="1074"/>
  <unicode hex="0032"/>
  <note>
	two
  </note>
  <outline>
    <contour>
      <point x="34" y="91" type="line"/>
      <point x="257" y="212"/>
      <point x="442" y="356"/>
      <point x="544" y="493" type="curve" smooth="yes"/>
      <point x="595" y="562"/>
      <point x="620" y="625"/>
      <point x="620" y="683" type="curve" smooth="yes"/>
      <point x="620" y="776"/>
      <point x="564" y="831"/>
      <point x="472" y="831" type="curve" smooth="yes"/>
      <point x="393" y="831"/>
      <point x="312" y="800"/>
      <point x="252" y="763" type="curve" smooth="yes"/>
      <point x="221" y="744"/>
      <point x="198" y="727"/>
      <point x="183" y="710" type="curve"/>
      <point x="119" y="821" type="line"/>
      <point x="155" y="865"/>
      <point x="237" y="926"/>
      <point x="358" y="968" type="curve" smooth="yes"/>
      <point x="419" y="989"/>
      <point x="485" y="999"/>
      <point x="557" y="999" type="curve" smooth="yes"/>
      <point x="737" y="999"/>
      <point x="843" y="941"/>
      <point x="888" y="859" type="curve" smooth="yes"/>
      <point x="910" y="818"/>
      <point x="921" y="774"/>
      <point x="921" y="728" type="curve" smooth="yes"/>
      <point x="921" y="575"/>
      <point x="782" y="421"/>
      <point x="598" y="298" type="curve" smooth="yes"/>
      <point x="506" y="236"/>
      <point x="408" y="180"/>
      <point x="304" y="130" type="curve"/>
      <point x="786" y="167" type="line"/>
      <point x="884" y="340" type="line"/>
      <point x="1011" y="300" type="line"/>
      <point x="924" y="0" type="line"/>
      <point x="62" y="0" type="line"/>
    </contour>
  </outline>
</glyph>
<glyph name="three" format="1">
  <advance width="949"/>
  <unicode hex="0033"/>
  <note>
	three
  </note>
  <outline>
    <contour>
      <point x="318" y="-175"/>
      <point x="448" y="-110"/>
      <point x="509" y="-17" type="curve" smooth="yes"/>
      <point x="539" y="30"/>
      <point x="554" y="80"/>
      <point x="554" y="133" type="curve" smooth="yes"/>
      <point x="554" y="225"/>
      <point x="493" y="288"/>
      <point x="354" y="288" type="curve" smooth="yes"/>
      <point x="337" y="288"/>
      <point x="319" y="287"/>
      <point x="300" y="286" type="curve"/>
      <point x="206" y="260" type="line"/>
      <point x="225" y="384" type="line"/>
      <point x="357" y="413"/>
      <point x="460" y="481"/>
      <point x="513" y="568" type="curve" smooth="yes"/>
      <point x="539" y="611"/>
      <point x="552" y="656"/>
      <point x="552" y="701" type="curve" smooth="yes"/>
      <point x="552" y="770"/>
      <point x="512" y="825"/>
      <point x="427" y="825" type="curve" smooth="yes"/>
      <point x="316" y="825"/>
      <point x="226" y="789"/>
      <point x="146" y="722" type="curve"/>
      <point x="95" y="824" type="line"/>
      <point x="138" y="872"/>
      <point x="234" y="934"/>
      <point x="354" y="971" type="curve" smooth="yes"/>
      <point x="413" y="990"/>
      <point x="473" y="999"/>
      <point x="532" y="999" type="curve" smooth="yes"/>
      <point x="649" y="999"/>
      <point x="744" y="962"/>
      <point x="796" y="890" type="curve" smooth="yes"/>
      <point x="822" y="853"/>
      <point x="835" y="809"/>
      <point x="835" y="758" type="curve" smooth="yes"/>
      <point x="835" y="658"/>
      <point x="770" y="554"/>
      <point x="675" y="474" type="curve" smooth="yes"/>
      <point x="627" y="433"/>
      <point x="576" y="401"/>
      <point x="521" y="378" type="curve"/>
      <point x="548" y="380"/>
      <point x="566" y="381"/>
      <point x="577" y="381" type="curve" smooth="yes"/>
      <point x="688" y="381"/>
      <point x="771" y="341"/>
      <point x="812" y="271" type="curve" smooth="yes"/>
      <point x="833" y="236"/>
      <point x="843" y="194"/>
      <point x="843" y="147" type="curve" smooth="yes"/>
      <point x="843" y="-34"/>
      <point x="713" y="-181"/>
      <point x="512" y="-259" type="curve" smooth="yes"/>
      <point x="411" y="-298"/>
      <point x="302" y="-318"/>
      <point x="183" y="-318" type="curve" smooth="yes"/>
      <point x="128" y="-318"/>
      <point x="60" y="-309"/>
      <point x="-19" y="-290" type="curve"/>
      <point x="17" y="-162" type="line"/>
      <point x="50" y="-170"/>
      <point x="98" y="-175"/>
      <point x="126" y="-175" type="curve" smooth="yes"/>
    </contour>
  </outline>
</glyph>
<glyph name="four" format="1">
  <advance width="1087"/>
  <unicode hex="0034"/>
  <note>
	four
  </note>
  <outline>
    <contour>
      <point x="-34" y="72" type="line"/>
      <point x="78" y="213"/>
      <point x="242" y="489"/>
      <point x="376" y="753" type="curve" smooth="yes"/>
      <point x="443" y="884"/>
      <point x="493" y="993"/>
      <point x="526" y="1080" type="curve"/>
      <point x="561" y="1080" type="line"/>
      <point x="832" y="962" type="line"/>
      <point x="735" y="797"/>
      <point x="447" y="380"/>
      <point x="328" y="235" type="curve"/>
      <point x="216" y="109" type="line"/>
      <point x="565" y="139" type="line"/>
      <point x="603" y="422" type="line"/>
      <point x="873" y="489" type="line"/>
      <point x="837" y="159" type="line"/>
      <point x="1003" y="172" type="line"/>
      <point x="980" y="0" type="line"/>
      <point x="808" y="0" type="line"/>
      <point x="767" y="-322" type="line"/>
      <point x="501" y="-322" type="line"/>
      <point x="544" y="0" type="line"/>
      <point x="22" y="0" type="line"/>
    </contour>
  </outline>
</glyph>
<glyph name="five" format="1">
  <advance width="959"/>
  <unicode hex="0035"/>
  <note>
	five
  </note>
  <outline>
    <contour>
      <point x="334" y="-173"/>
      <point x="455" y="-100"/>
      <point x="510" y="1" type="curve" smooth="yes"/>
      <point x="537" y="52"/>
      <point x="551" y="104"/>
      <point x="551" y="158" type="curve" smooth="yes"/>
      <point x="551" y="287"/>
      <point x="474" y="367"/>
      <point x="335" y="367" type="curve" smooth="yes"/>
      <point x="268" y="367"/>
      <point x="202" y="350"/>
      <point x="137" y="316" type="curve"/>
      <point x="84" y="356" type="line"/>
      <point x="215" y="986" type="line"/>
      <point x="746" y="986" type="line"/>
      <point x="765" y="999" type="line"/>
      <point x="900" y="999" type="line"/>
      <point x="853" y="803" type="line"/>
      <point x="421" y="804" type="line"/>
      <point x="333" y="465" type="line"/>
      <point x="366" y="490"/>
      <point x="470" y="519"/>
      <point x="537" y="519" type="curve" smooth="yes"/>
      <point x="685" y="519"/>
      <point x="782" y="461"/>
      <point x="827" y="371" type="curve" smooth="yes"/>
      <point x="850" y="326"/>
      <point x="861" y="276"/>
      <point x="861" y="221" type="curve" smooth="yes"/>
      <point x="861" y="13"/>
      <point x="741" y="-151"/>
      <point x="544" y="-238" type="curve" smooth="yes"/>
      <point x="445" y="-282"/>
      <point x="334" y="-304"/>
      <point x="211" y="-304" type="curve" smooth="yes"/>
      <point x="160" y="-304"/>
      <point x="62" y="-290"/>
      <point x="35" y="-283" type="curve"/>
      <point x="57" y="-159" type="line"/>
      <point x="78" y="-164"/>
      <point x="122" y="-173"/>
      <point x="150" y="-173" type="curve" smooth="yes"/>
    </contour>
  </outline>
</glyph>
<glyph name="six" format="1">
  <advance width="1038"/>
  <unicode hex="0036"/>
  <note>
	six
  </note>
  <outline>
    <contour>
      <point x="80" y="716"/>
      <point x="221" y="983"/>
      <point x="453" y="1164" type="curve" smooth="yes"/>
      <point x="569" y="1254"/>
      <point x="699" y="1316"/>
      <point x="843" y="1351" type="curve"/>
      <point x="889" y="1236" type="line"/>
      <point x="748" y="1193"/>
      <point x="602" y="1079"/>
      <point x="503" y="944" type="curve" smooth="yes"/>
      <point x="454" y="877"/>
      <point x="420" y="812"/>
      <point x="403" y="750" type="curve"/>
      <point x="452" y="813"/>
      <point x="534" y="856"/>
      <point x="646" y="856" type="curve" smooth="yes"/>
      <point x="777" y="856"/>
      <point x="877" y="796"/>
      <point x="930" y="697" type="curve" smooth="yes"/>
      <point x="956" y="647"/>
      <point x="969" y="590"/>
      <point x="969" y="527" type="curve" smooth="yes"/>
      <point x="969" y="336"/>
      <point x="883" y="158"/>
      <point x="741" y="58" type="curve" smooth="yes"/>
      <point x="670" y="8"/>
      <point x="591" y="-17"/>
      <point x="504" y="-17" type="curve" smooth="yes"/>
      <point x="344" y="-17"/>
      <point x="208" y="65"/>
      <point x="135" y="201" type="curve" smooth="yes"/>
      <point x="98" y="269"/>
      <point x="80" y="345"/>
      <point x="80" y="429" type="curve" smooth="yes"/>
    </contour>
    <contour>
      <point x="695" y="631"/>
      <point x="631" y="698"/>
      <point x="551" y="698" type="curve" smooth="yes"/>
      <point x="472" y="698"/>
      <point x="412" y="646"/>
      <point x="376" y="587" type="curve"/>
      <point x="361" y="502"/>
      <point x="353" y="421"/>
      <point x="353" y="344" type="curve" smooth="yes"/>
      <point x="353" y="185"/>
      <point x="390" y="100"/>
      <point x="501" y="100" type="curve" smooth="yes"/>
      <point x="589" y="100"/>
      <point x="647" y="183"/>
      <point x="675" y="298" type="curve" smooth="yes"/>
      <point x="688" y="355"/>
      <point x="695" y="414"/>
      <point x="695" y="474" type="curve" smooth="yes"/>
    </contour>
  </outline>
</glyph>
<glyph name="seven" format="1">
  <advance width="942"/>
  <unicode hex="0037"/>
  <note>
	seven
  </note>
  <outline>
    <contour>
      <point x="326" y="830" type="line"/>
      <point x="244" y="621" type="line"/>
      <point x="59" y="621" type="line"/>
      <point x="125" y="986" type="line"/>
      <point x="940" y="986" type="line"/>
      <point x="970" y="943" type="line"/>
      <point x="469" y="-324" type="line"/>
      <point x="206" y="-242" type="line"/>
      <point x="736" y="830" type="line"/>
    </contour>
  </outline>
</glyph>
<glyph name="eight" format="1">
  <advance width="1080"/>
  <unicode hex="0038"/>
  <note>
	eight
  </note>
  <outline>
    <contour>
      <point x="289" y="751"/>
      <point x="218" y="858"/>
      <point x="218" y="979" type="curve" smooth="yes"/>
      <point x="218" y="1110"/>
      <point x="295" y="1222"/>
      <point x="430" y="1286" type="curve" smooth="yes"/>
      <point x="497" y="1317"/>
      <point x="574" y="1333"/>
      <point x="660" y="1333" type="curve" smooth="yes"/>
      <point x="919" y="1333"/>
      <point x="1029" y="1252"/>
      <point x="1029" y="1088" type="curve" smooth="yes"/>
      <point x="1029" y="997"/>
      <point x="978" y="906"/>
      <point x="895" y="830" type="curve" smooth="yes"/>
      <point x="853" y="791"/>
      <point x="805" y="758"/>
      <point x="752" y="731" type="curve"/>
      <point x="885" y="635"/>
      <point x="982" y="503"/>
      <point x="982" y="366" type="curve" smooth="yes"/>
      <point x="982" y="218"/>
      <point x="876" y="95"/>
      <point x="721" y="31" type="curve" smooth="yes"/>
      <point x="644" y="-1"/>
      <point x="564" y="-17"/>
      <point x="482" y="-17" type="curve" smooth="yes"/>
      <point x="335" y="-17"/>
      <point x="207" y="21"/>
      <point x="132" y="116" type="curve" smooth="yes"/>
      <point x="95" y="163"/>
      <point x="76" y="225"/>
      <point x="76" y="300" type="curve" smooth="yes"/>
      <point x="76" y="400"/>
      <point x="134" y="497"/>
      <point x="229" y="573" type="curve" smooth="yes"/>
      <point x="276" y="610"/>
      <point x="329" y="641"/>
      <point x="388" y="664" type="curve"/>
    </contour>
    <contour>
      <point x="808" y="1185"/>
      <point x="744" y="1237"/>
      <point x="659" y="1237" type="curve" smooth="yes"/>
      <point x="543" y="1237"/>
      <point x="470" y="1164"/>
      <point x="470" y="1045" type="curve" smooth="yes"/>
      <point x="470" y="961"/>
      <point x="526" y="900"/>
      <point x="643" y="817" type="curve"/>
      <point x="753" y="882"/>
      <point x="808" y="969"/>
      <point x="808" y="1078" type="curve" smooth="yes"/>
    </contour>
    <contour>
      <point x="586" y="91"/>
      <point x="653" y="128"/>
      <point x="690" y="194" type="curve" smooth="yes"/>
      <point x="709" y="227"/>
      <point x="718" y="265"/>
      <point x="718" y="310" type="curve" smooth="yes"/>
      <point x="718" y="378"/>
      <point x="690" y="427"/>
      <point x="647" y="467" type="curve"/>
      <point x="625" y="486"/>
      <point x="593" y="512"/>
      <point x="551" y="543" type="curve" smooth="yes"/>
      <point x="502" y="580" type="line"/>
      <point x="386" y="507"/>
      <point x="328" y="413"/>
      <point x="328" y="298" type="curve" smooth="yes"/>
      <point x="328" y="230"/>
      <point x="352" y="162"/>
      <point x="408" y="122" type="curve" smooth="yes"/>
      <point x="436" y="101"/>
      <point x="471" y="91"/>
      <point x="513" y="91" type="curve" smooth="yes"/>
    </contour>
  </outline>
</glyph>
<glyph name="nine" format="1">
  <advance width="1072"/>
  <unicode hex="0039"/>
  <note>
	nine
  </note>
  <outline>
    <contour>
      <point x="992" y="279"/>
      <point x="848" y="6"/>
      <point x="613" y="-178" type="curve" smooth="yes"/>
      <point x="495" y="-270"/>
      <point x="364" y="-333"/>
      <point x="221" y="-368" type="curve"/>
      <point x="175" y="-253" type="line"/>
      <point x="322" y="-209"/>
      <point x="469" y="-103"/>
      <point x="569" y="30" type="curve" smooth="yes"/>
      <point x="619" y="97"/>
      <point x="652" y="164"/>
      <point x="669" y="233" type="curve"/>
      <point x="620" y="170"/>
      <point x="538" y="127"/>
      <point x="427" y="127" type="curve" smooth="yes"/>
      <point x="296" y="127"/>
      <point x="195" y="199"/>
      <point x="143" y="319" type="curve" smooth="yes"/>
      <point x="116" y="379"/>
      <point x="103" y="448"/>
      <point x="103" y="525" type="curve" smooth="yes"/>
      <point x="103" y="693"/>
      <point x="189" y="847"/>
      <point x="332" y="935" type="curve" smooth="yes"/>
      <point x="403" y="978"/>
      <point x="482" y="1000"/>
      <point x="568" y="1000" type="curve" smooth="yes"/>
      <point x="733" y="1000"/>
      <point x="866" y="932"/>
      <point x="938" y="800" type="curve" smooth="yes"/>
      <point x="974" y="734"/>
      <point x="992" y="655"/>
      <point x="992" y="562" type="curve" smooth="yes"/>
    </contour>
    <contour>
      <point x="378" y="474"/>
      <point x="392" y="399"/>
      <point x="420" y="354" type="curve" smooth="yes"/>
      <point x="447" y="308"/>
      <point x="481" y="285"/>
      <point x="521" y="285" type="curve" smooth="yes"/>
      <point x="600" y="285"/>
      <point x="660" y="337"/>
      <point x="697" y="396" type="curve"/>
      <point x="712" y="465"/>
      <point x="720" y="532"/>
      <point x="720" y="596" type="curve" smooth="yes"/>
      <point x="720" y="781"/>
      <point x="681" y="883"/>
      <point x="572" y="883" type="curve" smooth="yes"/>
      <point x="484" y="883"/>
      <point x="426" y="815"/>
      <point x="399" y="722" type="curve" smooth="yes"/>
      <point x="385" y="675"/>
      <point x="378" y="627"/>
      <point x="378" y="578" type="curve" smooth="yes"/>
    </contour>
  </outline>
</glyph>
<glyph name="colon" format="1">
  <advance width="478"/>
  <unicode hex="003A"/>
  <note>
	colon
  </note>
  <outline>
    <contour>
      <point x="361" y="989"/>
      <point x="401" y="962"/>
      <point x="421" y="919" type="curve" smooth="yes"/>
      <point x="430" y="898"/>
      <point x="435" y="875"/>
      <point x="435" y="851" type="curve" smooth="yes"/>
      <point x="435" y="776"/>
      <point x="397" y="725"/>
      <point x="344" y="699" type="curve" smooth="yes"/>
      <point x="317" y="686"/>
      <point x="290" y="679"/>
      <point x="261" y="679" type="curve" smooth="yes"/>
      <point x="218" y="679"/>
      <point x="180" y="704"/>
      <point x="159" y="747" type="curve" smooth="yes"/>
      <point x="148" y="768"/>
      <point x="143" y="792"/>
      <point x="143" y="817" type="curve" smooth="yes"/>
      <point x="143" y="886"/>
      <point x="180" y="940"/>
      <point x="230" y="968" type="curve" smooth="yes"/>
      <point x="255" y="982"/>
      <point x="281" y="989"/>
      <point x="308" y="989" type="curve" smooth="yes"/>
    </contour>
    <contour>
      <point x="270" y="293"/>
      <point x="310" y="266"/>
      <point x="330" y="223" type="curve" smooth="yes"/>
      <point x="339" y="202"/>
      <point x="344" y="179"/>
      <point x="344" y="155" type="curve" smooth="yes"/>
      <point x="344" y="80"/>
      <point x="306" y="29"/>
      <point x="253" y="3" type="curve" smooth="yes"/>
      <point x="226" y="-10"/>
      <point x="199" y="-17"/>
      <point x="170" y="-17" type="curve" smooth="yes"/>
      <point x="127" y="-17"/>
      <point x="89" y="8"/>
      <point x="68" y="51" type="curve" smooth="yes"/>
      <point x="57" y="72"/>
      <point x="52" y="96"/>
      <point x="52" y="121" type="curve" smooth="yes"/>
      <point x="52" y="190"/>
      <point x="89" y="244"/>
      <point x="139" y="272" type="curve" smooth="yes"/>
      <point x="164" y="286"/>
      <point x="190" y="293"/>
      <point x="217" y="293" type="curve" smooth="yes"/>
    </contour>
  </outline>
</glyph>
<glyph name="semicolon" format="1">
  <advance width="478"/>
  <unicode hex="003B"/>
  <note>
	semicolon
  </note>
  <outline>
    <contour>
      <point x="196" y="254" type="line"/>
      <point x="325" y="223"/>
      <point x="379" y="117"/>
      <point x="379" y="-3" type="curve" smooth="yes"/>
      <point x="379" y="-192"/>
      <point x="248" y="-356"/>
      <point x="40" y="-448" type="curve"/>
      <point x="-14" y="-372" type="line"/>
      <point x="-11" y="-353" type="line"/>
      <point x="50" y="-326"/>
      <point x="107" y="-261"/>
      <point x="139" y="-185" type="curve" smooth="yes"/>
      <point x="154" y="-148"/>
      <point x="162" y="-111"/>
      <point x="162" y="-76" type="curve" smooth="yes"/>
      <point x="162" y="-25"/>
      <point x="146" y="21"/>
      <point x="119" y="48" type="curve" smooth="yes"/>
      <point x="106" y="61"/>
      <point x="91" y="68"/>
      <point x="75" y="67" type="curve"/>
      <point x="81" y="122" type="line"/>
    </contour>
    <contour>
      <point x="361" y="989"/>
      <point x="401" y="962"/>
      <point x="421" y="919" type="curve" smooth="yes"/>
      <point x="430" y="898"/>
      <point x="435" y="875"/>
      <point x="435" y="851" type="curve" smooth="yes"/>
      <point x="435" y="776"/>
      <point x="397" y="725"/>
      <point x="344" y="699" type="curve" smooth="yes"/>
      <point x="317" y="686"/>
      <point x="290" y="679"/>
      <point x="261" y="679" type="curve" smooth="yes"/>
      <point x="218" y="679"/>
      <point x="180" y="704"/>
      <point x="159" y="747" type="curve" smooth="yes"/>
      <point x="148" y="768"/>
      <point x="143" y="792"/>
      <point x="143" y="817" type="curve" smooth="yes"/>
      <point x="143" y="886"/>
      <point x="180" y="940"/>
      <point x="230" y="968" type="curve" smooth="yes"/>
      <point x="255" y="982"/>
      <point x="281" y="989"/>
      <point x="308" y="989" type="curve" smooth="yes"/>
    </contour>
  </outline>
</glyph>
<glyph name="less" format="1">
  <advance width="1176"/>
  <unicode hex="003C"/>
  <note>
	less
  </note>
  <outline>
    <contour>
      <point x="1049" y="1139" type="line"/>
      <point x="1021" y="914" type="line"/>
      <point x="434" y="642" type="line"/>
      <point x="955" y="359" type="line"/>
      <point x="933" y="151" type="line"/>
      <point x="168" y="590" type="line"/>
      <point x="181" y="700" type="line"/>
    </contour>
  </outline>
</glyph>
<glyph name="equal" format="1">
  <advance width="914"/>
  <unicode hex="003D"/>
  <note>
	equal
  </note>
  <outline>
    <contour>
      <point x="849" y="890" type="line"/>
      <point x="829" y="721" type="line"/>
      <point x="128" y="721" type="line"/>
      <point x="148" y="890" type="line"/>
    </contour>
    <contour>
      <point x="786" y="435" type="line"/>
      <point x="766" y="266" type="line"/>
      <point x="65" y="266" type="line"/>
      <point x="85" y="435" type="line"/>
    </contour>
  </outline>
</glyph>
<glyph name="greater" format="1">
  <advance width="1176"/>
  <unicode hex="003E"/>
  <note>
	greater
  </note>
  <outline>
    <contour>
      <point x="215" y="154" type="line"/>
      <point x="243" y="378" type="line"/>
      <point x="830" y="650" type="line"/>
      <point x="309" y="934" type="line"/>
      <point x="331" y="1141" type="line"/>
      <point x="1096" y="703" type="line"/>
      <point x="1083" y="593" type="line"/>
    </contour>
  </outline>
</glyph>
<glyph name="question" format="1">
  <advance width="855"/>
  <unicode hex="003F"/>
  <note>
	question
  </note>
  <outline>
    <contour>
      <point x="195" y="441" type="line"/>
      <point x="192" y="506" type="line" smooth="yes"/>
      <point x="192" y="512"/>
      <point x="191" y="518"/>
      <point x="191" y="523" type="curve" smooth="yes"/>
      <point x="189" y="556"/>
      <point x="188" y="580"/>
      <point x="194" y="616" type="curve" smooth="yes"/>
      <point x="209" y="701"/>
      <point x="244" y="775"/>
      <point x="302" y="842" type="curve" smooth="yes"/>
      <point x="351" y="899"/>
      <point x="406" y="941"/>
      <point x="459" y="981" type="curve" smooth="yes"/>
      <point x="501" y="1013"/>
      <point x="541" y="1043"/>
      <point x="570" y="1075" type="curve" smooth="yes"/>
      <point x="598" y="1106"/>
      <point x="614" y="1137"/>
      <point x="620" y="1173" type="curve" smooth="yes"/>
      <point x="627" y="1214"/>
      <point x="621" y="1245"/>
      <point x="603" y="1264" type="curve" smooth="yes"/>
      <point x="593" y="1274"/>
      <point x="579" y="1283"/>
      <point x="561" y="1288" type="curve" smooth="yes"/>
      <point x="539" y="1296"/>
      <point x="512" y="1299"/>
      <point x="479" y="1299" type="curve" smooth="yes"/>
      <point x="416" y="1299"/>
      <point x="341" y="1279"/>
      <point x="286" y="1247" type="curve" smooth="yes"/>
      <point x="193" y="1193" type="line"/>
      <point x="153" y="1405" type="line"/>
      <point x="196" y="1436" type="line" smooth="yes"/>
      <point x="221" y="1455"/>
      <point x="274" y="1490"/>
      <point x="347" y="1519" type="curve" smooth="yes"/>
      <point x="421" y="1548"/>
      <point x="494" y="1562"/>
      <point x="567" y="1562" type="curve" smooth="yes"/>
      <point x="632" y="1562"/>
      <point x="691" y="1555"/>
      <point x="742" y="1539" type="curve" smooth="yes"/>
      <point x="795" y="1523"/>
      <point x="839" y="1498"/>
      <point x="874" y="1465" type="curve" smooth="yes"/>
      <point x="910" y="1430"/>
      <point x="934" y="1388"/>
      <point x="947" y="1339" type="curve" smooth="yes"/>
      <point x="959" y="1292"/>
      <point x="960" y="1238"/>
      <point x="950" y="1181" type="curve" smooth="yes"/>
      <point x="935" y="1099"/>
      <point x="895" y="1026"/>
      <point x="828" y="957" type="curve" smooth="yes"/>
      <point x="773" y="901"/>
      <point x="708" y="857"/>
      <point x="645" y="813" type="curve" smooth="yes"/>
      <point x="590" y="776"/>
      <point x="538" y="740"/>
      <point x="499" y="701" type="curve" smooth="yes"/>
      <point x="462" y="664"/>
      <point x="441" y="628"/>
      <point x="434" y="589" type="curve" smooth="yes"/>
      <point x="433" y="581"/>
      <point x="433" y="579"/>
      <point x="433" y="572" type="curve" smooth="yes"/>
      <point x="433" y="568"/>
      <point x="434" y="562"/>
      <point x="433" y="554" type="curve" smooth="yes"/>
      <point x="433" y="543"/>
      <point x="433" y="532"/>
      <point x="433" y="520" type="curve" smooth="yes"/>
      <point x="429" y="441" type="line"/>
    </contour>
    <contour>
      <point x="184" y="0"/>
      <point x="147" y="15"/>
      <point x="120" y="42" type="curve" smooth="yes"/>
      <point x="94" y="69"/>
      <point x="80" y="105"/>
      <point x="80" y="143" type="curve"/>
      <point x="80" y="150"/>
      <point x="81" y="157"/>
      <point x="82" y="165" type="curve" smooth="yes"/>
      <point x="93" y="226"/>
      <point x="139" y="283"/>
      <point x="201" y="313" type="curve" smooth="yes"/>
      <point x="231" y="327"/>
      <point x="263" y="334"/>
      <point x="297" y="334" type="curve" smooth="yes"/>
      <point x="341" y="334"/>
      <point x="379" y="319"/>
      <point x="406" y="292" type="curve" smooth="yes"/>
      <point x="432" y="265"/>
      <point x="446" y="228"/>
      <point x="446" y="188" type="curve" smooth="yes"/>
      <point x="446" y="186" type="line"/>
      <point x="446" y="182" type="line" smooth="yes"/>
      <point x="445" y="174"/>
      <point x="445" y="167"/>
      <point x="443" y="161" type="curve" smooth="yes"/>
      <point x="428" y="74"/>
      <point x="352" y="11"/>
      <point x="248" y="2" type="curve" smooth="yes"/>
      <point x="247" y="2"/>
      <point x="245" y="2"/>
      <point x="243" y="1" type="curve" smooth="yes"/>
      <point x="236" y="1"/>
      <point x="230" y="0"/>
      <point x="225" y="0" type="curve" smooth="yes"/>
    </contour>
  </outline>
</glyph>
<glyph name="at" format="1">
  <advance width="1693"/>
  <unicode hex="0040"/>
  <note>
	at
  </note>
  <outline>
    <contour>
      <point x="1265" y="1354"/>
      <point x="1459" y="1258"/>
      <point x="1565" y="1086" type="curve" smooth="yes"/>
      <point x="1618" y="1000"/>
      <point x="1644" y="900"/>
      <point x="1644" y="785" type="curve" smooth="yes"/>
      <point x="1644" y="472"/>
      <point x="1535" y="220"/>
      <point x="1372" y="89" type="curve" smooth="yes"/>
      <point x="1291" y="24"/>
      <point x="1204" y="-9"/>
      <point x="1113" y="-9" type="curve" smooth="yes"/>
      <point x="1038" y="-9"/>
      <point x="1005" y="59"/>
      <point x="1005" y="168" type="curve" smooth="yes"/>
      <point x="1005" y="209"/>
      <point x="1021" y="317"/>
      <point x="1038" y="393" type="curve"/>
      <point x="983" y="261"/>
      <point x="907" y="137"/>
      <point x="823" y="62" type="curve" smooth="yes"/>
      <point x="780" y="25"/>
      <point x="739" y="6"/>
      <point x="699" y="6" type="curve" smooth="yes"/>
      <point x="600" y="6"/>
      <point x="509" y="61"/>
      <point x="457" y="173" type="curve" smooth="yes"/>
      <point x="430" y="229"/>
      <point x="417" y="298"/>
      <point x="417" y="379" type="curve" smooth="yes"/>
      <point x="417" y="570"/>
      <point x="502" y="762"/>
      <point x="659" y="876" type="curve" smooth="yes"/>
      <point x="738" y="933"/>
      <point x="830" y="961"/>
      <point x="937" y="961" type="curve" smooth="yes"/>
      <point x="986" y="961"/>
      <point x="1067" y="938"/>
      <point x="1114" y="906" type="curve"/>
      <point x="1290" y="949" type="line"/>
      <point x="1257" y="818"/>
      <point x="1212" y="545"/>
      <point x="1196" y="370" type="curve" smooth="yes"/>
      <point x="1193" y="335"/>
      <point x="1191" y="300"/>
      <point x="1191" y="267" type="curve" smooth="yes"/>
      <point x="1192" y="206" type="line" smooth="yes"/>
      <point x="1192" y="185"/>
      <point x="1195" y="171"/>
      <point x="1200" y="162" type="curve" smooth="yes"/>
      <point x="1205" y="153"/>
      <point x="1210" y="149"/>
      <point x="1215" y="149" type="curve" smooth="yes"/>
      <point x="1308" y="149"/>
      <point x="1392" y="273"/>
      <point x="1440" y="447" type="curve" smooth="yes"/>
      <point x="1463" y="534"/>
      <point x="1475" y="621"/>
      <point x="1475" y="708" type="curve" smooth="yes"/>
      <point x="1475" y="932"/>
      <point x="1364" y="1084"/>
      <point x="1205" y="1155" type="curve" smooth="yes"/>
      <point x="1125" y="1190"/>
      <point x="1041" y="1208"/>
      <point x="953" y="1208" type="curve" smooth="yes"/>
      <point x="674" y="1208"/>
      <point x="448" y="1022"/>
      <point x="329" y="758" type="curve" smooth="yes"/>
      <point x="269" y="626"/>
      <point x="239" y="490"/>
      <point x="239" y="351" type="curve" smooth="yes"/>
      <point x="239" y="88"/>
      <point x="353" y="-88"/>
      <point x="525" y="-171" type="curve" smooth="yes"/>
      <point x="611" y="-213"/>
      <point x="706" y="-234"/>
      <point x="809" y="-234" type="curve" smooth="yes"/>
      <point x="905" y="-234"/>
      <point x="1052" y="-208"/>
      <point x="1107" y="-181" type="curve"/>
      <point x="1144" y="-274" type="line"/>
      <point x="1061" y="-337"/>
      <point x="926" y="-376"/>
      <point x="779" y="-376" type="curve" smooth="yes"/>
      <point x="506" y="-376"/>
      <point x="276" y="-281"/>
      <point x="145" y="-82" type="curve" smooth="yes"/>
      <point x="80" y="17"/>
      <point x="47" y="141"/>
      <point x="47" y="290" type="curve" smooth="yes"/>
      <point x="47" y="697"/>
      <point x="261" y="1037"/>
      <point x="565" y="1218" type="curve" smooth="yes"/>
      <point x="717" y="1309"/>
      <point x="872" y="1354"/>
      <point x="1029" y="1354" type="curve" smooth="yes"/>
    </contour>
    <contour>
      <point x="764" y="194"/>
      <point x="804" y="229"/>
      <point x="853" y="298" type="curve" smooth="yes"/>
      <point x="951" y="437"/>
      <point x="1045" y="648"/>
      <point x="1060" y="759" type="curve"/>
      <point x="1043" y="791"/>
      <point x="967" y="829"/>
      <point x="919" y="829" type="curve" smooth="yes"/>
      <point x="798" y="829"/>
      <point x="710" y="734"/>
      <point x="667" y="598" type="curve" smooth="yes"/>
      <point x="646" y="529"/>
      <point x="635" y="458"/>
      <point x="635" y="384" type="curve" smooth="yes"/>
      <point x="635" y="329"/>
      <point x="648" y="265"/>
      <point x="679" y="225" type="curve"/>
      <point x="694" y="204"/>
      <point x="713" y="194"/>
      <point x="734" y="194" type="curve" smooth="yes"/>
    </contour>
  </outline>
</glyph>
<glyph name="A" format="1">
  <advance width="1161"/>
  <unicode hex="0041"/>
  <note>
	A
  </note>
  <outline>
    <contour>
      <point x="849" y="1309" type="line"/>
      <point x="1061" y="119" type="line"/>
      <point x="1200" y="91" type="line"/>
      <point x="1195" y="0" type="line"/>
      <point x="602" y="0" type="line"/>
      <point x="606" y="91" type="line"/>
      <point x="741" y="116" type="line"/>
      <point x="707" y="358" type="line"/>
      <point x="288" y="358" type="line"/>
      <point x="187" y="117" type="line"/>
      <point x="348" y="91" type="line"/>
      <point x="341" y="0" type="line"/>
      <point x="-138" y="0" type="line"/>
      <point x="-132" y="91" type="line"/>
      <point x="-13" y="116" type="line"/>
      <point x="550" y="1309" type="line"/>
    </contour>
    <contour>
      <point x="689" y="488" type="line"/>
      <point x="622" y="961" type="line"/>
      <point x="614" y="1125" type="line"/>
      <point x="343" y="488" type="line"/>
    </contour>
  </outline>
</glyph>
<glyph name="E" format="1">
  <advance width="1122"/>
  <unicode hex="0045"/>
  <note>
	E
  </note>
  <outline>
    <contour>
      <point x="118" y="117" type="line"/>
      <point x="259" y="1192" type="line"/>
      <point x="134" y="1214" type="line"/>
      <point x="144" y="1309" type="line"/>
      <point x="1105" y="1309" type="line"/>
      <point x="1074" y="991" type="line"/>
      <point x="883" y="991" type="line"/>
      <point x="854" y="1183" type="line"/>
      <point x="562" y="1206" type="line"/>
      <point x="500" y="746" type="line"/>
      <point x="894" y="786" type="line"/>
      <point x="863" y="587" type="line"/>
      <point x="483" y="612" type="line"/>
      <point x="416" y="117" type="line"/>
      <point x="814" y="147" type="line"/>
      <point x="915" y="402" type="line"/>
      <point x="1098" y="390" type="line"/>
      <point x="1038" y="0" type="line"/>
      <point x="-32" y="0" type="line"/>
      <point x="-20" y="91" type="line"/>
    </contour>
  </outline>
</glyph>
<glyph name="F" format="1">
  <advance width="1052"/>
  <unicode hex="0046"/>
  <note>
	F
  </note>
  <outline>
    <contour>
      <point x="118" y="117" type="line"/>
      <point x="259" y="1192" type="line"/>
      <point x="134" y="1214" type="line"/>
      <point x="146" y="1309" type="line"/>
      <point x="1121" y="1309" type="line"/>
      <point x="1085" y="980" type="line"/>
      <point x="895" y="980" type="line"/>
      <point x="869" y="1183" type="line"/>
      <point x="564" y="1204" type="line"/>
      <point x="500" y="739" type="line"/>
      <point x="913" y="762" type="line"/>
      <point x="887" y="569" type="line"/>
      <point x="482" y="603" type="line"/>
      <point x="421" y="117" type="line"/>
      <point x="659" y="91" type="line"/>
      <point x="652" y="0" type="line"/>
      <point x="-10" y="0" type="line"/>
      <point x="-1" y="91" type="line"/>
    </contour>
  </outline>
</glyph>
<glyph name="H" format="1">
  <advance width="1424"/>
  <unicode hex="0048"/>
  <note>
	H
  </note>
  <outline>
    <contour>
      <point x="899" y="117" type="line"/>
      <point x="963" y="605" type="line"/>
      <point x="488" y="605" type="line"/>
      <point x="424" y="117" type="line"/>
      <point x="574" y="91" type="line"/>
      <point x="567" y="0" type="line"/>
      <point x="-7" y="0" type="line"/>
      <point x="3" y="91" type="line"/>
      <point x="121" y="117" type="line"/>
      <point x="264" y="1192" type="line"/>
      <point x="139" y="1214" type="line"/>
      <point x="151" y="1309" type="line"/>
      <point x="732" y="1309" type="line"/>
      <point x="722" y="1214" type="line"/>
      <point x="567" y="1192" type="line"/>
      <point x="505" y="726" type="line"/>
      <point x="980" y="726" type="line"/>
      <point x="1041" y="1192" type="line"/>
      <point x="889" y="1214" type="line"/>
      <point x="900" y="1309" type="line"/>
      <point x="1487" y="1309" type="line"/>
      <point x="1477" y="1214" type="line"/>
      <point x="1344" y="1192" type="line"/>
      <point x="1202" y="117" type="line"/>
      <point x="1337" y="91" type="line"/>
      <point x="1327" y="0" type="line"/>
      <point x="722" y="0" type="line"/>
      <point x="734" y="91" type="line"/>
    </contour>
  </outline>
</glyph>
<glyph name="I" format="1">
  <advance width="659"/>
  <unicode hex="0049"/>
  <note>
	I
  </note>
  <outline>
    <contour>
      <point x="125" y="117" type="line"/>
      <point x="267" y="1192" type="line"/>
      <point x="140" y="1214" type="line"/>
      <point x="150" y="1309" type="line"/>
      <point x="728" y="1309" type="line"/>
      <point x="717" y="1214" type="line"/>
      <point x="569" y="1192" type="line"/>
      <point x="427" y="117" type="line"/>
      <point x="578" y="91" type="line"/>
      <point x="572" y="0" type="line"/>
      <point x="-15" y="0" type="line"/>
      <point x="-4" y="91" type="line"/>
    </contour>
  </outline>
</glyph>
<glyph name="J" format="1">
  <advance width="635"/>
  <unicode hex="004A"/>
  <note>
	J
  </note>
  <outline>
    <contour>
      <point x="144" y="1214" type="line"/>
      <point x="157" y="1309" type="line"/>
      <point x="703" y="1309" type="line"/>
      <point x="694" y="1214" type="line"/>
      <point x="570" y="1192" type="line"/>
      <point x="566" y="1156" type="line" smooth="yes"/>
      <point x="525" y="827"/>
      <point x="493" y="572"/>
      <point x="469" y="391" type="curve" smooth="yes"/>
      <point x="420" y="27"/>
      <point x="405" y="-9"/>
      <point x="301" y="-109" type="curve" smooth="yes"/>
      <point x="196" y="-210"/>
      <point x="46" y="-274"/>
      <point x="-117" y="-297" type="curve"/>
      <point x="-162" y="-204" type="line"/>
      <point x="13" y="-149"/>
      <point x="89" y="-53"/>
      <point x="114" y="74" type="curve" smooth="yes"/>
      <point x="167" y="363"/>
      <point x="219" y="735"/>
      <point x="270" y="1191" type="curve"/>
    </contour>
  </outline>
</glyph>
<glyph name="K" format="1">
  <advance width="1277"/>
  <unicode hex="004B"/>
  <note>
	K
  </note>
  <outline>
    <contour>
      <point x="790" y="170"/>
      <point x="715" y="373"/>
      <point x="680" y="464" type="curve" smooth="yes"/>
      <point x="662" y="509"/>
      <point x="643" y="551"/>
      <point x="624" y="589" type="curve"/>
      <point x="461" y="426" type="line"/>
      <point x="421" y="117" type="line"/>
      <point x="570" y="91" type="line"/>
      <point x="562" y="0" type="line"/>
      <point x="-19" y="0" type="line"/>
      <point x="-8" y="91" type="line"/>
      <point x="118" y="117" type="line"/>
      <point x="260" y="1192" type="line"/>
      <point x="135" y="1214" type="line"/>
      <point x="147" y="1309" type="line"/>
      <point x="728" y="1309" type="line"/>
      <point x="717" y="1214" type="line"/>
      <point x="562" y="1192" type="line"/>
      <point x="487" y="621" type="line"/>
      <point x="1023" y="1192" type="line"/>
      <point x="906" y="1215" type="line"/>
      <point x="916" y="1309" type="line"/>
      <point x="1347" y="1309" type="line"/>
      <point x="1336" y="1214" type="line"/>
      <point x="1227" y="1192" type="line"/>
      <point x="827" y="792" type="line"/>
      <point x="852" y="754"/>
      <point x="896" y="665"/>
      <point x="961" y="524" type="curve" smooth="yes"/>
      <point x="1029" y="380"/>
      <point x="1085" y="271"/>
      <point x="1130" y="192" type="curve" smooth="yes"/>
      <point x="1153" y="152"/>
      <point x="1173" y="127"/>
      <point x="1192" y="117" type="curve"/>
      <point x="1293" y="91" type="line"/>
      <point x="1282" y="0" type="line"/>
      <point x="909" y="0" type="line"/>
      <point x="874" y="4"/>
      <point x="856" y="23"/>
      <point x="834" y="67" type="curve" smooth="yes"/>
      <point x="823" y="89"/>
      <point x="807" y="125"/>
      <point x="787" y="175" type="curve"/>
    </contour>
  </outline>
</glyph>
<glyph name="L" format="1">
  <advance width="1091"/>
  <unicode hex="004C"/>
  <note>
	L
  </note>
  <outline>
    <contour>
      <point x="118" y="117" type="line"/>
      <point x="260" y="1192" type="line"/>
      <point x="134" y="1214" type="line"/>
      <point x="145" y="1309" type="line"/>
      <point x="729" y="1309" type="line"/>
      <point x="719" y="1214" type="line"/>
      <point x="562" y="1192" type="line"/>
      <point x="420" y="111" type="line"/>
      <point x="728" y="128" type="line"/>
      <point x="910" y="516" type="line"/>
      <point x="1066" y="496" type="line"/>
      <point x="976" y="0" type="line"/>
      <point x="-11" y="0" type="line"/>
      <point x="-1" y="91" type="line"/>
    </contour>
  </outline>
</glyph>
<glyph name="M" format="1">
  <advance width="1738"/>
  <unicode hex="004D"/>
  <note>
	M
  </note>
  <outline>
    <contour>
      <point x="73" y="117" type="line"/>
      <point x="353" y="1192" type="line"/>
      <point x="187" y="1214" type="line"/>
      <point x="200" y="1309" type="line"/>
      <point x="795" y="1309" type="line"/>
      <point x="880" y="585" type="line"/>
      <point x="898" y="438" type="line"/>
      <point x="945" y="585" type="line"/>
      <point x="1232" y="1309" type="line"/>
      <point x="1757" y="1309" type="line"/>
      <point x="1746" y="1214" type="line"/>
      <point x="1594" y="1192" type="line"/>
      <point x="1560" y="117" type="line"/>
      <point x="1716" y="91" type="line"/>
      <point x="1709" y="0" type="line"/>
      <point x="1095" y="0" type="line"/>
      <point x="1103" y="93" type="line"/>
      <point x="1265" y="117" type="line"/>
      <point x="1314" y="850" type="line"/>
      <point x="1331" y="1192" type="line"/>
      <point x="1208" y="891" type="line"/>
      <point x="831" y="-3" type="line"/>
      <point x="685" y="-15" type="line"/>
      <point x="568" y="870" type="line"/>
      <point x="522" y="1193" type="line"/>
      <point x="447" y="862" type="line"/>
      <point x="267" y="117" type="line"/>
      <point x="461" y="92" type="line"/>
      <point x="452" y="0" type="line"/>
      <point x="-76" y="0" type="line"/>
      <point x="-65" y="91" type="line"/>
    </contour>
  </outline>
</glyph>
<glyph name="N" format="1">
  <advance width="1336"/>
  <unicode hex="004E"/>
  <note>
	N
  </note>
  <outline>
    <contour>
      <point x="119" y="117" type="line"/>
      <point x="279" y="1192" type="line"/>
      <point x="132" y="1214" type="line"/>
      <point x="146" y="1309" type="line"/>
      <point x="625" y="1309" type="line"/>
      <point x="944" y="460" type="line"/>
      <point x="1011" y="262" type="line"/>
      <point x="1128" y="1192" type="line"/>
      <point x="980" y="1214" type="line"/>
      <point x="990" y="1309" type="line"/>
      <point x="1422" y="1309" type="line"/>
      <point x="1412" y="1214" type="line"/>
      <point x="1306" y="1192" type="line"/>
      <point x="1124" y="0" type="line"/>
      <point x="816" y="0" type="line"/>
      <point x="480" y="877" type="line"/>
      <point x="413" y="1096" type="line"/>
      <point x="305" y="117" type="line"/>
      <point x="469" y="91" type="line"/>
      <point x="459" y="0" type="line"/>
      <point x="-16" y="0" type="line"/>
      <point x="-9" y="91" type="line"/>
    </contour>
  </outline>
</glyph>
<glyph name="P" format="1">
  <advance width="1153"/>
  <unicode hex="0050"/>
  <note>
	P
  </note>
  <outline>
    <contour>
      <point x="117" y="117" type="line"/>
      <point x="261" y="1192" type="line"/>
      <point x="134" y="1214" type="line"/>
      <point x="146" y="1309" type="line"/>
      <point x="418" y="1309" type="line" smooth="yes"/>
      <point x="455" y="1309"/>
      <point x="506" y="1311"/>
      <point x="570" y="1316" type="curve" smooth="yes"/>
      <point x="629" y="1321"/>
      <point x="672" y="1323"/>
      <point x="699" y="1323" type="curve" smooth="yes"/>
      <point x="934" y="1323"/>
      <point x="1072" y="1265"/>
      <point x="1134" y="1157" type="curve" smooth="yes"/>
      <point x="1165" y="1102"/>
      <point x="1180" y="1034"/>
      <point x="1180" y="952" type="curve" smooth="yes"/>
      <point x="1180" y="737"/>
      <point x="1076" y="582"/>
      <point x="892" y="502" type="curve" smooth="yes"/>
      <point x="799" y="462"/>
      <point x="691" y="442"/>
      <point x="566" y="442" type="curve" smooth="yes"/>
      <point x="519" y="442"/>
      <point x="485" y="443"/>
      <point x="465" y="445" type="curve"/>
      <point x="426" y="117" type="line"/>
      <point x="665" y="91" type="line"/>
      <point x="658" y="0" type="line"/>
      <point x="-11" y="0" type="line"/>
      <point x="-2" y="91" type="line"/>
    </contour>
    <contour>
      <point x="574" y="556" type="line"/>
      <point x="695" y="556"/>
      <point x="786" y="630"/>
      <point x="834" y="754" type="curve" smooth="yes"/>
      <point x="857" y="816"/>
      <point x="869" y="888"/>
      <point x="869" y="969" type="curve" smooth="yes"/>
      <point x="869" y="1138"/>
      <point x="786" y="1214"/>
      <point x="643" y="1214" type="curve" smooth="yes"/>
      <point x="618" y="1214"/>
      <point x="592" y="1212"/>
      <point x="567" y="1207" type="curve"/>
      <point x="479" y="562" type="line"/>
      <point x="500" y="557"/>
      <point x="523" y="555"/>
      <point x="548" y="555" type="curve"/>
    </contour>
  </outline>
</glyph>
<glyph name="Q" format="1">
  <advance width="1259"/>
  <unicode hex="0051"/>
  <note>
	Q
  </note>
  <outline>
    <contour>
      <point x="964" y="1325"/>
      <point x="1113" y="1217"/>
      <point x="1181" y="1050" type="curve" smooth="yes"/>
      <point x="1215" y="966"/>
      <point x="1232" y="872"/>
      <point x="1232" y="767" type="curve" smooth="yes"/>
      <point x="1232" y="524"/>
      <point x="1160" y="299"/>
      <point x="1001" y="147" type="curve" smooth="yes"/>
      <point x="922" y="70"/>
      <point x="822" y="20"/>
      <point x="703" y="-3" type="curve"/>
      <point x="703" y="-91"/>
      <point x="748" y="-131"/>
      <point x="817" y="-145" type="curve" smooth="yes"/>
      <point x="852" y="-152"/>
      <point x="897" y="-156"/>
      <point x="952" y="-156" type="curve" smooth="yes"/>
      <point x="1016" y="-156"/>
      <point x="1134" y="-143"/>
      <point x="1201" y="-122" type="curve"/>
      <point x="1202" y="-282" type="line"/>
      <point x="1141" y="-329"/>
      <point x="1024" y="-378"/>
      <point x="869" y="-378" type="curve" smooth="yes"/>
      <point x="644" y="-378"/>
      <point x="535" y="-302"/>
      <point x="535" y="-157" type="curve" smooth="yes"/>
      <point x="535" y="-117"/>
      <point x="544" y="-70"/>
      <point x="562" y="-17" type="curve"/>
      <point x="552" y="-18" type="line"/>
      <point x="323" y="-18"/>
      <point x="174" y="85"/>
      <point x="105" y="254" type="curve" smooth="yes"/>
      <point x="70" y="338"/>
      <point x="53" y="436"/>
      <point x="53" y="547" type="curve" smooth="yes"/>
      <point x="53" y="823"/>
      <point x="153" y="1073"/>
      <point x="358" y="1217" type="curve" smooth="yes"/>
      <point x="460" y="1289"/>
      <point x="585" y="1325"/>
      <point x="733" y="1325" type="curve" smooth="yes"/>
    </contour>
    <contour>
      <point x="904" y="908"/>
      <point x="889" y="1022"/>
      <point x="858" y="1101" type="curve" smooth="yes"/>
      <point x="827" y="1180"/>
      <point x="778" y="1219"/>
      <point x="710" y="1219" type="curve" smooth="yes"/>
      <point x="573" y="1219"/>
      <point x="471" y="1083"/>
      <point x="420" y="880" type="curve" smooth="yes"/>
      <point x="394" y="779"/>
      <point x="381" y="671"/>
      <point x="381" y="557" type="curve" smooth="yes"/>
      <point x="381" y="284"/>
      <point x="426" y="87"/>
      <point x="577" y="87" type="curve" smooth="yes"/>
      <point x="721" y="87"/>
      <point x="820" y="213"/>
      <point x="868" y="415" type="curve" smooth="yes"/>
      <point x="892" y="516"/>
      <point x="904" y="630"/>
      <point x="904" y="757" type="curve" smooth="yes"/>
    </contour>
  </outline>
</glyph>
<glyph name="U" format="1">
  <advance width="1259"/>
  <unicode hex="0055"/>
  <note>
	U
  </note>
  <outline>
    <contour>
      <point x="230" y="1192" type="line"/>
      <point x="105" y="1214" type="line"/>
      <point x="117" y="1309" type="line"/>
      <point x="711" y="1309" type="line"/>
      <point x="703" y="1215" type="line"/>
      <point x="532" y="1192" type="line"/>
      <point x="445" y="536" type="line" smooth="yes"/>
      <point x="436" y="448"/>
      <point x="431" y="390"/>
      <point x="431" y="363" type="curve" smooth="yes"/>
      <point x="431" y="195"/>
      <point x="511" y="89"/>
      <point x="654" y="89" type="curve" smooth="yes"/>
      <point x="793" y="89"/>
      <point x="878" y="160"/>
      <point x="929" y="290" type="curve" smooth="yes"/>
      <point x="954" y="355"/>
      <point x="974" y="437"/>
      <point x="987" y="538" type="curve" smooth="yes"/>
      <point x="1077" y="1192" type="line"/>
      <point x="949" y="1215" type="line"/>
      <point x="958" y="1309" type="line"/>
      <point x="1358" y="1309" type="line"/>
      <point x="1345" y="1215" type="line"/>
      <point x="1234" y="1192" type="line"/>
      <point x="1151" y="539" type="line" smooth="yes"/>
      <point x="1116" y="272"/>
      <point x="1024" y="113"/>
      <point x="875" y="39" type="curve" smooth="yes"/>
      <point x="800" y="2"/>
      <point x="709" y="-17"/>
      <point x="601" y="-17" type="curve" smooth="yes"/>
      <point x="385" y="-17"/>
      <point x="246" y="54"/>
      <point x="183" y="170" type="curve" smooth="yes"/>
      <point x="151" y="227"/>
      <point x="135" y="293"/>
      <point x="135" y="368" type="curve" smooth="yes"/>
      <point x="135" y="429"/>
      <point x="137" y="476"/>
      <point x="141" y="510" type="curve" smooth="yes"/>
    </contour>
  </outline>
</glyph>
<glyph name="V" format="1">
  <advance width="1070"/>
  <unicode hex="0056"/>
  <note>
	V
  </note>
  <outline>
    <contour>
      <point x="-21" y="1215" type="line"/>
      <point x="-9" y="1309" type="line"/>
      <point x="562" y="1309" type="line"/>
      <point x="554" y="1214" type="line"/>
      <point x="415" y="1192" type="line"/>
      <point x="509" y="439" type="line"/>
      <point x="525" y="260" type="line"/>
      <point x="598" y="439" type="line"/>
      <point x="943" y="1192" type="line"/>
      <point x="791" y="1214" type="line"/>
      <point x="800" y="1309" type="line"/>
      <point x="1262" y="1309" type="line"/>
      <point x="1247" y="1214" type="line"/>
      <point x="1115" y="1192" type="line"/>
      <point x="550" y="-9" type="line"/>
      <point x="292" y="-9" type="line"/>
      <point x="99" y="1192" type="line"/>
    </contour>
  </outline>
</glyph>
<glyph name="W" format="1">
  <advance width="1680"/>
  <unicode hex="0057"/>
  <note>
	W
  </note>
  <outline>
    <contour>
      <point x="-20" y="1215" type="line"/>
      <point x="-8" y="1309" type="line"/>
      <point x="536" y="1309" type="line"/>
      <point x="528" y="1214" type="line"/>
      <point x="410" y="1189" type="line"/>
      <point x="491" y="439" type="line"/>
      <point x="511" y="260" type="line"/>
      <point x="579" y="439" type="line"/>
      <point x="841" y="1067" type="line"/>
      <point x="830" y="1191" type="line"/>
      <point x="692" y="1215" type="line"/>
      <point x="701" y="1309" type="line"/>
      <point x="1265" y="1309" type="line"/>
      <point x="1257" y="1214" type="line"/>
      <point x="1128" y="1191" type="line"/>
      <point x="1201" y="439" type="line"/>
      <point x="1207" y="260" type="line"/>
      <point x="1281" y="439" type="line"/>
      <point x="1603" y="1191" type="line"/>
      <point x="1408" y="1214" type="line"/>
      <point x="1416" y="1309" type="line"/>
      <point x="1927" y="1309" type="line"/>
      <point x="1919" y="1215" type="line"/>
      <point x="1781" y="1192" type="line"/>
      <point x="1219" y="-9" type="line"/>
      <point x="953" y="-9" type="line"/>
      <point x="875" y="795" type="line"/>
      <point x="541" y="-9" type="line"/>
      <point x="277" y="-9" type="line"/>
      <point x="99" y="1191" type="line"/>
    </contour>
  </outline>
</glyph>
<glyph name="X" format="1">
  <advance width="1186"/>
  <unicode hex="0058"/>
  <note>
	X
  </note>
  <outline>
    <contour>
      <point x="43" y="117" type="line"/>
      <point x="468" y="637" type="line"/>
      <point x="207" y="1192" type="line"/>
      <point x="105" y="1214" type="line"/>
      <point x="114" y="1309" type="line"/>
      <point x="683" y="1309" type="line"/>
      <point x="676" y="1215" type="line"/>
      <point x="552" y="1192" type="line"/>
      <point x="694" y="813" type="line"/>
      <point x="951" y="1192" type="line"/>
      <point x="836" y="1214" type="line"/>
      <point x="841" y="1309" type="line"/>
      <point x="1290" y="1309" type="line"/>
      <point x="1281" y="1214" type="line"/>
      <point x="1164" y="1192" type="line"/>
      <point x="758" y="684" type="line"/>
      <point x="1042" y="117" type="line"/>
      <point x="1151" y="91" type="line"/>
      <point x="1142" y="0" type="line"/>
      <point x="547" y="0" type="line"/>
      <point x="555" y="91" type="line"/>
      <point x="679" y="117" type="line"/>
      <point x="530" y="501" type="line"/>
      <point x="264" y="117" type="line"/>
      <point x="395" y="91" type="line"/>
      <point x="386" y="0" type="line"/>
      <point x="-65" y="0" type="line"/>
      <point x="-55" y="91" type="line"/>
    </contour>
  </outline>
</glyph>
<glyph name="bracketleft" format="1">
  <advance width="751"/>
  <unicode hex="005B"/>
  <note>
	bracketleft
  </note>
  <outline>
    <contour>
      <point x="277" y="1306" type="line" smooth="yes"/>
      <point x="296" y="1451"/>
      <point x="385" y="1523"/>
      <point x="544" y="1523" type="curve" smooth="yes"/>
      <point x="589" y="1523"/>
      <point x="665" y="1508"/>
      <point x="718" y="1496" type="curve"/>
      <point x="744" y="1489"/>
      <point x="761" y="1485"/>
      <point x="768" y="1483" type="curve"/>
      <point x="751" y="1377" type="line"/>
      <point x="514" y="1377" type="line"/>
      <point x="322" y="-47" type="line"/>
      <point x="559" y="-49" type="line"/>
      <point x="546" y="-159" type="line"/>
      <point x="446" y="-188"/>
      <point x="395" y="-200"/>
      <point x="311" y="-200" type="curve" smooth="yes"/>
      <point x="187" y="-200"/>
      <point x="95" y="-164"/>
      <point x="95" y="-77" type="curve" smooth="yes"/>
      <point x="95" y="-73"/>
      <point x="95" y="-61"/>
      <point x="95" y="-41" type="curve" smooth="yes"/>
      <point x="95" y="-21"/>
      <point x="96" y="-1"/>
      <point x="98" y="18" type="curve" smooth="yes"/>
    </contour>
  </outline>
</glyph>
<glyph name="bracketright" format="1">
  <advance width="751"/>
  <unicode hex="005D"/>
  <note>
	bracketright
  </note>
  <outline>
    <contour>
      <point x="493" y="32" type="line" smooth="yes"/>
      <point x="474" y="-113"/>
      <point x="384" y="-185"/>
      <point x="225" y="-185" type="curve" smooth="yes"/>
      <point x="181" y="-185"/>
      <point x="105" y="-170"/>
      <point x="53" y="-157" type="curve" smooth="yes"/>
      <point x="26" y="-151"/>
      <point x="9" y="-147"/>
      <point x="2" y="-144" type="curve"/>
      <point x="19" y="-39" type="line"/>
      <point x="255" y="-39" type="line"/>
      <point x="447" y="1385" type="line"/>
      <point x="211" y="1387" type="line"/>
      <point x="224" y="1497" type="line"/>
      <point x="323" y="1526"/>
      <point x="375" y="1538"/>
      <point x="458" y="1538" type="curve" smooth="yes"/>
      <point x="582" y="1538"/>
      <point x="675" y="1502"/>
      <point x="675" y="1415" type="curve" smooth="yes"/>
      <point x="675" y="1411"/>
      <point x="675" y="1399"/>
      <point x="675" y="1379" type="curve" smooth="yes"/>
      <point x="675" y="1359"/>
      <point x="674" y="1339"/>
      <point x="672" y="1320" type="curve" smooth="yes"/>
    </contour>
  </outline>
</glyph>
<glyph name="grave" format="1">
  <advance width="465"/>
  <unicode hex="0060"/>
  <note>
	grave
  </note>
  <outline>
    <contour>
      <point x="175" y="1499" type="line"/>
      <point x="422" y="1127" type="line"/>
      <point x="332" y="1067" type="line"/>
      <point x="283" y="1088"/>
      <point x="177" y="1163"/>
      <point x="91" y="1243" type="curve" smooth="yes"/>
      <point x="48" y="1282"/>
      <point x="17" y="1317"/>
      <point x="0" y="1347" type="curve"/>
    </contour>
  </outline>
</glyph>
<glyph name="b" format="1">
  <advance width="1033"/>
  <unicode hex="0062"/>
  <note>
	b
  </note>
  <outline>
    <contour>
      <point x="129" y="1313" type="line"/>
      <point x="147" y="1385" type="line"/>
      <point x="458" y="1419" type="line"/>
      <point x="504" y="1396" type="line"/>
      <point x="440" y="911" type="line"/>
      <point x="511" y="970"/>
      <point x="591" y="1000"/>
      <point x="682" y="1000" type="curve" smooth="yes"/>
      <point x="878" y="1000"/>
      <point x="978" y="868"/>
      <point x="978" y="628" type="curve" smooth="yes"/>
      <point x="978" y="385"/>
      <point x="878" y="180"/>
      <point x="701" y="68" type="curve" smooth="yes"/>
      <point x="612" y="11"/>
      <point x="509" y="-17"/>
      <point x="391" y="-17" type="curve" smooth="yes"/>
      <point x="326" y="-17"/>
      <point x="246" y="-1"/>
      <point x="182" y="20" type="curve"/>
      <point x="57" y="-17" type="line"/>
      <point x="218" y="1276" type="line"/>
    </contour>
    <contour>
      <point x="336" y="110" type="line"/>
      <point x="355" y="105"/>
      <point x="381" y="102"/>
      <point x="414" y="102" type="curve" smooth="yes"/>
      <point x="538" y="102"/>
      <point x="620" y="209"/>
      <point x="657" y="369" type="curve" smooth="yes"/>
      <point x="676" y="448"/>
      <point x="685" y="534"/>
      <point x="685" y="627" type="curve" smooth="yes"/>
      <point x="685" y="755"/>
      <point x="642" y="850"/>
      <point x="561" y="850" type="curve" smooth="yes"/>
      <point x="511" y="850"/>
      <point x="465" y="824"/>
      <point x="422" y="773" type="curve"/>
    </contour>
  </outline>
</glyph>
<glyph name="f" format="1">
  <advance width="591"/>
  <unicode hex="0066"/>
  <note>
	f
  </note>
  <outline>
    <contour>
      <point x="86" y="846" type="line"/>
      <point x="104" y="935" type="line"/>
      <point x="221" y="989" type="line"/>
      <point x="232" y="1057" type="line" smooth="yes"/>
      <point x="256" y="1202"/>
      <point x="327" y="1321"/>
      <point x="441" y="1387" type="curve" smooth="yes"/>
      <point x="498" y="1420"/>
      <point x="563" y="1436"/>
      <point x="637" y="1436" type="curve" smooth="yes"/>
      <point x="702" y="1436"/>
      <point x="753" y="1429"/>
      <point x="790" y="1414" type="curve"/>
      <point x="737" y="1261" type="line"/>
      <point x="704" y="1285"/>
      <point x="671" y="1302"/>
      <point x="622" y="1302" type="curve" smooth="yes"/>
      <point x="565" y="1302"/>
      <point x="540" y="1271"/>
      <point x="529" y="1228" type="curve" smooth="yes"/>
      <point x="523" y="1206"/>
      <point x="516" y="1171"/>
      <point x="509" y="1122" type="curve" smooth="yes"/>
      <point x="489" y="993" type="line"/>
      <point x="666" y="993" type="line"/>
      <point x="639" y="846" type="line"/>
      <point x="469" y="846" type="line"/>
      <point x="384" y="136" type="line" smooth="yes"/>
      <point x="360" y="-65"/>
      <point x="291" y="-250"/>
      <point x="167" y="-359" type="curve" smooth="yes"/>
      <point x="105" y="-414"/>
      <point x="31" y="-441"/>
      <point x="-54" y="-441" type="curve" smooth="yes"/>
      <point x="-109" y="-441"/>
      <point x="-178" y="-429"/>
      <point x="-218" y="-421" type="curve"/>
      <point x="-167" y="-257" type="line"/>
      <point x="-128" y="-274"/>
      <point x="-69" y="-299"/>
      <point x="-34" y="-299" type="curve" smooth="yes"/>
      <point x="23" y="-299"/>
      <point x="60" y="-249"/>
      <point x="76" y="-134" type="curve" smooth="yes"/>
      <point x="194" y="846" type="line"/>
    </contour>
  </outline>
</glyph>
<glyph name="h" format="1">
  <advance width="1114"/>
  <unicode hex="0068"/>
  <note>
	h
  </note>
  <outline>
    <contour>
      <point x="666" y="381" type="line" smooth="yes"/>
      <point x="690" y="516"/>
      <point x="704" y="614"/>
      <point x="704" y="699" type="curve" smooth="yes"/>
      <point x="704" y="733"/>
      <point x="702" y="760"/>
      <point x="698" y="779" type="curve" smooth="yes"/>
      <point x="689" y="817"/>
      <point x="669" y="830"/>
      <point x="636" y="830" type="curve" smooth="yes"/>
      <point x="591" y="830"/>
      <point x="536" y="786"/>
      <point x="486" y="718" type="curve" smooth="yes"/>
      <point x="461" y="683"/>
      <point x="439" y="646"/>
      <point x="421" y="606" type="curve"/>
      <point x="347" y="0" type="line"/>
      <point x="61" y="0" type="line"/>
      <point x="215" y="1275" type="line"/>
      <point x="106" y="1312" type="line"/>
      <point x="120" y="1383" type="line"/>
      <point x="471" y="1419" type="line"/>
      <point x="519" y="1396" type="line"/>
      <point x="444" y="787" type="line"/>
      <point x="523" y="919"/>
      <point x="639" y="1000"/>
      <point x="774" y="1000" type="curve" smooth="yes"/>
      <point x="917" y="1000"/>
      <point x="1002" y="923"/>
      <point x="1002" y="740" type="curve" smooth="yes"/>
      <point x="1002" y="702"/>
      <point x="988" y="600"/>
      <point x="960" y="434" type="curve" smooth="yes"/>
      <point x="950" y="378" type="line" smooth="yes"/>
      <point x="933" y="277"/>
      <point x="924" y="222"/>
      <point x="924" y="177" type="curve" smooth="yes"/>
      <point x="924" y="140"/>
      <point x="937" y="130"/>
      <point x="957" y="130" type="curve" smooth="yes"/>
      <point x="967" y="130"/>
      <point x="977" y="133"/>
      <point x="988" y="138" type="curve" smooth="yes"/>
      <point x="999" y="143"/>
      <point x="1014" y="154"/>
      <point x="1035" y="169" type="curve"/>
      <point x="1059" y="107" type="line"/>
      <point x="1018" y="52"/>
      <point x="933" y="-18"/>
      <point x="801" y="-18" type="curve" smooth="yes"/>
      <point x="704" y="-18"/>
      <point x="655" y="12"/>
      <point x="639" y="54" type="curve"/>
      <point x="630" y="75"/>
      <point x="626" y="100"/>
      <point x="626" y="129" type="curve" smooth="yes"/>
      <point x="626" y="148"/>
      <point x="629" y="173"/>
      <point x="634" y="206" type="curve" smooth="yes"/>
      <point x="639" y="239"/>
      <point x="648" y="286"/>
      <point x="660" y="347" type="curve" smooth="yes"/>
    </contour>
  </outline>
</glyph>
<glyph name="j" format="1">
  <advance width="561"/>
  <unicode hex="006A"/>
  <note>
	j
  </note>
  <outline>
    <contour>
      <point x="-181" y="-318" type="line"/>
      <point x="-166" y="-323"/>
      <point x="-132" y="-328"/>
      <point x="-117" y="-329" type="curve"/>
      <point x="-14" y="-329"/>
      <point x="39" y="-253"/>
      <point x="66" y="-147" type="curve" smooth="yes"/>
      <point x="79" y="-94"/>
      <point x="91" y="-27"/>
      <point x="101" y="56" type="curve" smooth="yes"/>
      <point x="191" y="843" type="line"/>
      <point x="48" y="887" type="line"/>
      <point x="66" y="956" type="line"/>
      <point x="454" y="1000" type="line"/>
      <point x="499" y="980" type="line"/>
      <point x="381" y="0" type="line" smooth="yes"/>
      <point x="357" y="-192"/>
      <point x="265" y="-331"/>
      <point x="138" y="-401" type="curve" smooth="yes"/>
      <point x="75" y="-436"/>
      <point x="7" y="-454"/>
      <point x="-66" y="-454" type="curve" smooth="yes"/>
      <point x="-138" y="-454"/>
      <point x="-190" y="-443"/>
      <point x="-213" y="-422" type="curve"/>
    </contour>
    <contour>
      <point x="239" y="1356"/>
      <point x="268" y="1411"/>
      <point x="320" y="1441" type="curve" smooth="yes"/>
      <point x="345" y="1456"/>
      <point x="375" y="1463"/>
      <point x="410" y="1463" type="curve" smooth="yes"/>
      <point x="467" y="1463"/>
      <point x="514" y="1434"/>
      <point x="538" y="1393" type="curve" smooth="yes"/>
      <point x="550" y="1372"/>
      <point x="556" y="1351"/>
      <point x="556" y="1328" type="curve" smooth="yes"/>
      <point x="556" y="1224"/>
      <point x="496" y="1151"/>
      <point x="379" y="1151" type="curve" smooth="yes"/>
      <point x="330" y="1151"/>
      <point x="285" y="1180"/>
      <point x="259" y="1224" type="curve" smooth="yes"/>
      <point x="246" y="1245"/>
      <point x="239" y="1268"/>
      <point x="239" y="1292" type="curve" smooth="yes"/>
    </contour>
  </outline>
</glyph>
<glyph name="m" format="1">
  <advance width="1684"/>
  <unicode hex="006D"/>
  <note>
	m
  </note>
  <outline>
    <contour>
      <point x="692" y="381" type="line" smooth="yes"/>
      <point x="709" y="514"/>
      <point x="718" y="615"/>
      <point x="718" y="684" type="curve" smooth="yes"/>
      <point x="718" y="725"/>
      <point x="716" y="756"/>
      <point x="711" y="777" type="curve" smooth="yes"/>
      <point x="701" y="818"/>
      <point x="679" y="830"/>
      <point x="638" y="830" type="curve" smooth="yes"/>
      <point x="599" y="830"/>
      <point x="547" y="793"/>
      <point x="499" y="735" type="curve" smooth="yes"/>
      <point x="475" y="706"/>
      <point x="454" y="673"/>
      <point x="436" y="638" type="curve"/>
      <point x="348" y="0" type="line"/>
      <point x="71" y="0" type="line"/>
      <point x="184" y="827" type="line"/>
      <point x="91" y="879" type="line"/>
      <point x="106" y="955" type="line"/>
      <point x="426" y="1000" type="line"/>
      <point x="471" y="980" type="line"/>
      <point x="458" y="797" type="line"/>
      <point x="533" y="918"/>
      <point x="644" y="1000"/>
      <point x="769" y="1000" type="curve" smooth="yes"/>
      <point x="902" y="1000"/>
      <point x="987" y="937"/>
      <point x="1003" y="788" type="curve"/>
      <point x="1079" y="924"/>
      <point x="1197" y="1000"/>
      <point x="1344" y="1000" type="curve" smooth="yes"/>
      <point x="1487" y="1000"/>
      <point x="1572" y="923"/>
      <point x="1572" y="740" type="curve" smooth="yes"/>
      <point x="1572" y="702"/>
      <point x="1558" y="600"/>
      <point x="1530" y="434" type="curve" smooth="yes"/>
      <point x="1520" y="378" type="line" smooth="yes"/>
      <point x="1503" y="277"/>
      <point x="1494" y="222"/>
      <point x="1494" y="177" type="curve" smooth="yes"/>
      <point x="1494" y="140"/>
      <point x="1507" y="130"/>
      <point x="1527" y="130" type="curve" smooth="yes"/>
      <point x="1537" y="130"/>
      <point x="1547" y="133"/>
      <point x="1558" y="138" type="curve" smooth="yes"/>
      <point x="1569" y="143"/>
      <point x="1584" y="154"/>
      <point x="1605" y="169" type="curve"/>
      <point x="1629" y="107" type="line"/>
      <point x="1588" y="52"/>
      <point x="1503" y="-18"/>
      <point x="1371" y="-18" type="curve" smooth="yes"/>
      <point x="1232" y="-18"/>
      <point x="1196" y="42"/>
      <point x="1196" y="129" type="curve" smooth="yes"/>
      <point x="1196" y="148"/>
      <point x="1199" y="173"/>
      <point x="1205" y="206" type="curve" smooth="yes"/>
      <point x="1210" y="239"/>
      <point x="1219" y="286"/>
      <point x="1230" y="347" type="curve" smooth="yes"/>
      <point x="1236" y="381" type="line" smooth="yes"/>
      <point x="1260" y="516"/>
      <point x="1275" y="614"/>
      <point x="1275" y="699" type="curve" smooth="yes"/>
      <point x="1275" y="733"/>
      <point x="1273" y="760"/>
      <point x="1268" y="779" type="curve" smooth="yes"/>
      <point x="1259" y="817"/>
      <point x="1240" y="830"/>
      <point x="1207" y="830" type="curve" smooth="yes"/>
      <point x="1140" y="830"/>
      <point x="1056" y="757"/>
      <point x="1003" y="652" type="curve"/>
      <point x="1000" y="579"/>
      <point x="993" y="506"/>
      <point x="982" y="434" type="curve" smooth="yes"/>
      <point x="931" y="0" type="line"/>
      <point x="643" y="0" type="line"/>
    </contour>
  </outline>
</glyph>
<glyph name="p" format="1">
  <advance width="1050"/>
  <unicode hex="0070"/>
  <note>
	p
  </note>
  <outline>
    <contour>
      <point x="272" y="-447" type="line"/>
      <point x="-2" y="-447" type="line"/>
      <point x="170" y="827" type="line"/>
      <point x="78" y="879" type="line"/>
      <point x="92" y="955" type="line"/>
      <point x="424" y="1000" type="line"/>
      <point x="469" y="980" type="line"/>
      <point x="460" y="907" type="line"/>
      <point x="520" y="963"/>
      <point x="599" y="1000"/>
      <point x="699" y="1000" type="curve" smooth="yes"/>
      <point x="896" y="1000"/>
      <point x="999" y="867"/>
      <point x="999" y="628" type="curve" smooth="yes"/>
      <point x="999" y="387"/>
      <point x="898" y="181"/>
      <point x="723" y="68" type="curve" smooth="yes"/>
      <point x="635" y="11"/>
      <point x="534" y="-17"/>
      <point x="420" y="-17" type="curve" smooth="yes"/>
      <point x="390" y="-17"/>
      <point x="361" y="-14"/>
      <point x="333" y="-9" type="curve"/>
    </contour>
    <contour>
      <point x="351" y="114" type="line"/>
      <point x="373" y="106"/>
      <point x="403" y="102"/>
      <point x="442" y="102" type="curve" smooth="yes"/>
      <point x="563" y="102"/>
      <point x="640" y="209"/>
      <point x="676" y="368" type="curve" smooth="yes"/>
      <point x="693" y="447"/>
      <point x="702" y="534"/>
      <point x="702" y="627" type="curve" smooth="yes"/>
      <point x="702" y="755"/>
      <point x="659" y="850"/>
      <point x="578" y="850" type="curve" smooth="yes"/>
      <point x="528" y="850"/>
      <point x="483" y="822"/>
      <point x="442" y="766" type="curve"/>
    </contour>
  </outline>
</glyph>
<glyph name="q" format="1">
  <advance width="1055"/>
  <unicode hex="0071"/>
  <note>
	q
  </note>
  <outline>
    <contour>
      <point x="52" y="578"/>
      <point x="137" y="788"/>
      <point x="313" y="909" type="curve" smooth="yes"/>
      <point x="401" y="970"/>
      <point x="508" y="1000"/>
      <point x="635" y="1000" type="curve" smooth="yes"/>
      <point x="703" y="1000"/>
      <point x="796" y="980"/>
      <point x="853" y="959" type="curve"/>
      <point x="852" y="958" type="line"/>
      <point x="867" y="963" type="line"/>
      <point x="992" y="1000" type="line"/>
      <point x="827" y="-236" type="line"/>
      <point x="826" y="-239"/>
      <point x="826" y="-243"/>
      <point x="826" y="-249" type="curve" smooth="yes"/>
      <point x="826" y="-277"/>
      <point x="838" y="-298"/>
      <point x="862" y="-298" type="curve" smooth="yes"/>
      <point x="881" y="-298"/>
      <point x="900" y="-287"/>
      <point x="939" y="-258" type="curve"/>
      <point x="963" y="-321" type="line"/>
      <point x="924" y="-374"/>
      <point x="837" y="-445"/>
      <point x="704" y="-445" type="curve" smooth="yes"/>
      <point x="620" y="-445"/>
      <point x="567" y="-413"/>
      <point x="545" y="-369" type="curve" smooth="yes"/>
      <point x="534" y="-347"/>
      <point x="529" y="-323"/>
      <point x="531" y="-298" type="curve"/>
      <point x="585" y="72" type="line"/>
      <point x="519" y="13"/>
      <point x="440" y="-17"/>
      <point x="348" y="-17" type="curve" smooth="yes"/>
      <point x="145" y="-17"/>
      <point x="52" y="130"/>
      <point x="52" y="346" type="curve" smooth="yes"/>
    </contour>
    <contour>
      <point x="702" y="867" type="line"/>
      <point x="678" y="876"/>
      <point x="649" y="880"/>
      <point x="614" y="880" type="curve" smooth="yes"/>
      <point x="483" y="880"/>
      <point x="404" y="762"/>
      <point x="371" y="603" type="curve" smooth="yes"/>
      <point x="354" y="524"/>
      <point x="346" y="441"/>
      <point x="346" y="355" type="curve" smooth="yes"/>
      <point x="346" y="214"/>
      <point x="391" y="132"/>
      <point x="470" y="132" type="curve" smooth="yes"/>
      <point x="522" y="132"/>
      <point x="570" y="168"/>
      <point x="606" y="217" type="curve"/>
    </contour>
  </outline>
</glyph>
<glyph name="r" format="1">
  <advance width="732"/>
  <unicode hex="0072"/>
  <note>
	r
  </note>
  <outline>
    <contour>
      <point x="94" y="879" type="line"/>
      <point x="108" y="955" type="line"/>
      <point x="392" y="1000" type="line"/>
      <point x="438" y="971" type="line"/>
      <point x="426" y="745" type="line"/>
      <point x="451" y="837"/>
      <point x="507" y="920"/>
      <point x="584" y="966" type="curve" smooth="yes"/>
      <point x="622" y="989"/>
      <point x="663" y="1000"/>
      <point x="708" y="1000" type="curve" smooth="yes"/>
      <point x="735" y="1000"/>
      <point x="756" y="991"/>
      <point x="768" y="983" type="curve"/>
      <point x="709" y="676" type="line"/>
      <point x="698" y="688"/>
      <point x="660" y="706"/>
      <point x="611" y="706" type="curve" smooth="yes"/>
      <point x="538" y="706"/>
      <point x="474" y="694"/>
      <point x="443" y="670" type="curve"/>
      <point x="351" y="0" type="line"/>
      <point x="73" y="0" type="line"/>
      <point x="186" y="827" type="line"/>
    </contour>
  </outline>
</glyph>
<glyph name="t" format="1">
  <advance width="622"/>
  <unicode hex="0074"/>
  <note>
	t
  </note>
  <outline>
    <contour>
      <point x="181" y="855" type="line"/>
      <point x="78" y="855" type="line"/>
      <point x="99" y="949" type="line"/>
      <point x="204" y="989" type="line"/>
      <point x="251" y="1028"/>
      <point x="299" y="1117"/>
      <point x="342" y="1218" type="curve"/>
      <point x="505" y="1218" type="line"/>
      <point x="476" y="993" type="line"/>
      <point x="655" y="993" type="line"/>
      <point x="636" y="855" type="line"/>
      <point x="458" y="855" type="line"/>
      <point x="387" y="335" type="line"/>
      <point x="384" y="316" type="line"/>
      <point x="384" y="312"/>
      <point x="382" y="298"/>
      <point x="379" y="275" type="curve" smooth="yes"/>
      <point x="376" y="251"/>
      <point x="374" y="231"/>
      <point x="374" y="216" type="curve" smooth="yes"/>
      <point x="374" y="169"/>
      <point x="395" y="146"/>
      <point x="437" y="146" type="curve" smooth="yes"/>
      <point x="486" y="146"/>
      <point x="542" y="160"/>
      <point x="582" y="195" type="curve"/>
      <point x="604" y="126" type="line"/>
      <point x="539" y="53"/>
      <point x="421" y="-17"/>
      <point x="254" y="-17" type="curve" smooth="yes"/>
      <point x="157" y="-17"/>
      <point x="88" y="28"/>
      <point x="88" y="137" type="curve" smooth="yes"/>
      <point x="88" y="159"/>
      <point x="96" y="227"/>
      <point x="111" y="342" type="curve" smooth="yes"/>
    </contour>
  </outline>
</glyph>
<glyph name="v" format="1">
  <advance width="931"/>
  <unicode hex="0076"/>
  <note>
	v
  </note>
  <outline>
    <contour>
      <point x="105" y="797" type="line" smooth="yes"/>
      <point x="98" y="834"/>
      <point x="87" y="845"/>
      <point x="64" y="845" type="curve" smooth="yes"/>
      <point x="49" y="845"/>
      <point x="45" y="843"/>
      <point x="26" y="832" type="curve"/>
      <point x="1" y="900" type="line"/>
      <point x="17" y="919"/>
      <point x="61" y="955"/>
      <point x="125" y="981" type="curve" smooth="yes"/>
      <point x="157" y="994"/>
      <point x="191" y="1000"/>
      <point x="226" y="1000" type="curve" smooth="yes"/>
      <point x="327" y="1000"/>
      <point x="377" y="961"/>
      <point x="390" y="882" type="curve" smooth="yes"/>
      <point x="470" y="391" type="line"/>
      <point x="497" y="206" type="line"/>
      <point x="540" y="273" type="line" smooth="yes"/>
      <point x="637" y="428"/>
      <point x="678" y="547"/>
      <point x="678" y="690" type="curve" smooth="yes"/>
      <point x="678" y="717"/>
      <point x="673" y="740"/>
      <point x="664" y="783" type="curve" smooth="yes"/>
      <point x="654" y="825"/>
      <point x="649" y="858"/>
      <point x="649" y="882" type="curve" smooth="yes"/>
      <point x="649" y="951"/>
      <point x="700" y="1000"/>
      <point x="785" y="1000" type="curve" smooth="yes"/>
      <point x="892" y="1000"/>
      <point x="943" y="915"/>
      <point x="943" y="810" type="curve" smooth="yes"/>
      <point x="943" y="694"/>
      <point x="877" y="537"/>
      <point x="762" y="369" type="curve" smooth="yes"/>
      <point x="704" y="284"/>
      <point x="636" y="200"/>
      <point x="558" y="117" type="curve" smooth="yes"/>
      <point x="444" y="-8" type="line"/>
      <point x="279" y="-18" type="line"/>
      <point x="211" y="305" type="line"/>
    </contour>
  </outline>
</glyph>
<glyph name="w" format="1">
  <advance width="1518"/>
  <unicode hex="0077"/>
  <note>
	w
  </note>
  <outline>
    <contour>
      <point x="852" y="-15" type="line"/>
      <point x="800" y="305" type="line"/>
      <point x="771" y="536" type="line"/>
      <point x="759" y="668" type="line"/>
      <point x="723" y="536" type="line"/>
      <point x="660" y="353" type="line"/>
      <point x="518" y="-3" type="line"/>
      <point x="287" y="-17" type="line"/>
      <point x="216" y="305" type="line"/>
      <point x="105" y="797" type="line" smooth="yes"/>
      <point x="97" y="832"/>
      <point x="87" y="845"/>
      <point x="68" y="845" type="curve" smooth="yes"/>
      <point x="52" y="845"/>
      <point x="43" y="842"/>
      <point x="35" y="837" type="curve" smooth="yes"/>
      <point x="30" y="834"/>
      <point x="27" y="833"/>
      <point x="26" y="832" type="curve"/>
      <point x="1" y="900" type="line"/>
      <point x="14" y="919"/>
      <point x="62" y="956"/>
      <point x="127" y="981" type="curve" smooth="yes"/>
      <point x="159" y="994"/>
      <point x="192" y="1000"/>
      <point x="226" y="1000" type="curve" smooth="yes"/>
      <point x="326" y="1000"/>
      <point x="376" y="961"/>
      <point x="389" y="882" type="curve" smooth="yes"/>
      <point x="458" y="378" type="line"/>
      <point x="480" y="196" type="line"/>
      <point x="555" y="439" type="line"/>
      <point x="717" y="993" type="line"/>
      <point x="990" y="993" type="line"/>
      <point x="1066" y="348" type="line"/>
      <point x="1080" y="206" type="line"/>
      <point x="1121" y="273" type="line" smooth="yes"/>
      <point x="1221" y="432"/>
      <point x="1265" y="551"/>
      <point x="1265" y="690" type="curve" smooth="yes"/>
      <point x="1265" y="717"/>
      <point x="1260" y="740"/>
      <point x="1251" y="783" type="curve" smooth="yes"/>
      <point x="1242" y="825"/>
      <point x="1237" y="858"/>
      <point x="1237" y="882" type="curve" smooth="yes"/>
      <point x="1237" y="951"/>
      <point x="1286" y="1000"/>
      <point x="1373" y="1000" type="curve" smooth="yes"/>
      <point x="1480" y="1000"/>
      <point x="1530" y="917"/>
      <point x="1530" y="812" type="curve" smooth="yes"/>
      <point x="1530" y="703"/>
      <point x="1430" y="508"/>
      <point x="1310" y="332" type="curve" smooth="yes"/>
      <point x="1249" y="243"/>
      <point x="1196" y="172"/>
      <point x="1149" y="117" type="curve" smooth="yes"/>
      <point x="1043" y="-7" type="line"/>
    </contour>
  </outline>
</glyph>
<glyph name="x" format="1">
  <advance width="885"/>
  <unicode hex="0078"/>
  <note>
	x
  </note>
  <outline>
    <contour>
      <point x="194" y="0" type="line"/>
      <point x="-85" y="0" type="line"/>
      <point x="315" y="490" type="line"/>
      <point x="171" y="775" type="line" smooth="yes"/>
      <point x="148" y="822"/>
      <point x="125" y="846"/>
      <point x="104" y="846" type="curve" smooth="yes"/>
      <point x="71" y="846"/>
      <point x="58" y="843"/>
      <point x="35" y="830" type="curve"/>
      <point x="2" y="902" type="line"/>
      <point x="18" y="922"/>
      <point x="65" y="957"/>
      <point x="141" y="982" type="curve" smooth="yes"/>
      <point x="178" y="994"/>
      <point x="220" y="1000"/>
      <point x="265" y="1000" type="curve" smooth="yes"/>
      <point x="356" y="1000"/>
      <point x="414" y="969"/>
      <point x="433" y="910" type="curve" smooth="yes"/>
      <point x="505" y="681" type="line"/>
      <point x="697" y="993" type="line"/>
      <point x="959" y="993" type="line"/>
      <point x="576" y="511" type="line"/>
      <point x="703" y="257" type="line" smooth="yes"/>
      <point x="727" y="209"/>
      <point x="765" y="154"/>
      <point x="790" y="154" type="curve" smooth="yes"/>
      <point x="814" y="154"/>
      <point x="834" y="158"/>
      <point x="874" y="187" type="curve"/>
      <point x="912" y="114" type="line"/>
      <point x="896" y="89"/>
      <point x="849" y="43"/>
      <point x="766" y="9" type="curve" smooth="yes"/>
      <point x="725" y="-8"/>
      <point x="677" y="-17"/>
      <point x="624" y="-17" type="curve" smooth="yes"/>
      <point x="544" y="-17"/>
      <point x="493" y="13"/>
      <point x="471" y="73" type="curve"/>
      <point x="390" y="322" type="line"/>
    </contour>
  </outline>
</glyph>
<glyph name="z" format="1">
  <advance width="869"/>
  <unicode hex="007A"/>
  <note>
	z
  </note>
  <outline>
    <contour>
      <point x="203" y="994"/>
      <point x="232" y="1000"/>
      <point x="261" y="1000" type="curve" smooth="yes"/>
      <point x="325" y="1000"/>
      <point x="439" y="992"/>
      <point x="539" y="984" type="curve" smooth="yes"/>
      <point x="627" y="977"/>
      <point x="720" y="970"/>
      <point x="765" y="970" type="curve" smooth="yes"/>
      <point x="810" y="970"/>
      <point x="841" y="980"/>
      <point x="865" y="1000" type="curve"/>
      <point x="911" y="948" type="line"/>
      <point x="353" y="258" type="line"/>
      <point x="291" y="221" type="line"/>
      <point x="573" y="221" type="line" smooth="yes"/>
      <point x="665" y="221"/>
      <point x="721" y="279"/>
      <point x="729" y="360" type="curve"/>
      <point x="802" y="360" type="line"/>
      <point x="807" y="326"/>
      <point x="809" y="288"/>
      <point x="809" y="247" type="curve" smooth="yes"/>
      <point x="809" y="131"/>
      <point x="790" y="29"/>
      <point x="745" y="-3" type="curve" smooth="yes"/>
      <point x="729" y="-14"/>
      <point x="699" y="-20"/>
      <point x="654" y="-20" type="curve" smooth="yes"/>
      <point x="602" y="-20"/>
      <point x="503" y="-15"/>
      <point x="356" y="-4" type="curve" smooth="yes"/>
      <point x="232" y="5"/>
      <point x="151" y="9"/>
      <point x="114" y="9" type="curve" smooth="yes"/>
      <point x="81" y="9"/>
      <point x="40" y="0"/>
      <point x="21" y="-20" type="curve"/>
      <point x="-33" y="34" type="line"/>
      <point x="523" y="715" type="line"/>
      <point x="603" y="759" type="line"/>
      <point x="342" y="760" type="line" smooth="yes"/>
      <point x="254" y="760"/>
      <point x="197" y="706"/>
      <point x="192" y="630" type="curve"/>
      <point x="116" y="630" type="line"/>
      <point x="111" y="666"/>
      <point x="108" y="706"/>
      <point x="108" y="749" type="curve" smooth="yes"/>
      <point x="108" y="862"/>
      <point x="126" y="962"/>
      <point x="174" y="981" type="curve"/>
    </contour>
  </outline>
</glyph>
<glyph name="braceleft" format="1">
  <advance width="897"/>
  <unicode hex="007B"/>
  <note>
	braceleft
  </note>
  <outline>
    <contour>
      <point x="272" y="517"/>
      <point x="256" y="537"/>
      <point x="227" y="556" type="curve" smooth="yes"/>
      <point x="191" y="580"/>
      <point x="137" y="602"/>
      <point x="85" y="614" type="curve"/>
      <point x="101" y="721" type="line"/>
      <point x="174" y="738"/>
      <point x="229" y="757"/>
      <point x="266" y="777" type="curve" smooth="yes"/>
      <point x="300" y="794"/>
      <point x="319" y="812"/>
      <point x="322" y="831" type="curve" smooth="yes"/>
      <point x="394" y="1301" type="line" smooth="yes"/>
      <point x="419" y="1461"/>
      <point x="516" y="1518"/>
      <point x="665" y="1518" type="curve" smooth="yes"/>
      <point x="710" y="1518"/>
      <point x="785" y="1503"/>
      <point x="838" y="1491" type="curve"/>
      <point x="864" y="1484"/>
      <point x="881" y="1480"/>
      <point x="888" y="1477" type="curve"/>
      <point x="887" y="1468"/>
      <point x="884" y="1451"/>
      <point x="879" y="1426" type="curve" smooth="yes"/>
      <point x="874" y="1400"/>
      <point x="872" y="1384"/>
      <point x="871" y="1377" type="curve"/>
      <point x="634" y="1377" type="line"/>
      <point x="551" y="834" type="line" smooth="yes"/>
      <point x="544" y="791"/>
      <point x="516" y="759"/>
      <point x="467" y="728" type="curve" smooth="yes"/>
      <point x="447" y="715"/>
      <point x="365" y="676"/>
      <point x="342" y="667" type="curve"/>
      <point x="466" y="602"/>
      <point x="501" y="564"/>
      <point x="501" y="508" type="curve" smooth="yes"/>
      <point x="501" y="503"/>
      <point x="501" y="498"/>
      <point x="500" y="494" type="curve"/>
      <point x="418" y="-47" type="line"/>
      <point x="654" y="-47" type="line"/>
      <point x="652" y="-62"/>
      <point x="650" y="-81"/>
      <point x="647" y="-104" type="curve" smooth="yes"/>
      <point x="644" y="-127"/>
      <point x="642" y="-144"/>
      <point x="641" y="-154" type="curve"/>
      <point x="542" y="-182"/>
      <point x="489" y="-194"/>
      <point x="404" y="-194" type="curve" smooth="yes"/>
      <point x="281" y="-194"/>
      <point x="190" y="-159"/>
      <point x="191" y="-71" type="curve"/>
      <point x="192" y="-51"/>
      <point x="255" y="385"/>
      <point x="272" y="498" type="curve"/>
    </contour>
  </outline>
</glyph>
<glyph name="bar" format="1">
  <advance width="734"/>
  <unicode hex="007C"/>
  <note>
	bar
  </note>
  <outline>
    <contour>
      <point x="476" y="1531" type="line"/>
      <point x="476" y="-160" type="line"/>
      <point x="292" y="-160" type="line"/>
      <point x="292" y="1531" type="line"/>
    </contour>
  </outline>
</glyph>
<glyph name="braceright" format="1">
  <advance width="897"/>
  <unicode hex="007D"/>
  <note>
	braceright
  </note>
  <outline>
    <contour>
      <point x="630" y="813"/>
      <point x="646" y="793"/>
      <point x="674" y="774" type="curve" smooth="yes"/>
      <point x="711" y="750"/>
      <point x="764" y="728"/>
      <point x="816" y="716" type="curve"/>
      <point x="801" y="609" type="line"/>
      <point x="728" y="591"/>
      <point x="673" y="572"/>
      <point x="636" y="553" type="curve" smooth="yes"/>
      <point x="601" y="535"/>
      <point x="583" y="517"/>
      <point x="580" y="499" type="curve" smooth="yes"/>
      <point x="507" y="28" type="line" smooth="yes"/>
      <point x="482" y="-131"/>
      <point x="385" y="-188"/>
      <point x="236" y="-188" type="curve" smooth="yes"/>
      <point x="191" y="-188"/>
      <point x="116" y="-173"/>
      <point x="64" y="-160" type="curve" smooth="yes"/>
      <point x="37" y="-154"/>
      <point x="20" y="-150"/>
      <point x="13" y="-148" type="curve"/>
      <point x="14" y="-139"/>
      <point x="17" y="-121"/>
      <point x="22" y="-96" type="curve" smooth="yes"/>
      <point x="27" y="-71"/>
      <point x="29" y="-54"/>
      <point x="30" y="-47" type="curve"/>
      <point x="267" y="-47" type="line"/>
      <point x="350" y="495" type="line" smooth="yes"/>
      <point x="357" y="539"/>
      <point x="385" y="571"/>
      <point x="434" y="602" type="curve"/>
      <point x="455" y="614"/>
      <point x="538" y="653"/>
      <point x="559" y="662" type="curve"/>
      <point x="435" y="727"/>
      <point x="401" y="765"/>
      <point x="401" y="821" type="curve" smooth="yes"/>
      <point x="401" y="827"/>
      <point x="401" y="832"/>
      <point x="402" y="835" type="curve"/>
      <point x="483" y="1377" type="line"/>
      <point x="247" y="1377" type="line"/>
      <point x="249" y="1392"/>
      <point x="252" y="1411"/>
      <point x="255" y="1434" type="curve" smooth="yes"/>
      <point x="258" y="1457"/>
      <point x="260" y="1474"/>
      <point x="261" y="1484" type="curve"/>
      <point x="360" y="1512"/>
      <point x="412" y="1524"/>
      <point x="497" y="1524" type="curve" smooth="yes"/>
      <point x="620" y="1524"/>
      <point x="711" y="1488"/>
      <point x="710" y="1401" type="curve" smooth="yes"/>
      <point x="710" y="1390"/>
      <point x="699" y="1307"/>
      <point x="676" y="1151" type="curve" smooth="yes"/>
      <point x="653" y="995"/>
      <point x="638" y="889"/>
      <point x="630" y="832" type="curve"/>
    </contour>
  </outline>
</glyph>
<glyph name="asciitilde" format="1">
  <advance width="977"/>
  <unicode hex="007E"/>
  <note>
	asciitilde
  </note>
  <outline>
    <contour>
      <point x="93" y="753" type="line"/>
      <point x="113" y="810"/>
      <point x="168" y="871"/>
      <point x="243" y="907" type="curve" smooth="yes"/>
      <point x="280" y="925"/>
      <point x="320" y="934"/>
      <point x="361" y="934" type="curve" smooth="yes"/>
      <point x="416" y="934"/>
      <point x="460" y="917"/>
      <point x="492" y="898" type="curve" smooth="yes"/>
      <point x="508" y="888"/>
      <point x="527" y="875"/>
      <point x="550" y="859" type="curve" smooth="yes"/>
      <point x="601" y="822"/>
      <point x="630" y="803"/>
      <point x="673" y="803" type="curve" smooth="yes"/>
      <point x="746" y="803"/>
      <point x="797" y="834"/>
      <point x="838" y="895" type="curve"/>
      <point x="927" y="793" type="line"/>
      <point x="910" y="730"/>
      <point x="851" y="664"/>
      <point x="772" y="625" type="curve" smooth="yes"/>
      <point x="732" y="605"/>
      <point x="691" y="595"/>
      <point x="650" y="595" type="curve" smooth="yes"/>
      <point x="593" y="595"/>
      <point x="546" y="613"/>
      <point x="513" y="634" type="curve"/>
      <point x="496" y="644"/>
      <point x="476" y="658"/>
      <point x="453" y="676" type="curve" smooth="yes"/>
      <point x="402" y="716"/>
      <point x="374" y="734"/>
      <point x="330" y="734" type="curve" smooth="yes"/>
      <point x="266" y="734"/>
      <point x="204" y="708"/>
      <point x="165" y="651" type="curve"/>
    </contour>
  </outline>
</glyph>
<glyph name="exclamdown" format="1">
  <advance width="615"/>
  <unicode hex="00A1"/>
  <note>
	exclamdown
  </note>
  <outline>
    <contour>
      <point x="326" y="863"/>
      <point x="286" y="890"/>
      <point x="267" y="933" type="curve" smooth="yes"/>
      <point x="257" y="954"/>
      <point x="252" y="977"/>
      <point x="252" y="1001" type="curve" smooth="yes"/>
      <point x="252" y="1076"/>
      <point x="290" y="1128"/>
      <point x="343" y="1154" type="curve" smooth="yes"/>
      <point x="370" y="1167"/>
      <point x="397" y="1173"/>
      <point x="426" y="1173" type="curve" smooth="yes"/>
      <point x="469" y="1173"/>
      <point x="507" y="1148"/>
      <point x="528" y="1105" type="curve" smooth="yes"/>
      <point x="539" y="1084"/>
      <point x="544" y="1060"/>
      <point x="544" y="1035" type="curve" smooth="yes"/>
      <point x="544" y="966"/>
      <point x="508" y="912"/>
      <point x="458" y="884" type="curve" smooth="yes"/>
      <point x="433" y="870"/>
      <point x="406" y="863"/>
      <point x="379" y="863" type="curve" smooth="yes"/>
    </contour>
    <contour>
      <point x="40" y="-373" type="line"/>
      <point x="261" y="702" type="line"/>
      <point x="436" y="702" type="line"/>
      <point x="328" y="-373" type="line"/>
    </contour>
  </outline>
</glyph>
<glyph name="cent" format="1">
  <advance width="908"/>
  <unicode hex="00A2"/>
  <note>
	cent
  </note>
  <outline>
    <contour>
      <point x="347" y="-8" type="line"/>
      <point x="191" y="29"/>
      <point x="101" y="169"/>
      <point x="101" y="401" type="curve" smooth="yes"/>
      <point x="101" y="577"/>
      <point x="166" y="751"/>
      <point x="298" y="871" type="curve" smooth="yes"/>
      <point x="363" y="930"/>
      <point x="443" y="969"/>
      <point x="536" y="988" type="curve"/>
      <point x="575" y="1168" type="line"/>
      <point x="704" y="1168" type="line"/>
      <point x="667" y="1000" type="line"/>
      <point x="740" y="999"/>
      <point x="824" y="987"/>
      <point x="876" y="968" type="curve"/>
      <point x="805" y="691" type="line"/>
      <point x="742" y="691" type="line"/>
      <point x="707" y="744"/>
      <point x="678" y="787"/>
      <point x="654" y="818" type="curve" smooth="yes"/>
      <point x="630" y="849"/>
      <point x="610" y="865"/>
      <point x="594" y="865" type="curve" smooth="yes"/>
      <point x="533" y="865"/>
      <point x="464" y="784"/>
      <point x="424" y="648" type="curve" smooth="yes"/>
      <point x="404" y="579"/>
      <point x="394" y="503"/>
      <point x="394" y="420" type="curve" smooth="yes"/>
      <point x="394" y="288"/>
      <point x="415" y="209"/>
      <point x="459" y="173" type="curve" smooth="yes"/>
      <point x="481" y="154"/>
      <point x="509" y="145"/>
      <point x="544" y="145" type="curve" smooth="yes"/>
      <point x="647" y="145"/>
      <point x="710" y="187"/>
      <point x="763" y="255" type="curve"/>
      <point x="818" y="167" type="line"/>
      <point x="785" y="114"/>
      <point x="721" y="59"/>
      <point x="629" y="20" type="curve" smooth="yes"/>
      <point x="582" y="1"/>
      <point x="531" y="-11"/>
      <point x="474" y="-15" type="curve"/>
      <point x="443" y="-185" type="line"/>
      <point x="314" y="-185" type="line"/>
    </contour>
  </outline>
</glyph>
<glyph name="currency" format="1">
  <advance width="1324"/>
  <unicode hex="00A4"/>
  <note>
	currency
  </note>
  <outline>
    <contour>
      <point x="354" y="388" type="line"/>
      <point x="314" y="451"/>
      <point x="294" y="519"/>
      <point x="294" y="593" type="curve" smooth="yes"/>
      <point x="294" y="666"/>
      <point x="314" y="734"/>
      <point x="353" y="796" type="curve"/>
      <point x="173" y="976" type="line"/>
      <point x="294" y="1098" type="line"/>
      <point x="476" y="915" type="line"/>
      <point x="537" y="952"/>
      <point x="603" y="970"/>
      <point x="673" y="970" type="curve" smooth="yes"/>
      <point x="746" y="970"/>
      <point x="815" y="950"/>
      <point x="878" y="910" type="curve"/>
      <point x="1056" y="1087" type="line"/>
      <point x="1177" y="965" type="line"/>
      <point x="998" y="785" type="line"/>
      <point x="1033" y="726"/>
      <point x="1051" y="662"/>
      <point x="1051" y="593" type="curve" smooth="yes"/>
      <point x="1051" y="521"/>
      <point x="1032" y="455"/>
      <point x="994" y="395" type="curve"/>
      <point x="1176" y="213" type="line"/>
      <point x="1054" y="92" type="line"/>
      <point x="872" y="273" type="line"/>
      <point x="811" y="236"/>
      <point x="745" y="217"/>
      <point x="673" y="217" type="curve" smooth="yes"/>
      <point x="603" y="217"/>
      <point x="538" y="234"/>
      <point x="479" y="269" type="curve"/>
      <point x="298" y="88" type="line"/>
      <point x="175" y="209" type="line"/>
    </contour>
    <contour>
      <point x="737" y="408"/>
      <point x="794" y="444"/>
      <point x="826" y="501" type="curve" smooth="yes"/>
      <point x="842" y="530"/>
      <point x="850" y="560"/>
      <point x="850" y="593" type="curve" smooth="yes"/>
      <point x="850" y="660"/>
      <point x="816" y="720"/>
      <point x="762" y="754" type="curve" smooth="yes"/>
      <point x="735" y="771"/>
      <point x="705" y="779"/>
      <point x="673" y="779" type="curve" smooth="yes"/>
      <point x="608" y="779"/>
      <point x="551" y="742"/>
      <point x="519" y="686" type="curve" smooth="yes"/>
      <point x="503" y="657"/>
      <point x="495" y="626"/>
      <point x="495" y="593" type="curve" smooth="yes"/>
      <point x="495" y="528"/>
      <point x="530" y="466"/>
      <point x="584" y="433" type="curve" smooth="yes"/>
      <point x="611" y="416"/>
      <point x="640" y="408"/>
      <point x="673" y="408" type="curve" smooth="yes"/>
    </contour>
  </outline>
</glyph>
<glyph name="yen" format="1">
  <advance width="1275"/>
  <unicode hex="00A5"/>
  <note>
	yen
  </note>
  <outline>
    <contour>
      <point x="476" y="733" type="line"/>
      <point x="228" y="1199" type="line"/>
      <point x="130" y="1221" type="line"/>
      <point x="143" y="1318" type="line"/>
      <point x="730" y="1318" type="line"/>
      <point x="717" y="1221" type="line"/>
      <point x="561" y="1199" type="line"/>
      <point x="676" y="898" type="line"/>
      <point x="723" y="777" type="line"/>
      <point x="803" y="898" type="line"/>
      <point x="994" y="1206" type="line"/>
      <point x="891" y="1221" type="line"/>
      <point x="904" y="1318" type="line"/>
      <point x="1385" y="1318" type="line"/>
      <point x="1372" y="1221" type="line"/>
      <point x="1260" y="1197" type="line"/>
      <point x="904" y="733" type="line"/>
      <point x="1101" y="733" type="line"/>
      <point x="1085" y="602" type="line"/>
      <point x="804" y="602" type="line"/>
      <point x="784" y="451" type="line"/>
      <point x="1066" y="451" type="line"/>
      <point x="1053" y="323" type="line"/>
      <point x="768" y="323" type="line"/>
      <point x="741" y="117" type="line"/>
      <point x="993" y="91" type="line"/>
      <point x="985" y="0" type="line"/>
      <point x="236" y="0" type="line"/>
      <point x="246" y="91" type="line"/>
      <point x="486" y="117" type="line"/>
      <point x="512" y="323" type="line"/>
      <point x="206" y="323" type="line"/>
      <point x="219" y="451" type="line"/>
      <point x="527" y="451" type="line"/>
      <point x="546" y="602" type="line"/>
      <point x="237" y="602" type="line"/>
      <point x="253" y="733" type="line"/>
    </contour>
  </outline>
</glyph>
<glyph name="brokenbar" format="1">
  <advance width="734"/>
  <unicode hex="00A6"/>
  <note>
	brokenbar
  </note>
  <outline>
    <contour>
      <point x="476" y="1531" type="line"/>
      <point x="476" y="788" type="line"/>
      <point x="292" y="788" type="line"/>
      <point x="292" y="1531" type="line"/>
    </contour>
    <contour>
      <point x="476" y="583" type="line"/>
      <point x="476" y="-160" type="line"/>
      <point x="292" y="-160" type="line"/>
      <point x="292" y="583" type="line"/>
    </contour>
  </outline>
</glyph>
<glyph name="section" format="1">
  <advance width="1026"/>
  <unicode hex="00A7"/>
  <note>
	section
  </note>
  <outline>
    <contour>
      <point x="269" y="204" type="line"/>
      <point x="290" y="26" type="line"/>
      <point x="323" y="-14"/>
      <point x="374" y="-34"/>
      <point x="443" y="-34" type="curve" smooth="yes"/>
      <point x="550" y="-34"/>
      <point x="641" y="-1"/>
      <point x="641" y="106" type="curve" smooth="yes"/>
      <point x="641" y="155"/>
      <point x="600" y="195"/>
      <point x="546" y="227" type="curve" smooth="yes"/>
      <point x="519" y="242"/>
      <point x="480" y="262"/>
      <point x="429" y="286" type="curve" smooth="yes"/>
      <point x="286" y="354"/>
      <point x="200" y="402"/>
      <point x="134" y="494" type="curve" smooth="yes"/>
      <point x="101" y="540"/>
      <point x="84" y="595"/>
      <point x="84" y="660" type="curve" smooth="yes"/>
      <point x="84" y="779"/>
      <point x="146" y="860"/>
      <point x="242" y="936" type="curve"/>
      <point x="198" y="988"/>
      <point x="176" y="1047"/>
      <point x="176" y="1113" type="curve" smooth="yes"/>
      <point x="176" y="1241"/>
      <point x="276" y="1345"/>
      <point x="422" y="1399" type="curve" smooth="yes"/>
      <point x="495" y="1426"/>
      <point x="572" y="1439"/>
      <point x="653" y="1439" type="curve" smooth="yes"/>
      <point x="794" y="1439"/>
      <point x="940" y="1406"/>
      <point x="992" y="1374" type="curve"/>
      <point x="943" y="1092" type="line"/>
      <point x="781" y="1092" type="line"/>
      <point x="758" y="1270" type="line"/>
      <point x="729" y="1297"/>
      <point x="683" y="1316"/>
      <point x="624" y="1316" type="curve" smooth="yes"/>
      <point x="509" y="1316"/>
      <point x="425" y="1289"/>
      <point x="425" y="1190" type="curve" smooth="yes"/>
      <point x="425" y="1123"/>
      <point x="471" y="1076"/>
      <point x="532" y="1043" type="curve" smooth="yes"/>
      <point x="562" y="1026"/>
      <point x="604" y="1006"/>
      <point x="657" y="983" type="curve" smooth="yes"/>
      <point x="790" y="926"/>
      <point x="867" y="888"/>
      <point x="925" y="808" type="curve" smooth="yes"/>
      <point x="954" y="768"/>
      <point x="968" y="719"/>
      <point x="968" y="660" type="curve" smooth="yes"/>
      <point x="968" y="516"/>
      <point x="908" y="423"/>
      <point x="815" y="347" type="curve"/>
      <point x="864" y="290"/>
      <point x="889" y="226"/>
      <point x="889" y="157" type="curve" smooth="yes"/>
      <point x="889" y="28"/>
      <point x="797" y="-70"/>
      <point x="654" y="-121" type="curve" smooth="yes"/>
      <point x="583" y="-147"/>
      <point x="505" y="-160"/>
      <point x="421" y="-160" type="curve" smooth="yes"/>
      <point x="326" y="-160"/>
      <point x="221" y="-143"/>
      <point x="143" y="-123" type="curve" smooth="yes"/>
      <point x="104" y="-113"/>
      <point x="75" y="-104"/>
      <point x="58" y="-95" type="curve"/>
      <point x="107" y="204" type="line"/>
    </contour>
    <contour>
      <point x="306" y="819"/>
      <point x="291" y="793"/>
      <point x="291" y="748" type="curve" smooth="yes"/>
      <point x="291" y="688"/>
      <point x="339" y="640"/>
      <point x="403" y="602" type="curve" smooth="yes"/>
      <point x="435" y="583"/>
      <point x="479" y="559"/>
      <point x="536" y="531" type="curve" smooth="yes"/>
      <point x="613" y="491"/>
      <point x="669" y="463"/>
      <point x="721" y="428" type="curve"/>
      <point x="753" y="463"/>
      <point x="766" y="490"/>
      <point x="766" y="539" type="curve" smooth="yes"/>
      <point x="766" y="598"/>
      <point x="719" y="645"/>
      <point x="655" y="682" type="curve" smooth="yes"/>
      <point x="623" y="701"/>
      <point x="580" y="723"/>
      <point x="525" y="749" type="curve" smooth="yes"/>
      <point x="428" y="797"/>
      <point x="388" y="818"/>
      <point x="337" y="851" type="curve"/>
    </contour>
  </outline>
</glyph>
<glyph name="dieresis" format="1">
  <advance width="695"/>
  <unicode hex="00A8"/>
  <note>
	dieresis
  </note>
  <outline>
    <contour>
      <point x="15" y="1355"/>
      <point x="40" y="1409"/>
      <point x="85" y="1440" type="curve" smooth="yes"/>
      <point x="108" y="1455"/>
      <point x="135" y="1463"/>
      <point x="166" y="1463" type="curve" smooth="yes"/>
      <point x="218" y="1463"/>
      <point x="258" y="1434"/>
      <point x="279" y="1393" type="curve" smooth="yes"/>
      <point x="290" y="1372"/>
      <point x="295" y="1351"/>
      <point x="295" y="1328" type="curve" smooth="yes"/>
      <point x="295" y="1224"/>
      <point x="243" y="1151"/>
      <point x="138" y="1151" type="curve" smooth="yes"/>
      <point x="94" y="1151"/>
      <point x="54" y="1180"/>
      <point x="32" y="1224" type="curve" smooth="yes"/>
      <point x="21" y="1245"/>
      <point x="15" y="1268"/>
      <point x="15" y="1291" type="curve" smooth="yes"/>
    </contour>
    <contour>
      <point x="403" y="1355"/>
      <point x="428" y="1409"/>
      <point x="473" y="1440" type="curve" smooth="yes"/>
      <point x="496" y="1455"/>
      <point x="523" y="1463"/>
      <point x="555" y="1463" type="curve" smooth="yes"/>
      <point x="606" y="1463"/>
      <point x="647" y="1434"/>
      <point x="668" y="1393" type="curve" smooth="yes"/>
      <point x="679" y="1372"/>
      <point x="684" y="1351"/>
      <point x="684" y="1328" type="curve" smooth="yes"/>
      <point x="684" y="1224"/>
      <point x="631" y="1151"/>
      <point x="526" y="1151" type="curve" smooth="yes"/>
      <point x="483" y="1151"/>
      <point x="443" y="1180"/>
      <point x="420" y="1224" type="curve" smooth="yes"/>
      <point x="409" y="1245"/>
      <point x="403" y="1268"/>
      <point x="403" y="1291" type="curve" smooth="yes"/>
    </contour>
  </outline>
</glyph>
<glyph name="copyright" format="1">
  <advance width="1520"/>
  <unicode hex="00A9"/>
  <note>
	copyright
  </note>
  <outline>
    <contour>
      <point x="1043" y="1358"/>
      <point x="1260" y="1231"/>
      <point x="1380" y="1028" type="curve" smooth="yes"/>
      <point x="1440" y="926"/>
      <point x="1470" y="814"/>
      <point x="1470" y="693" type="curve" smooth="yes"/>
      <point x="1470" y="452"/>
      <point x="1341" y="236"/>
      <point x="1137" y="117" type="curve" smooth="yes"/>
      <point x="1034" y="58"/>
      <point x="923" y="28"/>
      <point x="802" y="28" type="curve" smooth="yes"/>
      <point x="562" y="28"/>
      <point x="346" y="155"/>
      <point x="226" y="359" type="curve" smooth="yes"/>
      <point x="166" y="461"/>
      <point x="136" y="572"/>
      <point x="136" y="693" type="curve" smooth="yes"/>
      <point x="136" y="936"/>
      <point x="265" y="1150"/>
      <point x="469" y="1269" type="curve" smooth="yes"/>
      <point x="571" y="1328"/>
      <point x="682" y="1358"/>
      <point x="802" y="1358" type="curve" smooth="yes"/>
    </contour>
    <contour>
      <point x="1003" y="136"/>
      <point x="1180" y="243"/>
      <point x="1277" y="414" type="curve" smooth="yes"/>
      <point x="1326" y="499"/>
      <point x="1350" y="592"/>
      <point x="1350" y="693" type="curve" smooth="yes"/>
      <point x="1350" y="896"/>
      <point x="1246" y="1075"/>
      <point x="1079" y="1175" type="curve" smooth="yes"/>
      <point x="995" y="1225"/>
      <point x="903" y="1250"/>
      <point x="802" y="1250" type="curve" smooth="yes"/>
      <point x="602" y="1250"/>
      <point x="425" y="1143"/>
      <point x="328" y="973" type="curve" smooth="yes"/>
      <point x="279" y="888"/>
      <point x="255" y="794"/>
      <point x="255" y="693" type="curve" smooth="yes"/>
      <point x="255" y="492"/>
      <point x="359" y="311"/>
      <point x="527" y="211" type="curve" smooth="yes"/>
      <point x="610" y="161"/>
      <point x="702" y="136"/>
      <point x="802" y="136" type="curve" smooth="yes"/>
    </contour>
    <contour>
      <point x="912" y="1072"/>
      <point x="1000" y="1059"/>
      <point x="1035" y="1040" type="curve"/>
      <point x="1035" y="838" type="line"/>
      <point x="945" y="838" type="line"/>
      <point x="907" y="941" type="line"/>
      <point x="883" y="962"/>
      <point x="850" y="974"/>
      <point x="815" y="974" type="curve" smooth="yes"/>
      <point x="747" y="974"/>
      <point x="692" y="930"/>
      <point x="664" y="857" type="curve" smooth="yes"/>
      <point x="649" y="820"/>
      <point x="642" y="779"/>
      <point x="642" y="734" type="curve" smooth="yes"/>
      <point x="642" y="519"/>
      <point x="717" y="440"/>
      <point x="820" y="440" type="curve" smooth="yes"/>
      <point x="896" y="440"/>
      <point x="966" y="459"/>
      <point x="1009" y="483" type="curve"/>
      <point x="1043" y="394" type="line"/>
      <point x="991" y="350"/>
      <point x="888" y="315"/>
      <point x="791" y="315" type="curve" smooth="yes"/>
      <point x="658" y="315"/>
      <point x="557" y="387"/>
      <point x="505" y="502" type="curve" smooth="yes"/>
      <point x="479" y="559"/>
      <point x="466" y="623"/>
      <point x="466" y="693" type="curve" smooth="yes"/>
      <point x="466" y="832"/>
      <point x="528" y="953"/>
      <point x="639" y="1021" type="curve" smooth="yes"/>
      <point x="694" y="1055"/>
      <point x="759" y="1072"/>
      <point x="833" y="1072" type="curve" smooth="yes"/>
    </contour>
  </outline>
</glyph>
<glyph name="ordfeminine" format="1">
  <advance width="734"/>
  <unicode hex="00AA"/>
  <note>
	ordfeminine
  </note>
  <outline>
    <contour>
      <point x="38" y="1041"/>
      <point x="129" y="1196"/>
      <point x="275" y="1288" type="curve" smooth="yes"/>
      <point x="348" y="1333"/>
      <point x="427" y="1356"/>
      <point x="514" y="1356" type="curve" smooth="yes"/>
      <point x="562" y="1356"/>
      <point x="620" y="1345"/>
      <point x="660" y="1333" type="curve"/>
      <point x="787" y="1364" type="line"/>
      <point x="686" y="791" type="line" smooth="yes"/>
      <point x="685" y="786"/>
      <point x="685" y="780"/>
      <point x="685" y="771" type="curve" smooth="yes"/>
      <point x="685" y="755"/>
      <point x="689" y="745"/>
      <point x="697" y="745" type="curve" smooth="yes"/>
      <point x="708" y="745"/>
      <point x="724" y="751"/>
      <point x="745" y="762" type="curve"/>
      <point x="773" y="716" type="line"/>
      <point x="769" y="711"/>
      <point x="755" y="702"/>
      <point x="732" y="689" type="curve" smooth="yes"/>
      <point x="685" y="663"/>
      <point x="622" y="639"/>
      <point x="574" y="639" type="curve" smooth="yes"/>
      <point x="503" y="639"/>
      <point x="462" y="677"/>
      <point x="462" y="734" type="curve" smooth="yes"/>
      <point x="462" y="740"/>
      <point x="462" y="744"/>
      <point x="463" y="747" type="curve"/>
      <point x="411" y="682"/>
      <point x="351" y="639"/>
      <point x="243" y="639" type="curve" smooth="yes"/>
      <point x="114" y="639"/>
      <point x="38" y="737"/>
      <point x="38" y="894" type="curve" smooth="yes"/>
    </contour>
    <contour>
      <point x="538" y="1255" type="line"/>
      <point x="523" y="1264"/>
      <point x="508" y="1268"/>
      <point x="493" y="1268" type="curve" smooth="yes"/>
      <point x="397" y="1268"/>
      <point x="333" y="1191"/>
      <point x="304" y="1081" type="curve" smooth="yes"/>
      <point x="289" y="1026"/>
      <point x="282" y="968"/>
      <point x="282" y="907" type="curve" smooth="yes"/>
      <point x="282" y="854"/>
      <point x="288" y="816"/>
      <point x="299" y="793" type="curve" smooth="yes"/>
      <point x="310" y="770"/>
      <point x="328" y="758"/>
      <point x="355" y="758" type="curve" smooth="yes"/>
      <point x="392" y="758"/>
      <point x="431" y="777"/>
      <point x="460" y="805" type="curve"/>
    </contour>
  </outline>
</glyph>
<glyph name="guillemotleft" format="1">
  <advance width="1615"/>
  <unicode hex="00AB"/>
  <note>
	guillemotleft
  </note>
  <outline>
    <contour>
      <point x="815" y="943" type="line"/>
      <point x="865" y="792" type="line"/>
      <point x="469" y="520" type="line"/>
      <point x="791" y="253" type="line"/>
      <point x="705" y="122" type="line"/>
      <point x="166" y="456" type="line"/>
      <point x="185" y="593" type="line"/>
    </contour>
    <contour>
      <point x="1396" y="943" type="line"/>
      <point x="1446" y="792" type="line"/>
      <point x="1050" y="520" type="line"/>
      <point x="1372" y="253" type="line"/>
      <point x="1286" y="122" type="line"/>
      <point x="747" y="456" type="line"/>
      <point x="766" y="593" type="line"/>
    </contour>
  </outline>
</glyph>
<glyph name="logicalnot" format="1">
  <advance width="1178"/>
  <unicode hex="00AC"/>
  <note>
	logicalnot
  </note>
  <outline>
    <contour>
      <point x="1039" y="751" type="line"/>
      <point x="986" y="277" type="line"/>
      <point x="799" y="277" type="line"/>
      <point x="836" y="603" type="line"/>
      <point x="180" y="603" type="line"/>
      <point x="196" y="751" type="line"/>
    </contour>
  </outline>
</glyph>
<glyph name="uni00AD" format="1">
  <advance width="1105"/>
  <unicode hex="00AD"/>
  <note>
	uni00AD
  </note>
  <outline>
    <contour>
      <point x="966" y="749" type="line"/>
      <point x="950" y="579" type="line"/>
      <point x="213" y="579" type="line"/>
      <point x="229" y="749" type="line"/>
    </contour>
  </outline>
</glyph>
<glyph name="registered" format="1">
  <advance width="1520"/>
  <unicode hex="00AE"/>
  <note>
	registered
  </note>
  <outline>
    <contour>
      <point x="1043" y="1358"/>
      <point x="1260" y="1231"/>
      <point x="1380" y="1028" type="curve" smooth="yes"/>
      <point x="1440" y="926"/>
      <point x="1470" y="814"/>
      <point x="1470" y="693" type="curve" smooth="yes"/>
      <point x="1470" y="452"/>
      <point x="1341" y="236"/>
      <point x="1137" y="117" type="curve" smooth="yes"/>
      <point x="1034" y="58"/>
      <point x="923" y="28"/>
      <point x="802" y="28" type="curve" smooth="yes"/>
      <point x="562" y="28"/>
      <point x="346" y="155"/>
      <point x="226" y="359" type="curve" smooth="yes"/>
      <point x="166" y="461"/>
      <point x="136" y="572"/>
      <point x="136" y="693" type="curve" smooth="yes"/>
      <point x="136" y="936"/>
      <point x="265" y="1150"/>
      <point x="469" y="1269" type="curve" smooth="yes"/>
      <point x="571" y="1328"/>
      <point x="682" y="1358"/>
      <point x="802" y="1358" type="curve" smooth="yes"/>
    </contour>
    <contour>
      <point x="1003" y="136"/>
      <point x="1180" y="243"/>
      <point x="1277" y="414" type="curve" smooth="yes"/>
      <point x="1326" y="499"/>
      <point x="1350" y="592"/>
      <point x="1350" y="693" type="curve" smooth="yes"/>
      <point x="1350" y="896"/>
      <point x="1246" y="1075"/>
      <point x="1079" y="1175" type="curve" smooth="yes"/>
      <point x="995" y="1225"/>
      <point x="903" y="1250"/>
      <point x="802" y="1250" type="curve" smooth="yes"/>
      <point x="602" y="1250"/>
      <point x="425" y="1143"/>
      <point x="328" y="973" type="curve" smooth="yes"/>
      <point x="279" y="888"/>
      <point x="255" y="794"/>
      <point x="255" y="693" type="curve" smooth="yes"/>
      <point x="255" y="492"/>
      <point x="359" y="311"/>
      <point x="527" y="211" type="curve" smooth="yes"/>
      <point x="610" y="161"/>
      <point x="702" y="136"/>
      <point x="802" y="136" type="curve" smooth="yes"/>
    </contour>
    <contour>
      <point x="555" y="403" type="line"/>
      <point x="555" y="975" type="line"/>
      <point x="483" y="994" type="line"/>
      <point x="483" y="1066" type="line"/>
      <point x="616" y="1066" type="line"/>
      <point x="647" y="1066" type="line" smooth="yes"/>
      <point x="656" y="1066"/>
      <point x="674" y="1066"/>
      <point x="701" y="1067" type="curve" smooth="yes"/>
      <point x="761" y="1070"/>
      <point x="801" y="1071"/>
      <point x="820" y="1071" type="curve" smooth="yes"/>
      <point x="1003" y="1071"/>
      <point x="1106" y="993"/>
      <point x="1109" y="872" type="curve" smooth="yes"/>
      <point x="1109" y="797"/>
      <point x="1100" y="746"/>
      <point x="1046" y="697" type="curve" smooth="yes"/>
      <point x="1019" y="672"/>
      <point x="978" y="651"/>
      <point x="924" y="634" type="curve"/>
      <point x="983" y="601"/>
      <point x="1010" y="559"/>
      <point x="1045" y="490" type="curve" smooth="yes"/>
      <point x="1069" y="445"/>
      <point x="1085" y="419"/>
      <point x="1110" y="400" type="curve"/>
      <point x="1124" y="393"/>
      <point x="1138" y="390"/>
      <point x="1151" y="390" type="curve"/>
      <point x="1151" y="322" type="line"/>
      <point x="970" y="322" type="line" smooth="yes"/>
      <point x="955" y="322"/>
      <point x="944" y="329"/>
      <point x="935" y="343" type="curve" smooth="yes"/>
      <point x="926" y="356"/>
      <point x="914" y="380"/>
      <point x="901" y="413" type="curve" smooth="yes"/>
      <point x="865" y="500"/>
      <point x="837" y="558"/>
      <point x="777" y="619" type="curve"/>
      <point x="717" y="619" type="line"/>
      <point x="717" y="403" type="line"/>
      <point x="796" y="386" type="line"/>
      <point x="796" y="322" type="line"/>
      <point x="483" y="322" type="line"/>
      <point x="483" y="386" type="line"/>
    </contour>
    <contour>
      <point x="892" y="722"/>
      <point x="931" y="777"/>
      <point x="931" y="854" type="curve" smooth="yes"/>
      <point x="931" y="931"/>
      <point x="881" y="968"/>
      <point x="797" y="968" type="curve" smooth="yes"/>
      <point x="792" y="968"/>
      <point x="785" y="968"/>
      <point x="776" y="968" type="curve" smooth="yes"/>
      <point x="757" y="968"/>
      <point x="741" y="964"/>
      <point x="717" y="959" type="curve"/>
      <point x="717" y="729" type="line"/>
      <point x="740" y="724"/>
      <point x="774" y="722"/>
      <point x="819" y="722" type="curve" smooth="yes"/>
    </contour>
  </outline>
</glyph>
<glyph name="macron" format="1">
  <advance width="528"/>
  <unicode hex="00AF"/>
  <note>
	macron
  </note>
  <outline>
    <contour>
      <point x="518" y="1388" type="line"/>
      <point x="501" y="1208" type="line"/>
      <point x="9" y="1208" type="line"/>
      <point x="27" y="1388" type="line"/>
    </contour>
  </outline>
</glyph>
<glyph name="degree" format="1">
  <advance width="823"/>
  <unicode hex="00B0"/>
  <note>
	degree
  </note>
  <outline>
    <contour>
      <point x="157" y="1206"/>
      <point x="213" y="1303"/>
      <point x="308" y="1355" type="curve" smooth="yes"/>
      <point x="355" y="1381"/>
      <point x="408" y="1394"/>
      <point x="467" y="1394" type="curve" smooth="yes"/>
      <point x="578" y="1394"/>
      <point x="672" y="1339"/>
      <point x="724" y="1250" type="curve" smooth="yes"/>
      <point x="749" y="1205"/>
      <point x="762" y="1157"/>
      <point x="762" y="1104" type="curve" smooth="yes"/>
      <point x="762" y="991"/>
      <point x="704" y="895"/>
      <point x="609" y="843" type="curve" smooth="yes"/>
      <point x="562" y="816"/>
      <point x="508" y="803"/>
      <point x="449" y="803" type="curve" smooth="yes"/>
      <point x="338" y="803"/>
      <point x="246" y="860"/>
      <point x="195" y="949" type="curve" smooth="yes"/>
      <point x="170" y="993"/>
      <point x="157" y="1041"/>
      <point x="157" y="1094" type="curve" smooth="yes"/>
    </contour>
    <contour>
      <point x="611" y="1160"/>
      <point x="582" y="1210"/>
      <point x="537" y="1238" type="curve" smooth="yes"/>
      <point x="514" y="1252"/>
      <point x="489" y="1259"/>
      <point x="462" y="1259" type="curve" smooth="yes"/>
      <point x="403" y="1259"/>
      <point x="354" y="1229"/>
      <point x="328" y="1179" type="curve" smooth="yes"/>
      <point x="315" y="1154"/>
      <point x="308" y="1126"/>
      <point x="308" y="1096" type="curve" smooth="yes"/>
      <point x="308" y="1039"/>
      <point x="336" y="987"/>
      <point x="381" y="959" type="curve" smooth="yes"/>
      <point x="404" y="945"/>
      <point x="429" y="938"/>
      <point x="456" y="938" type="curve" smooth="yes"/>
      <point x="515" y="938"/>
      <point x="563" y="969"/>
      <point x="591" y="1019" type="curve" smooth="yes"/>
      <point x="604" y="1044"/>
      <point x="611" y="1072"/>
      <point x="611" y="1103" type="curve" smooth="yes"/>
    </contour>
  </outline>
</glyph>
<glyph name="plusminus" format="1">
  <advance width="1143"/>
  <unicode hex="00B1"/>
  <note>
	plusminus
  </note>
  <outline>
    <contour>
      <point x="502" y="585" type="line"/>
      <point x="381" y="579" type="line"/>
      <point x="213" y="579" type="line"/>
      <point x="229" y="749" type="line"/>
      <point x="415" y="749" type="line"/>
      <point x="533" y="740" type="line"/>
      <point x="544" y="882" type="line"/>
      <point x="568" y="1079" type="line"/>
      <point x="755" y="1079" type="line"/>
      <point x="733" y="882" type="line"/>
      <point x="708" y="740" type="line"/>
      <point x="807" y="749" type="line"/>
      <point x="1000" y="749" type="line"/>
      <point x="985" y="579" type="line"/>
      <point x="774" y="579" type="line"/>
      <point x="678" y="585" type="line"/>
      <point x="677" y="558"/>
      <point x="676" y="530"/>
      <point x="673" y="501" type="curve" smooth="yes"/>
      <point x="669" y="444" type="line"/>
      <point x="645" y="236" type="line"/>
      <point x="457" y="236" type="line"/>
      <point x="480" y="444" type="line"/>
    </contour>
    <contour>
      <point x="900" y="155" type="line"/>
      <point x="885" y="0" type="line"/>
      <point x="155" y="0" type="line"/>
      <point x="169" y="155" type="line"/>
    </contour>
  </outline>
</glyph>
<glyph name="uni00B2" format="1">
  <advance width="903"/>
  <unicode hex="00B2"/>
  <note>
	uni00B2
  </note>
  <outline>
    <contour>
      <point x="101" y="701" type="line"/>
      <point x="214" y="766"/>
      <point x="373" y="876"/>
      <point x="489" y="1009" type="curve" smooth="yes"/>
      <point x="547" y="1076"/>
      <point x="576" y="1139"/>
      <point x="576" y="1198" type="curve" smooth="yes"/>
      <point x="576" y="1287"/>
      <point x="531" y="1331"/>
      <point x="450" y="1331" type="curve" smooth="yes"/>
      <point x="366" y="1331"/>
      <point x="278" y="1287"/>
      <point x="235" y="1242" type="curve"/>
      <point x="166" y="1324" type="line"/>
      <point x="199" y="1365"/>
      <point x="284" y="1416"/>
      <point x="384" y="1448" type="curve" smooth="yes"/>
      <point x="433" y="1463"/>
      <point x="482" y="1471"/>
      <point x="531" y="1471" type="curve" smooth="yes"/>
      <point x="728" y="1471"/>
      <point x="827" y="1400"/>
      <point x="827" y="1259" type="curve" smooth="yes"/>
      <point x="827" y="1134"/>
      <point x="713" y="1001"/>
      <point x="557" y="890" type="curve" smooth="yes"/>
      <point x="479" y="835"/>
      <point x="397" y="785"/>
      <point x="310" y="742" type="curve"/>
      <point x="703" y="793" type="line"/>
      <point x="754" y="881" type="line"/>
      <point x="847" y="860" type="line"/>
      <point x="791" y="605" type="line"/>
      <point x="141" y="605" type="line"/>
    </contour>
  </outline>
</glyph>
<glyph name="uni00B3" format="1">
  <advance width="903"/>
  <unicode hex="00B3"/>
  <note>
	uni00B3
  </note>
  <outline>
    <contour>
      <point x="145" y="758" type="line"/>
      <point x="198" y="739"/>
      <point x="304" y="726"/>
      <point x="375" y="726" type="curve" smooth="yes"/>
      <point x="512" y="726"/>
      <point x="580" y="788"/>
      <point x="580" y="877" type="curve" smooth="yes"/>
      <point x="580" y="920"/>
      <point x="558" y="956"/>
      <point x="521" y="977" type="curve" smooth="yes"/>
      <point x="502" y="987"/>
      <point x="481" y="992"/>
      <point x="458" y="992" type="curve" smooth="yes"/>
      <point x="453" y="992"/>
      <point x="449" y="992"/>
      <point x="446" y="991" type="curve" smooth="yes"/>
      <point x="348" y="962" type="line"/>
      <point x="324" y="1074" type="line"/>
      <point x="399" y="1095"/>
      <point x="468" y="1130"/>
      <point x="513" y="1180" type="curve" smooth="yes"/>
      <point x="535" y="1205"/>
      <point x="546" y="1232"/>
      <point x="546" y="1263" type="curve" smooth="yes"/>
      <point x="546" y="1313"/>
      <point x="512" y="1338"/>
      <point x="445" y="1338" type="curve" smooth="yes"/>
      <point x="373" y="1338"/>
      <point x="318" y="1313"/>
      <point x="251" y="1265" type="curve"/>
      <point x="201" y="1364" type="line"/>
      <point x="274" y="1427"/>
      <point x="404" y="1473"/>
      <point x="540" y="1473" type="curve" smooth="yes"/>
      <point x="640" y="1473"/>
      <point x="718" y="1443"/>
      <point x="759" y="1395" type="curve" smooth="yes"/>
      <point x="779" y="1370"/>
      <point x="789" y="1342"/>
      <point x="789" y="1310" type="curve" smooth="yes"/>
      <point x="789" y="1214"/>
      <point x="738" y="1137"/>
      <point x="563" y="1074" type="curve"/>
      <point x="578" y="1075"/>
      <point x="589" y="1076"/>
      <point x="597" y="1076" type="curve" smooth="yes"/>
      <point x="677" y="1076"/>
      <point x="752" y="1047"/>
      <point x="796" y="988" type="curve" smooth="yes"/>
      <point x="818" y="959"/>
      <point x="829" y="923"/>
      <point x="829" y="881" type="curve" smooth="yes"/>
      <point x="829" y="773"/>
      <point x="758" y="682"/>
      <point x="623" y="631" type="curve" smooth="yes"/>
      <point x="556" y="605"/>
      <point x="476" y="592"/>
      <point x="383" y="592" type="curve" smooth="yes"/>
      <point x="303" y="592"/>
      <point x="208" y="608"/>
      <point x="133" y="641" type="curve"/>
    </contour>
  </outline>
</glyph>
<glyph name="acute" format="1">
  <advance width="480"/>
  <unicode hex="00B4"/>
  <note>
	acute
  </note>
  <outline>
    <contour>
      <point x="316" y="1499" type="line"/>
      <point x="481" y="1338" type="line"/>
      <point x="460" y="1299"/>
      <point x="360" y="1208"/>
      <point x="257" y="1134" type="curve" smooth="yes"/>
      <point x="206" y="1097"/>
      <point x="164" y="1072"/>
      <point x="132" y="1059" type="curve"/>
      <point x="43" y="1128" type="line"/>
    </contour>
  </outline>
</glyph>
<glyph name="uni00B5" format="1">
  <advance width="1173"/>
  <unicode hex="00B5"/>
  <note>
	uni00B5
  </note>
  <outline>
    <contour>
      <point x="35" y="-320" type="line"/>
      <point x="128" y="308" type="line" smooth="yes"/>
      <point x="136" y="371"/>
      <point x="151" y="459"/>
      <point x="156" y="486" type="curve" smooth="yes"/>
      <point x="179" y="635"/>
      <point x="189" y="697"/>
      <point x="197" y="794" type="curve"/>
      <point x="197" y="827"/>
      <point x="185" y="844"/>
      <point x="160" y="844" type="curve" smooth="yes"/>
      <point x="141" y="844"/>
      <point x="119" y="835"/>
      <point x="96" y="816" type="curve"/>
      <point x="71" y="884" type="line"/>
      <point x="74" y="887"/>
      <point x="85" y="898"/>
      <point x="104" y="919" type="curve"/>
      <point x="143" y="959"/>
      <point x="231" y="1000"/>
      <point x="335" y="1000" type="curve" smooth="yes"/>
      <point x="430" y="1000"/>
      <point x="493" y="968"/>
      <point x="489" y="889" type="curve" smooth="yes"/>
      <point x="485" y="809"/>
      <point x="473" y="723"/>
      <point x="452" y="586" type="curve" smooth="yes"/>
      <point x="446" y="553"/>
      <point x="443" y="534"/>
      <point x="442" y="527" type="curve" smooth="yes"/>
      <point x="425" y="431"/>
      <point x="418" y="381"/>
      <point x="418" y="304" type="curve" smooth="yes"/>
      <point x="418" y="188"/>
      <point x="465" y="146"/>
      <point x="524" y="146" type="curve" smooth="yes"/>
      <point x="567" y="146"/>
      <point x="596" y="164"/>
      <point x="616" y="185" type="curve" smooth="yes"/>
      <point x="625" y="195"/>
      <point x="637" y="209"/>
      <point x="650" y="227" type="curve"/>
      <point x="653" y="232"/>
      <point x="658" y="239"/>
      <point x="665" y="248" type="curve"/>
      <point x="767" y="993" type="line"/>
      <point x="1047" y="993" type="line"/>
      <point x="937" y="195" type="line" smooth="yes"/>
      <point x="936" y="186"/>
      <point x="936" y="179"/>
      <point x="936" y="176" type="curve" smooth="yes"/>
      <point x="936" y="145"/>
      <point x="948" y="130"/>
      <point x="972" y="130" type="curve" smooth="yes"/>
      <point x="989" y="130"/>
      <point x="1016" y="143"/>
      <point x="1051" y="169" type="curve"/>
      <point x="1075" y="107" type="line"/>
      <point x="1056" y="75"/>
      <point x="1010" y="32"/>
      <point x="943" y="4" type="curve" smooth="yes"/>
      <point x="910" y="-10"/>
      <point x="873" y="-17"/>
      <point x="834" y="-17" type="curve" smooth="yes"/>
      <point x="751" y="-17"/>
      <point x="710" y="16"/>
      <point x="710" y="82" type="curve" smooth="yes"/>
      <point x="710" y="91"/>
      <point x="710" y="97"/>
      <point x="711" y="101" type="curve"/>
      <point x="706" y="97"/>
      <point x="701" y="91"/>
      <point x="696" y="83" type="curve"/>
      <point x="663" y="46"/>
      <point x="637" y="20"/>
      <point x="585" y="-1" type="curve" smooth="yes"/>
      <point x="559" y="-12"/>
      <point x="529" y="-17"/>
      <point x="494" y="-17" type="curve" smooth="yes"/>
      <point x="421" y="-17"/>
      <point x="341" y="8"/>
      <point x="316" y="48" type="curve"/>
      <point x="263" y="-320" type="line"/>
    </contour>
  </outline>
</glyph>
<glyph name="paragraph" format="1">
  <advance width="1173"/>
  <unicode hex="00B6"/>
  <note>
	paragraph
  </note>
  <outline>
    <contour>
      <point x="300" y="101" type="line"/>
      <point x="363" y="583" type="line"/>
      <point x="251" y="583"/>
      <point x="149" y="648"/>
      <point x="94" y="753" type="curve" smooth="yes"/>
      <point x="66" y="805"/>
      <point x="52" y="862"/>
      <point x="52" y="923" type="curve" smooth="yes"/>
      <point x="52" y="1204"/>
      <point x="230" y="1351"/>
      <point x="615" y="1351" type="curve" smooth="yes"/>
      <point x="672" y="1351"/>
      <point x="734" y="1348"/>
      <point x="801" y="1343" type="curve" smooth="yes"/>
      <point x="814" y="1342"/>
      <point x="837" y="1341"/>
      <point x="871" y="1339" type="curve" smooth="yes"/>
      <point x="905" y="1337"/>
      <point x="942" y="1336"/>
      <point x="981" y="1335" type="curve" smooth="yes"/>
      <point x="1237" y="1335" type="line"/>
      <point x="1227" y="1246" type="line"/>
      <point x="1084" y="1218" type="line"/>
      <point x="1073" y="1129"/>
      <point x="1061" y="1027"/>
      <point x="1046" y="910" type="curve" smooth="yes"/>
      <point x="1031" y="793"/>
      <point x="1020" y="710"/>
      <point x="1014" y="663" type="curve" smooth="yes"/>
      <point x="981" y="408"/>
      <point x="957" y="220"/>
      <point x="943" y="100" type="curve"/>
      <point x="1076" y="74" type="line"/>
      <point x="1068" y="0" type="line"/>
      <point x="689" y="0" type="line"/>
      <point x="839" y="1216" type="line"/>
      <point x="673" y="1216" type="line"/>
      <point x="520" y="0" type="line"/>
      <point x="117" y="0" type="line"/>
      <point x="124" y="75" type="line"/>
    </contour>
  </outline>
</glyph>
<glyph name="periodcentered" format="1">
  <advance width="615"/>
  <unicode hex="00B7"/>
  <note>
	periodcentered
  </note>
  <outline>
    <contour>
      <point x="365" y="720"/>
      <point x="405" y="693"/>
      <point x="425" y="650" type="curve" smooth="yes"/>
      <point x="434" y="629"/>
      <point x="439" y="606"/>
      <point x="439" y="582" type="curve" smooth="yes"/>
      <point x="439" y="507"/>
      <point x="401" y="456"/>
      <point x="348" y="430" type="curve" smooth="yes"/>
      <point x="321" y="417"/>
      <point x="294" y="410"/>
      <point x="265" y="410" type="curve" smooth="yes"/>
      <point x="222" y="410"/>
      <point x="184" y="435"/>
      <point x="163" y="478" type="curve" smooth="yes"/>
      <point x="152" y="499"/>
      <point x="147" y="523"/>
      <point x="147" y="548" type="curve" smooth="yes"/>
      <point x="147" y="617"/>
      <point x="184" y="671"/>
      <point x="234" y="699" type="curve" smooth="yes"/>
      <point x="259" y="713"/>
      <point x="285" y="720"/>
      <point x="312" y="720" type="curve" smooth="yes"/>
    </contour>
  </outline>
</glyph>
<glyph name="cedilla" format="1">
  <advance width="411"/>
  <unicode hex="00B8"/>
  <note>
	cedilla
  </note>
  <outline>
    <contour>
      <point x="348" y="26" type="line"/>
      <point x="372" y="-7"/>
      <point x="396" y="-125"/>
      <point x="396" y="-205" type="curve" smooth="yes"/>
      <point x="396" y="-340"/>
      <point x="319" y="-416"/>
      <point x="139" y="-416" type="curve" smooth="yes"/>
      <point x="87" y="-416"/>
      <point x="-14" y="-405"/>
      <point x="-31" y="-392" type="curve"/>
      <point x="-1" y="-261" type="line"/>
      <point x="14" y="-269"/>
      <point x="39" y="-274"/>
      <point x="66" y="-274" type="curve" smooth="yes"/>
      <point x="162" y="-274"/>
      <point x="219" y="-236"/>
      <point x="224" y="-132" type="curve"/>
      <point x="224" y="-126"/>
      <point x="224" y="-117"/>
      <point x="224" y="-105" type="curve" smooth="yes"/>
      <point x="224" y="-61"/>
      <point x="220" y="-17"/>
      <point x="211" y="26" type="curve"/>
      <point x="277" y="29" type="line"/>
    </contour>
  </outline>
</glyph>
<glyph name="uni00B9" format="1">
  <advance width="903"/>
  <unicode hex="00B9"/>
  <note>
	uni00B9
  </note>
  <outline>
    <contour>
      <point x="361" y="737" type="line"/>
      <point x="420" y="1229" type="line"/>
      <point x="373" y="1206"/>
      <point x="280" y="1183"/>
      <point x="209" y="1179" type="curve"/>
      <point x="194" y="1291" type="line"/>
      <point x="245" y="1298"/>
      <point x="361" y="1345"/>
      <point x="460" y="1398" type="curve" smooth="yes"/>
      <point x="509" y="1425"/>
      <point x="546" y="1449"/>
      <point x="569" y="1471" type="curve"/>
      <point x="571" y="1471" type="line"/>
      <point x="687" y="1449" type="line"/>
      <point x="601" y="737" type="line"/>
      <point x="799" y="717" type="line"/>
      <point x="784" y="605" type="line"/>
      <point x="152" y="605" type="line"/>
      <point x="168" y="717" type="line"/>
    </contour>
  </outline>
</glyph>
<glyph name="ordmasculine" format="1">
  <advance width="734"/>
  <unicode hex="00BA"/>
  <note>
	ordmasculine
  </note>
  <outline>
    <contour>
      <point x="50" y="1110"/>
      <point x="137" y="1245"/>
      <point x="265" y="1315" type="curve" smooth="yes"/>
      <point x="329" y="1350"/>
      <point x="396" y="1367"/>
      <point x="467" y="1367" type="curve" smooth="yes"/>
      <point x="595" y="1367"/>
      <point x="691" y="1312"/>
      <point x="740" y="1220" type="curve" smooth="yes"/>
      <point x="765" y="1174"/>
      <point x="777" y="1121"/>
      <point x="777" y="1061" type="curve" smooth="yes"/>
      <point x="777" y="881"/>
      <point x="693" y="749"/>
      <point x="565" y="681" type="curve" smooth="yes"/>
      <point x="501" y="647"/>
      <point x="431" y="630"/>
      <point x="355" y="630" type="curve" smooth="yes"/>
      <point x="238" y="630"/>
      <point x="141" y="682"/>
      <point x="89" y="774" type="curve" smooth="yes"/>
      <point x="63" y="820"/>
      <point x="50" y="873"/>
      <point x="50" y="933" type="curve" smooth="yes"/>
    </contour>
    <contour>
      <point x="548" y="1115"/>
      <point x="539" y="1171"/>
      <point x="522" y="1213" type="curve" smooth="yes"/>
      <point x="487" y="1296"/>
      <point x="401" y="1291"/>
      <point x="349" y="1224" type="curve" smooth="yes"/>
      <point x="297" y="1157"/>
      <point x="277" y="1053"/>
      <point x="277" y="949" type="curve" smooth="yes"/>
      <point x="277" y="860"/>
      <point x="293" y="792"/>
      <point x="320" y="757" type="curve" smooth="yes"/>
      <point x="333" y="739"/>
      <point x="348" y="730"/>
      <point x="365" y="729" type="curve"/>
      <point x="498" y="728"/>
      <point x="548" y="866"/>
      <point x="548" y="1046" type="curve" smooth="yes"/>
    </contour>
  </outline>
</glyph>
<glyph name="guillemotright" format="1">
  <advance width="1615"/>
  <unicode hex="00BB"/>
  <note>
	guillemotright
  </note>
  <outline>
    <contour>
      <point x="137" y="122" type="line"/>
      <point x="87" y="273" type="line"/>
      <point x="482" y="544" type="line"/>
      <point x="161" y="812" type="line"/>
      <point x="247" y="943" type="line"/>
      <point x="785" y="609" type="line"/>
      <point x="766" y="471" type="line"/>
    </contour>
    <contour>
      <point x="718" y="122" type="line"/>
      <point x="668" y="273" type="line"/>
      <point x="1064" y="544" type="line"/>
      <point x="742" y="812" type="line"/>
      <point x="828" y="943" type="line"/>
      <point x="1367" y="609" type="line"/>
      <point x="1348" y="471" type="line"/>
    </contour>
  </outline>
</glyph>
<glyph name="onequarter" format="1">
  <advance width="2218"/>
  <unicode hex="00BC"/>
  <note>
	onequarter
  </note>
  <outline>
    <contour>
      <point x="364" y="587" type="line"/>
      <point x="423" y="1079" type="line"/>
      <point x="376" y="1056"/>
      <point x="283" y="1033"/>
      <point x="212" y="1029" type="curve"/>
      <point x="197" y="1141" type="line"/>
      <point x="248" y="1148"/>
      <point x="364" y="1195"/>
      <point x="463" y="1248" type="curve" smooth="yes"/>
      <point x="512" y="1275"/>
      <point x="549" y="1299"/>
      <point x="572" y="1321" type="curve"/>
      <point x="574" y="1321" type="line"/>
      <point x="690" y="1299" type="line"/>
      <point x="604" y="587" type="line"/>
      <point x="802" y="567" type="line"/>
      <point x="787" y="455" type="line"/>
      <point x="155" y="455" type="line"/>
      <point x="171" y="567" type="line"/>
    </contour>
    <contour>
      <point x="1673" y="951" type="line"/>
      <point x="1725" y="951" type="line"/>
      <point x="1866" y="857" type="line"/>
      <point x="1470" y="365" type="line"/>
      <point x="1396" y="288" type="line"/>
      <point x="1681" y="304" type="line"/>
      <point x="1710" y="506" type="line"/>
      <point x="1891" y="523" type="line"/>
      <point x="1861" y="314" type="line"/>
      <point x="1995" y="322" type="line"/>
      <point x="1977" y="156" type="line"/>
      <point x="1839" y="156" type="line"/>
      <point x="1816" y="-13" type="line"/>
      <point x="1636" y="-13" type="line"/>
      <point x="1660" y="156" type="line"/>
      <point x="1240" y="156" type="line"/>
      <point x="1194" y="273" type="line"/>
    </contour>
    <contour>
      <point x="1400" y="1316" type="line"/>
      <point x="814" y="0" type="line"/>
      <point x="643" y="0" type="line"/>
      <point x="1228" y="1316" type="line"/>
    </contour>
  </outline>
</glyph>
<glyph name="onehalf" format="1">
  <advance width="2218"/>
  <unicode hex="00BD"/>
  <note>
	onehalf
  </note>
  <outline>
    <contour>
      <point x="364" y="587" type="line"/>
      <point x="423" y="1079" type="line"/>
      <point x="376" y="1056"/>
      <point x="283" y="1033"/>
      <point x="212" y="1029" type="curve"/>
      <point x="197" y="1141" type="line"/>
      <point x="248" y="1148"/>
      <point x="364" y="1195"/>
      <point x="463" y="1248" type="curve" smooth="yes"/>
      <point x="512" y="1275"/>
      <point x="549" y="1299"/>
      <point x="572" y="1321" type="curve"/>
      <point x="574" y="1321" type="line"/>
      <point x="690" y="1299" type="line"/>
      <point x="604" y="587" type="line"/>
      <point x="802" y="567" type="line"/>
      <point x="787" y="455" type="line"/>
      <point x="155" y="455" type="line"/>
      <point x="171" y="567" type="line"/>
    </contour>
    <contour>
      <point x="1431" y="1316" type="line"/>
      <point x="845" y="0" type="line"/>
      <point x="674" y="0" type="line"/>
      <point x="1259" y="1316" type="line"/>
    </contour>
    <contour>
      <point x="1262" y="96" type="line"/>
      <point x="1375" y="161"/>
      <point x="1534" y="271"/>
      <point x="1650" y="404" type="curve" smooth="yes"/>
      <point x="1708" y="471"/>
      <point x="1737" y="534"/>
      <point x="1737" y="593" type="curve" smooth="yes"/>
      <point x="1737" y="682"/>
      <point x="1692" y="726"/>
      <point x="1611" y="726" type="curve" smooth="yes"/>
      <point x="1527" y="726"/>
      <point x="1439" y="682"/>
      <point x="1396" y="637" type="curve"/>
      <point x="1327" y="719" type="line"/>
      <point x="1360" y="760"/>
      <point x="1445" y="811"/>
      <point x="1545" y="843" type="curve" smooth="yes"/>
      <point x="1594" y="858"/>
      <point x="1643" y="866"/>
      <point x="1692" y="866" type="curve" smooth="yes"/>
      <point x="1889" y="866"/>
      <point x="1988" y="795"/>
      <point x="1988" y="654" type="curve" smooth="yes"/>
      <point x="1988" y="529"/>
      <point x="1874" y="396"/>
      <point x="1718" y="285" type="curve" smooth="yes"/>
      <point x="1640" y="230"/>
      <point x="1558" y="180"/>
      <point x="1471" y="137" type="curve"/>
      <point x="1864" y="188" type="line"/>
      <point x="1915" y="276" type="line"/>
      <point x="2008" y="255" type="line"/>
      <point x="1952" y="0" type="line"/>
      <point x="1302" y="0" type="line"/>
    </contour>
  </outline>
</glyph>
<glyph name="threequarters" format="1">
  <advance width="2218"/>
  <unicode hex="00BE"/>
  <note>
	threequarters
  </note>
  <outline>
    <contour>
      <point x="166" y="608" type="line"/>
      <point x="219" y="589"/>
      <point x="325" y="576"/>
      <point x="396" y="576" type="curve" smooth="yes"/>
      <point x="533" y="576"/>
      <point x="601" y="638"/>
      <point x="601" y="727" type="curve" smooth="yes"/>
      <point x="601" y="770"/>
      <point x="579" y="806"/>
      <point x="542" y="827" type="curve" smooth="yes"/>
      <point x="523" y="837"/>
      <point x="502" y="842"/>
      <point x="479" y="842" type="curve" smooth="yes"/>
      <point x="474" y="842"/>
      <point x="470" y="842"/>
      <point x="467" y="841" type="curve" smooth="yes"/>
      <point x="369" y="812" type="line"/>
      <point x="345" y="924" type="line"/>
      <point x="420" y="945"/>
      <point x="489" y="980"/>
      <point x="534" y="1030" type="curve" smooth="yes"/>
      <point x="556" y="1055"/>
      <point x="567" y="1082"/>
      <point x="567" y="1113" type="curve" smooth="yes"/>
      <point x="567" y="1163"/>
      <point x="533" y="1188"/>
      <point x="466" y="1188" type="curve" smooth="yes"/>
      <point x="394" y="1188"/>
      <point x="339" y="1163"/>
      <point x="272" y="1115" type="curve"/>
      <point x="222" y="1214" type="line"/>
      <point x="295" y="1277"/>
      <point x="425" y="1323"/>
      <point x="561" y="1323" type="curve" smooth="yes"/>
      <point x="661" y="1323"/>
      <point x="739" y="1293"/>
      <point x="780" y="1245" type="curve" smooth="yes"/>
      <point x="800" y="1220"/>
      <point x="810" y="1192"/>
      <point x="810" y="1160" type="curve" smooth="yes"/>
      <point x="810" y="1064"/>
      <point x="759" y="987"/>
      <point x="584" y="924" type="curve"/>
      <point x="599" y="925"/>
      <point x="610" y="926"/>
      <point x="618" y="926" type="curve" smooth="yes"/>
      <point x="698" y="926"/>
      <point x="773" y="897"/>
      <point x="817" y="838" type="curve" smooth="yes"/>
      <point x="839" y="809"/>
      <point x="850" y="773"/>
      <point x="850" y="731" type="curve" smooth="yes"/>
      <point x="850" y="623"/>
      <point x="779" y="532"/>
      <point x="644" y="481" type="curve" smooth="yes"/>
      <point x="577" y="455"/>
      <point x="497" y="442"/>
      <point x="404" y="442" type="curve" smooth="yes"/>
      <point x="324" y="442"/>
      <point x="229" y="458"/>
      <point x="154" y="491" type="curve"/>
    </contour>
    <contour>
      <point x="1673" y="951" type="line"/>
      <point x="1725" y="951" type="line"/>
      <point x="1866" y="857" type="line"/>
      <point x="1470" y="365" type="line"/>
      <point x="1396" y="288" type="line"/>
      <point x="1681" y="304" type="line"/>
      <point x="1710" y="506" type="line"/>
      <point x="1891" y="523" type="line"/>
      <point x="1861" y="314" type="line"/>
      <point x="1995" y="322" type="line"/>
      <point x="1977" y="156" type="line"/>
      <point x="1839" y="156" type="line"/>
      <point x="1816" y="-13" type="line"/>
      <point x="1636" y="-13" type="line"/>
      <point x="1660" y="156" type="line"/>
      <point x="1240" y="156" type="line"/>
      <point x="1194" y="273" type="line"/>
    </contour>
    <contour>
      <point x="1438" y="1316" type="line"/>
      <point x="852" y="0" type="line"/>
      <point x="681" y="0" type="line"/>
      <point x="1266" y="1316" type="line"/>
    </contour>
  </outline>
</glyph>
<glyph name="questiondown" format="1">
  <advance width="828"/>
  <unicode hex="00BF"/>
  <note>
	questiondown
  </note>
  <outline>
    <contour>
      <point x="693" y="793" type="line"/>
      <point x="696" y="728" type="line" smooth="yes"/>
      <point x="696" y="722"/>
      <point x="697" y="716"/>
      <point x="697" y="711" type="curve" smooth="yes"/>
      <point x="699" y="678"/>
      <point x="700" y="654"/>
      <point x="694" y="618" type="curve" smooth="yes"/>
      <point x="679" y="533"/>
      <point x="644" y="459"/>
      <point x="586" y="392" type="curve" smooth="yes"/>
      <point x="537" y="335"/>
      <point x="482" y="293"/>
      <point x="429" y="253" type="curve" smooth="yes"/>
      <point x="387" y="221"/>
      <point x="347" y="191"/>
      <point x="318" y="159" type="curve" smooth="yes"/>
      <point x="290" y="128"/>
      <point x="274" y="97"/>
      <point x="268" y="61" type="curve" smooth="yes"/>
      <point x="261" y="20"/>
      <point x="267" y="-11"/>
      <point x="285" y="-30" type="curve" smooth="yes"/>
      <point x="295" y="-40"/>
      <point x="309" y="-49"/>
      <point x="327" y="-54" type="curve" smooth="yes"/>
      <point x="349" y="-62"/>
      <point x="376" y="-65"/>
      <point x="409" y="-65" type="curve" smooth="yes"/>
      <point x="472" y="-65"/>
      <point x="547" y="-45"/>
      <point x="602" y="-13" type="curve" smooth="yes"/>
      <point x="695" y="41" type="line"/>
      <point x="735" y="-171" type="line"/>
      <point x="692" y="-202" type="line" smooth="yes"/>
      <point x="667" y="-221"/>
      <point x="614" y="-256"/>
      <point x="541" y="-285" type="curve" smooth="yes"/>
      <point x="467" y="-314"/>
      <point x="394" y="-328"/>
      <point x="321" y="-328" type="curve" smooth="yes"/>
      <point x="256" y="-328"/>
      <point x="197" y="-321"/>
      <point x="146" y="-305" type="curve" smooth="yes"/>
      <point x="93" y="-289"/>
      <point x="49" y="-264"/>
      <point x="14" y="-231" type="curve" smooth="yes"/>
      <point x="-22" y="-196"/>
      <point x="-46" y="-154"/>
      <point x="-59" y="-105" type="curve" smooth="yes"/>
      <point x="-71" y="-58"/>
      <point x="-72" y="-4"/>
      <point x="-62" y="53" type="curve" smooth="yes"/>
      <point x="-47" y="135"/>
      <point x="-7" y="208"/>
      <point x="60" y="277" type="curve" smooth="yes"/>
      <point x="115" y="333"/>
      <point x="180" y="377"/>
      <point x="243" y="421" type="curve" smooth="yes"/>
      <point x="298" y="458"/>
      <point x="350" y="494"/>
      <point x="389" y="533" type="curve" smooth="yes"/>
      <point x="426" y="570"/>
      <point x="447" y="606"/>
      <point x="454" y="645" type="curve" smooth="yes"/>
      <point x="455" y="653"/>
      <point x="455" y="655"/>
      <point x="455" y="662" type="curve" smooth="yes"/>
      <point x="455" y="666"/>
      <point x="454" y="672"/>
      <point x="455" y="680" type="curve" smooth="yes"/>
      <point x="455" y="691"/>
      <point x="455" y="702"/>
      <point x="455" y="714" type="curve" smooth="yes"/>
      <point x="459" y="793" type="line"/>
    </contour>
    <contour>
      <point x="704" y="1234"/>
      <point x="741" y="1219"/>
      <point x="768" y="1192" type="curve" smooth="yes"/>
      <point x="794" y="1165"/>
      <point x="808" y="1129"/>
      <point x="808" y="1091" type="curve"/>
      <point x="808" y="1084"/>
      <point x="807" y="1077"/>
      <point x="806" y="1069" type="curve" smooth="yes"/>
      <point x="795" y="1008"/>
      <point x="749" y="951"/>
      <point x="687" y="921" type="curve" smooth="yes"/>
      <point x="657" y="907"/>
      <point x="625" y="900"/>
      <point x="591" y="900" type="curve" smooth="yes"/>
      <point x="547" y="900"/>
      <point x="509" y="915"/>
      <point x="482" y="942" type="curve" smooth="yes"/>
      <point x="456" y="969"/>
      <point x="442" y="1006"/>
      <point x="442" y="1046" type="curve" smooth="yes"/>
      <point x="442" y="1048" type="line"/>
      <point x="442" y="1052" type="line" smooth="yes"/>
      <point x="443" y="1060"/>
      <point x="443" y="1067"/>
      <point x="445" y="1073" type="curve" smooth="yes"/>
      <point x="460" y="1160"/>
      <point x="536" y="1223"/>
      <point x="640" y="1232" type="curve" smooth="yes"/>
      <point x="641" y="1232"/>
      <point x="643" y="1232"/>
      <point x="645" y="1233" type="curve" smooth="yes"/>
      <point x="652" y="1233"/>
      <point x="658" y="1234"/>
      <point x="663" y="1234" type="curve" smooth="yes"/>
    </contour>
  </outline>
</glyph>
<glyph name="Atilde" format="1">
  <advance width="1161"/>
  <unicode hex="00C3"/>
  <note>
	Atilde
  </note>
  <outline>
    <contour>
      <point x="849" y="1309" type="line"/>
      <point x="1061" y="119" type="line"/>
      <point x="1200" y="91" type="line"/>
      <point x="1195" y="0" type="line"/>
      <point x="602" y="0" type="line"/>
      <point x="606" y="91" type="line"/>
      <point x="741" y="116" type="line"/>
      <point x="707" y="358" type="line"/>
      <point x="288" y="358" type="line"/>
      <point x="187" y="117" type="line"/>
      <point x="348" y="91" type="line"/>
      <point x="341" y="0" type="line"/>
      <point x="-138" y="0" type="line"/>
      <point x="-132" y="91" type="line"/>
      <point x="-13" y="116" type="line"/>
      <point x="550" y="1309" type="line"/>
    </contour>
    <contour>
      <point x="689" y="488" type="line"/>
      <point x="622" y="961" type="line"/>
      <point x="614" y="1125" type="line"/>
      <point x="343" y="488" type="line"/>
    </contour>
    <contour>
      <point x="403" y="1549" type="line"/>
      <point x="422" y="1598"/>
      <point x="465" y="1646"/>
      <point x="526" y="1674" type="curve" smooth="yes"/>
      <point x="556" y="1687"/>
      <point x="589" y="1694"/>
      <point x="624" y="1694" type="curve" smooth="yes"/>
      <point x="689" y="1694"/>
      <point x="725" y="1668"/>
      <point x="773" y="1619" type="curve" smooth="yes"/>
      <point x="812" y="1580"/>
      <point x="831" y="1565"/>
      <point x="864" y="1565" type="curve" smooth="yes"/>
      <point x="920" y="1565"/>
      <point x="959" y="1603"/>
      <point x="995" y="1651" type="curve"/>
      <point x="1071" y="1539" type="line"/>
      <point x="1051" y="1487"/>
      <point x="1005" y="1436"/>
      <point x="946" y="1406" type="curve" smooth="yes"/>
      <point x="916" y="1391"/>
      <point x="886" y="1383"/>
      <point x="855" y="1383" type="curve" smooth="yes"/>
      <point x="803" y="1383"/>
      <point x="765" y="1399"/>
      <point x="740" y="1419" type="curve"/>
      <point x="727" y="1428"/>
      <point x="713" y="1441"/>
      <point x="697" y="1457" type="curve" smooth="yes"/>
      <point x="658" y="1494"/>
      <point x="637" y="1512"/>
      <point x="594" y="1512" type="curve" smooth="yes"/>
      <point x="547" y="1512"/>
      <point x="510" y="1485"/>
      <point x="469" y="1442" type="curve"/>
    </contour>
  </outline>
</glyph>
<glyph name="Aring" format="1">
  <advance width="1161"/>
  <unicode hex="00C5"/>
  <note>
	Aring
  </note>
  <outline>
    <contour>
      <point x="548" y="1303" type="line"/>
      <point x="460" y="1332"/>
      <point x="409" y="1392"/>
      <point x="409" y="1480" type="curve" smooth="yes"/>
      <point x="409" y="1605"/>
      <point x="491" y="1678"/>
      <point x="595" y="1709" type="curve" smooth="yes"/>
      <point x="646" y="1724"/>
      <point x="698" y="1732"/>
      <point x="750" y="1732" type="curve" smooth="yes"/>
      <point x="851" y="1732"/>
      <point x="937" y="1704"/>
      <point x="984" y="1646" type="curve" smooth="yes"/>
      <point x="1007" y="1617"/>
      <point x="1019" y="1581"/>
      <point x="1019" y="1540" type="curve" smooth="yes"/>
      <point x="1019" y="1424"/>
      <point x="952" y="1348"/>
      <point x="848" y="1309" type="curve"/>
      <point x="849" y="1309" type="line"/>
      <point x="1061" y="119" type="line"/>
      <point x="1200" y="91" type="line"/>
      <point x="1195" y="0" type="line"/>
      <point x="602" y="0" type="line"/>
      <point x="606" y="91" type="line"/>
      <point x="741" y="116" type="line"/>
      <point x="707" y="358" type="line"/>
      <point x="288" y="358" type="line"/>
      <point x="187" y="117" type="line"/>
      <point x="348" y="91" type="line"/>
      <point x="341" y="0" type="line"/>
      <point x="-138" y="0" type="line"/>
      <point x="-132" y="91" type="line"/>
      <point x="-13" y="116" type="line"/>
    </contour>
    <contour>
      <point x="853" y="1556"/>
      <point x="827" y="1587"/>
      <point x="788" y="1603" type="curve" smooth="yes"/>
      <point x="769" y="1611"/>
      <point x="749" y="1615"/>
      <point x="728" y="1615" type="curve" smooth="yes"/>
      <point x="647" y="1615"/>
      <point x="576" y="1584"/>
      <point x="576" y="1500" type="curve" smooth="yes"/>
      <point x="576" y="1461"/>
      <point x="604" y="1430"/>
      <point x="644" y="1414" type="curve" smooth="yes"/>
      <point x="663" y="1406"/>
      <point x="683" y="1402"/>
      <point x="703" y="1402" type="curve" smooth="yes"/>
      <point x="803" y="1402"/>
      <point x="853" y="1440"/>
      <point x="853" y="1516" type="curve" smooth="yes"/>
    </contour>
    <contour>
      <point x="689" y="488" type="line"/>
      <point x="622" y="961" type="line"/>
      <point x="614" y="1125" type="line"/>
      <point x="343" y="488" type="line"/>
    </contour>
  </outline>
</glyph>
<glyph name="AE" format="1">
  <advance width="1730"/>
  <unicode hex="00C6"/>
  <note>
	AE
  </note>
  <outline>
    <contour>
      <point x="709" y="117" type="line"/>
      <point x="740" y="358" type="line"/>
      <point x="332" y="358" type="line"/>
      <point x="206" y="117" type="line"/>
      <point x="369" y="91" type="line"/>
      <point x="362" y="0" type="line"/>
      <point x="-177" y="0" type="line"/>
      <point x="-170" y="91" type="line"/>
      <point x="-35" y="117" type="line"/>
      <point x="590" y="1183" type="line"/>
      <point x="339" y="1206" type="line"/>
      <point x="352" y="1309" type="line"/>
      <point x="1696" y="1309" type="line"/>
      <point x="1665" y="991" type="line"/>
      <point x="1474" y="991" type="line"/>
      <point x="1445" y="1183" type="line"/>
      <point x="1153" y="1206" type="line"/>
      <point x="1090" y="746" type="line"/>
      <point x="1482" y="782" type="line"/>
      <point x="1452" y="585" type="line"/>
      <point x="1074" y="612" type="line"/>
      <point x="1007" y="117" type="line"/>
      <point x="1405" y="147" type="line"/>
      <point x="1506" y="402" type="line"/>
      <point x="1689" y="390" type="line"/>
      <point x="1629" y="0" type="line"/>
      <point x="559" y="0" type="line"/>
      <point x="571" y="91" type="line"/>
    </contour>
    <contour>
      <point x="400" y="488" type="line"/>
      <point x="757" y="488" type="line"/>
      <point x="851" y="1206" type="line"/>
      <point x="777" y="1206" type="line"/>
    </contour>
  </outline>
</glyph>
<glyph name="Egrave" format="1">
  <advance width="1122"/>
  <unicode hex="00C8"/>
  <note>
	Egrave
  </note>
  <outline>
    <contour>
      <point x="582" y="1732" type="line"/>
      <point x="819" y="1438" type="line"/>
      <point x="719" y="1350" type="line"/>
      <point x="660" y="1373"/>
      <point x="571" y="1425"/>
      <point x="499" y="1485" type="curve" smooth="yes"/>
      <point x="463" y="1515"/>
      <point x="437" y="1544"/>
      <point x="421" y="1573" type="curve"/>
    </contour>
    <contour>
      <point x="118" y="117" type="line"/>
      <point x="259" y="1192" type="line"/>
      <point x="134" y="1214" type="line"/>
      <point x="144" y="1309" type="line"/>
      <point x="1105" y="1309" type="line"/>
      <point x="1074" y="991" type="line"/>
      <point x="883" y="991" type="line"/>
      <point x="854" y="1183" type="line"/>
      <point x="562" y="1206" type="line"/>
      <point x="500" y="746" type="line"/>
      <point x="894" y="786" type="line"/>
      <point x="863" y="587" type="line"/>
      <point x="483" y="612" type="line"/>
      <point x="416" y="117" type="line"/>
      <point x="814" y="147" type="line"/>
      <point x="915" y="402" type="line"/>
      <point x="1098" y="390" type="line"/>
      <point x="1038" y="0" type="line"/>
      <point x="-32" y="0" type="line"/>
      <point x="-20" y="91" type="line"/>
    </contour>
  </outline>
</glyph>
<glyph name="Eacute" format="1">
  <advance width="1122"/>
  <unicode hex="00C9"/>
  <note>
	Eacute
  </note>
  <outline>
    <contour>
      <point x="865" y="1732" type="line"/>
      <point x="1026" y="1573" type="line"/>
      <point x="998" y="1520"/>
      <point x="918" y="1453"/>
      <point x="835" y="1404" type="curve" smooth="yes"/>
      <point x="793" y="1379"/>
      <point x="757" y="1361"/>
      <point x="728" y="1350" type="curve"/>
      <point x="628" y="1438" type="line"/>
    </contour>
    <contour>
      <point x="118" y="117" type="line"/>
      <point x="259" y="1192" type="line"/>
      <point x="134" y="1214" type="line"/>
      <point x="144" y="1309" type="line"/>
      <point x="1105" y="1309" type="line"/>
      <point x="1074" y="991" type="line"/>
      <point x="883" y="991" type="line"/>
      <point x="854" y="1183" type="line"/>
      <point x="562" y="1206" type="line"/>
      <point x="500" y="746" type="line"/>
      <point x="894" y="786" type="line"/>
      <point x="863" y="587" type="line"/>
      <point x="483" y="612" type="line"/>
      <point x="416" y="117" type="line"/>
      <point x="814" y="147" type="line"/>
      <point x="915" y="402" type="line"/>
      <point x="1098" y="390" type="line"/>
      <point x="1038" y="0" type="line"/>
      <point x="-32" y="0" type="line"/>
      <point x="-20" y="91" type="line"/>
    </contour>
  </outline>
</glyph>
<glyph name="Edieresis" format="1">
  <advance width="1122"/>
  <unicode hex="00CB"/>
  <note>
	Edieresis
  </note>
  <outline>
    <contour>
      <point x="398" y="1647"/>
      <point x="454" y="1706"/>
      <point x="543" y="1706" type="curve" smooth="yes"/>
      <point x="620" y="1706"/>
      <point x="665" y="1658"/>
      <point x="665" y="1589" type="curve" smooth="yes"/>
      <point x="665" y="1489"/>
      <point x="614" y="1428"/>
      <point x="514" y="1428" type="curve" smooth="yes"/>
      <point x="446" y="1428"/>
      <point x="398" y="1482"/>
      <point x="398" y="1551" type="curve" smooth="yes"/>
    </contour>
    <contour>
      <point x="787" y="1647"/>
      <point x="843" y="1706"/>
      <point x="931" y="1706" type="curve" smooth="yes"/>
      <point x="1010" y="1706"/>
      <point x="1053" y="1658"/>
      <point x="1053" y="1589" type="curve" smooth="yes"/>
      <point x="1053" y="1489"/>
      <point x="1003" y="1428"/>
      <point x="903" y="1428" type="curve" smooth="yes"/>
      <point x="835" y="1428"/>
      <point x="787" y="1482"/>
      <point x="787" y="1551" type="curve" smooth="yes"/>
    </contour>
    <contour>
      <point x="118" y="117" type="line"/>
      <point x="259" y="1192" type="line"/>
      <point x="134" y="1214" type="line"/>
      <point x="144" y="1309" type="line"/>
      <point x="1105" y="1309" type="line"/>
      <point x="1074" y="991" type="line"/>
      <point x="883" y="991" type="line"/>
      <point x="854" y="1183" type="line"/>
      <point x="562" y="1206" type="line"/>
      <point x="500" y="746" type="line"/>
      <point x="894" y="786" type="line"/>
      <point x="863" y="587" type="line"/>
      <point x="483" y="612" type="line"/>
      <point x="416" y="117" type="line"/>
      <point x="814" y="147" type="line"/>
      <point x="915" y="402" type="line"/>
      <point x="1098" y="390" type="line"/>
      <point x="1038" y="0" type="line"/>
      <point x="-32" y="0" type="line"/>
      <point x="-20" y="91" type="line"/>
    </contour>
  </outline>
</glyph>
<glyph name="Igrave" format="1">
  <advance width="659"/>
  <unicode hex="00CC"/>
  <note>
	Igrave
  </note>
  <outline>
    <contour>
      <point x="125" y="117" type="line"/>
      <point x="267" y="1192" type="line"/>
      <point x="140" y="1214" type="line"/>
      <point x="150" y="1309" type="line"/>
      <point x="728" y="1309" type="line"/>
      <point x="717" y="1214" type="line"/>
      <point x="569" y="1192" type="line"/>
      <point x="427" y="117" type="line"/>
      <point x="578" y="91" type="line"/>
      <point x="572" y="0" type="line"/>
      <point x="-15" y="0" type="line"/>
      <point x="-4" y="91" type="line"/>
    </contour>
    <contour>
      <point x="333" y="1732" type="line"/>
      <point x="570" y="1438" type="line"/>
      <point x="470" y="1350" type="line"/>
      <point x="411" y="1373"/>
      <point x="322" y="1425"/>
      <point x="250" y="1485" type="curve" smooth="yes"/>
      <point x="214" y="1515"/>
      <point x="188" y="1544"/>
      <point x="172" y="1573" type="curve"/>
    </contour>
  </outline>
</glyph>
<glyph name="Iacute" format="1">
  <advance width="659"/>
  <unicode hex="00CD"/>
  <note>
	Iacute
  </note>
  <outline>
    <contour>
      <point x="125" y="117" type="line"/>
      <point x="267" y="1192" type="line"/>
      <point x="140" y="1214" type="line"/>
      <point x="150" y="1309" type="line"/>
      <point x="728" y="1309" type="line"/>
      <point x="717" y="1214" type="line"/>
      <point x="569" y="1192" type="line"/>
      <point x="427" y="117" type="line"/>
      <point x="578" y="91" type="line"/>
      <point x="572" y="0" type="line"/>
      <point x="-15" y="0" type="line"/>
      <point x="-4" y="91" type="line"/>
    </contour>
    <contour>
      <point x="615" y="1732" type="line"/>
      <point x="776" y="1573" type="line"/>
      <point x="748" y="1520"/>
      <point x="668" y="1453"/>
      <point x="585" y="1404" type="curve" smooth="yes"/>
      <point x="543" y="1379"/>
      <point x="507" y="1361"/>
      <point x="478" y="1350" type="curve"/>
      <point x="378" y="1438" type="line"/>
    </contour>
  </outline>
</glyph>
<glyph name="Icircumflex" format="1">
  <advance width="659"/>
  <unicode hex="00CE"/>
  <note>
	Icircumflex
  </note>
  <outline>
    <contour>
      <point x="125" y="117" type="line"/>
      <point x="267" y="1192" type="line"/>
      <point x="140" y="1214" type="line"/>
      <point x="150" y="1309" type="line"/>
      <point x="728" y="1309" type="line"/>
      <point x="717" y="1214" type="line"/>
      <point x="569" y="1192" type="line"/>
      <point x="427" y="117" type="line"/>
      <point x="578" y="91" type="line"/>
      <point x="572" y="0" type="line"/>
      <point x="-15" y="0" type="line"/>
      <point x="-4" y="91" type="line"/>
    </contour>
    <contour>
      <point x="464" y="1732" type="line"/>
      <point x="617" y="1732" type="line"/>
      <point x="798" y="1425" type="line"/>
      <point x="691" y="1375" type="line"/>
      <point x="519" y="1553" type="line"/>
      <point x="241" y="1376" type="line"/>
      <point x="149" y="1425" type="line"/>
    </contour>
  </outline>
</glyph>
<glyph name="Idieresis" format="1">
  <advance width="659"/>
  <unicode hex="00CF"/>
  <note>
	Idieresis
  </note>
  <outline>
    <contour>
      <point x="125" y="117" type="line"/>
      <point x="267" y="1192" type="line"/>
      <point x="140" y="1214" type="line"/>
      <point x="150" y="1309" type="line"/>
      <point x="728" y="1309" type="line"/>
      <point x="717" y="1214" type="line"/>
      <point x="569" y="1192" type="line"/>
      <point x="427" y="117" type="line"/>
      <point x="578" y="91" type="line"/>
      <point x="572" y="0" type="line"/>
      <point x="-15" y="0" type="line"/>
      <point x="-4" y="91" type="line"/>
    </contour>
    <contour>
      <point x="149" y="1647"/>
      <point x="205" y="1706"/>
      <point x="294" y="1706" type="curve" smooth="yes"/>
      <point x="371" y="1706"/>
      <point x="416" y="1658"/>
      <point x="416" y="1589" type="curve" smooth="yes"/>
      <point x="416" y="1489"/>
      <point x="365" y="1428"/>
      <point x="265" y="1428" type="curve" smooth="yes"/>
      <point x="197" y="1428"/>
      <point x="149" y="1482"/>
      <point x="149" y="1551" type="curve" smooth="yes"/>
    </contour>
    <contour>
      <point x="538" y="1647"/>
      <point x="594" y="1706"/>
      <point x="682" y="1706" type="curve" smooth="yes"/>
      <point x="761" y="1706"/>
      <point x="804" y="1658"/>
      <point x="804" y="1589" type="curve" smooth="yes"/>
      <point x="804" y="1489"/>
      <point x="754" y="1428"/>
      <point x="654" y="1428" type="curve" smooth="yes"/>
      <point x="586" y="1428"/>
      <point x="538" y="1482"/>
      <point x="538" y="1551" type="curve" smooth="yes"/>
    </contour>
  </outline>
</glyph>
<glyph name="Eth" format="1">
  <advance width="1295"/>
  <unicode hex="00D0"/>
  <note>
	Eth
  </note>
  <outline>
    <contour>
      <point x="201" y="750" type="line"/>
      <point x="261" y="1194" type="line"/>
      <point x="137" y="1216" type="line"/>
      <point x="146" y="1311" type="line"/>
      <point x="404" y="1311" type="line" smooth="yes"/>
      <point x="437" y="1311"/>
      <point x="489" y="1313"/>
      <point x="562" y="1318" type="curve" smooth="yes"/>
      <point x="637" y="1322"/>
      <point x="693" y="1324"/>
      <point x="730" y="1324" type="curve" smooth="yes"/>
      <point x="1121" y="1324"/>
      <point x="1287" y="1118"/>
      <point x="1287" y="794" type="curve" smooth="yes"/>
      <point x="1287" y="469"/>
      <point x="1184" y="223"/>
      <point x="955" y="89" type="curve" smooth="yes"/>
      <point x="840" y="22"/>
      <point x="694" y="-12"/>
      <point x="517" y="-12" type="curve" smooth="yes"/>
      <point x="499" y="-12"/>
      <point x="477" y="-10"/>
      <point x="452" y="-6" type="curve"/>
      <point x="400" y="-2"/>
      <point x="317" y="2"/>
      <point x="265" y="2" type="curve" smooth="yes"/>
      <point x="-30" y="2" type="line"/>
      <point x="-20" y="93" type="line"/>
      <point x="116" y="119" type="line"/>
      <point x="181" y="604" type="line"/>
      <point x="64" y="604" type="line"/>
      <point x="86" y="750" type="line"/>
    </contour>
    <contour>
      <point x="418" y="119" type="line"/>
      <point x="453" y="106"/>
      <point x="502" y="97"/>
      <point x="535" y="97" type="curve" smooth="yes"/>
      <point x="734" y="97"/>
      <point x="862" y="247"/>
      <point x="920" y="451" type="curve" smooth="yes"/>
      <point x="949" y="552"/>
      <point x="963" y="657"/>
      <point x="963" y="764" type="curve" smooth="yes"/>
      <point x="963" y="981"/>
      <point x="925" y="1110"/>
      <point x="848" y="1171" type="curve" smooth="yes"/>
      <point x="809" y="1201"/>
      <point x="759" y="1216"/>
      <point x="697" y="1216" type="curve" smooth="yes"/>
      <point x="634" y="1216"/>
      <point x="580" y="1205"/>
      <point x="561" y="1194" type="curve"/>
      <point x="501" y="750" type="line"/>
      <point x="756" y="750" type="line"/>
      <point x="734" y="604" type="line"/>
      <point x="482" y="604" type="line"/>
    </contour>
  </outline>
</glyph>
<glyph name="Ntilde" format="1">
  <advance width="1336"/>
  <unicode hex="00D1"/>
  <note>
	Ntilde
  </note>
  <outline>
    <contour>
      <point x="499" y="1549" type="line"/>
      <point x="518" y="1598"/>
      <point x="561" y="1646"/>
      <point x="622" y="1674" type="curve" smooth="yes"/>
      <point x="652" y="1687"/>
      <point x="685" y="1694"/>
      <point x="720" y="1694" type="curve" smooth="yes"/>
      <point x="785" y="1694"/>
      <point x="821" y="1668"/>
      <point x="869" y="1619" type="curve" smooth="yes"/>
      <point x="908" y="1580"/>
      <point x="927" y="1565"/>
      <point x="960" y="1565" type="curve" smooth="yes"/>
      <point x="1016" y="1565"/>
      <point x="1055" y="1603"/>
      <point x="1091" y="1651" type="curve"/>
      <point x="1167" y="1539" type="line"/>
      <point x="1147" y="1487"/>
      <point x="1101" y="1436"/>
      <point x="1042" y="1406" type="curve" smooth="yes"/>
      <point x="1012" y="1391"/>
      <point x="982" y="1383"/>
      <point x="951" y="1383" type="curve" smooth="yes"/>
      <point x="899" y="1383"/>
      <point x="861" y="1399"/>
      <point x="836" y="1419" type="curve"/>
      <point x="823" y="1428"/>
      <point x="809" y="1441"/>
      <point x="793" y="1457" type="curve" smooth="yes"/>
      <point x="754" y="1494"/>
      <point x="733" y="1512"/>
      <point x="690" y="1512" type="curve" smooth="yes"/>
      <point x="643" y="1512"/>
      <point x="606" y="1485"/>
      <point x="565" y="1442" type="curve"/>
    </contour>
    <contour>
      <point x="119" y="117" type="line"/>
      <point x="279" y="1192" type="line"/>
      <point x="132" y="1214" type="line"/>
      <point x="146" y="1309" type="line"/>
      <point x="625" y="1309" type="line"/>
      <point x="944" y="460" type="line"/>
      <point x="1011" y="262" type="line"/>
      <point x="1128" y="1192" type="line"/>
      <point x="980" y="1214" type="line"/>
      <point x="990" y="1309" type="line"/>
      <point x="1422" y="1309" type="line"/>
      <point x="1412" y="1214" type="line"/>
      <point x="1306" y="1192" type="line"/>
      <point x="1124" y="0" type="line"/>
      <point x="816" y="0" type="line"/>
      <point x="480" y="877" type="line"/>
      <point x="413" y="1096" type="line"/>
      <point x="305" y="117" type="line"/>
      <point x="469" y="91" type="line"/>
      <point x="459" y="0" type="line"/>
      <point x="-16" y="0" type="line"/>
      <point x="-9" y="91" type="line"/>
    </contour>
  </outline>
</glyph>
